{"glyphs":{"0":{"ha":904,"x_min":54,"x_max":850,"o":"m 453 -25 q 239 36 329 -25 q 101 213 149 97 q 54 488 54 328 q 103 761 54 646 q 242 937 151 876 q 453 997 332 997 q 663 936 574 997 q 801 759 753 875 q 850 482 850 643 q 803 210 850 325 q 666 35 756 96 q 453 -25 576 -25 m 454 150 q 591 232 542 150 q 640 481 640 314 q 591 739 640 656 q 454 822 542 822 q 315 738 365 822 q 265 478 265 654 q 316 231 265 313 q 454 150 367 150 z "},"1":{"ha":546,"x_min":31,"x_max":447,"o":"m 447 972 l 447 0 l 240 0 l 240 643 q 246 707 240 679 q 159 624 215 654 q 31 592 103 593 l 31 793 q 189 849 125 804 q 272 972 253 894 l 447 972 z "},"2":{"ha":838,"x_min":47,"x_max":775,"o":"m 47 0 q 85 188 49 110 q 178 318 122 265 q 328 436 235 371 l 403 488 q 524 591 485 544 q 563 696 563 638 q 527 790 563 756 q 429 824 492 824 q 314 775 353 824 q 275 642 275 726 l 275 628 l 57 628 l 57 639 q 102 828 57 747 q 232 953 147 908 q 432 997 317 997 q 617 958 539 997 q 735 852 694 919 q 775 700 775 785 q 740 551 775 617 q 652 437 706 486 q 519 333 599 388 l 447 285 q 360 221 383 240 q 328 185 338 201 l 774 185 l 774 0 l 47 0 z "},"3":{"ha":857,"x_min":46,"x_max":801,"o":"m 426 -25 q 147 67 247 -25 q 46 322 46 158 l 260 322 q 305 194 260 239 q 428 149 350 149 q 549 185 504 149 q 594 285 594 221 q 549 378 594 343 q 428 413 503 413 l 353 413 l 353 583 l 426 583 q 534 613 492 583 q 576 703 576 643 q 538 790 576 757 q 435 824 500 824 q 320 784 364 824 q 272 678 276 744 l 56 678 q 108 846 60 774 q 242 958 157 918 q 438 997 326 997 q 617 963 539 997 q 740 865 696 929 q 785 717 785 801 q 738 582 785 638 q 615 503 690 526 q 750 418 699 478 q 801 268 801 358 q 753 115 801 182 q 621 12 706 49 q 426 -25 536 -25 z "},"4":{"ha":906,"x_min":32,"x_max":875,"o":"m 699 0 l 493 0 l 493 228 l 32 228 l 32 406 l 432 972 l 699 972 l 699 401 l 875 401 l 875 228 l 699 228 l 699 0 m 493 401 l 493 782 q 450 713 472 740 l 272 463 q 224 401 232 410 l 493 401 z "},"5":{"ha":832,"x_min":44,"x_max":786,"o":"m 415 -25 q 216 17 300 -25 q 89 129 132 58 q 44 288 46 200 l 258 288 q 302 188 261 226 q 411 149 343 149 q 531 196 483 149 q 578 322 578 243 q 535 441 578 393 q 421 489 493 489 q 328 466 368 489 q 269 403 289 443 l 61 403 l 139 972 l 733 972 l 733 779 l 296 779 l 269 601 q 257 544 263 563 q 349 622 293 592 q 481 651 406 651 q 640 609 571 651 q 748 492 710 567 q 786 324 786 418 q 736 135 786 214 q 602 15 686 56 q 415 -25 518 -25 z "},"6":{"ha":879,"x_min":54,"x_max":821,"o":"m 460 -25 q 235 38 326 -25 q 99 213 144 101 q 54 468 54 324 q 101 742 54 624 q 244 929 149 861 q 479 997 339 997 q 722 917 633 997 q 818 708 811 836 l 606 708 q 563 796 599 765 q 468 826 528 826 q 326 758 376 826 q 271 571 276 689 q 264 506 268 525 q 365 601 301 563 q 510 639 429 639 q 669 600 597 639 q 781 490 740 561 q 821 325 821 419 q 774 145 821 225 q 644 20 726 65 q 460 -25 563 -25 m 456 147 q 571 192 528 147 q 614 310 614 236 q 572 424 614 381 q 457 467 529 467 q 338 424 382 467 q 294 311 294 382 q 338 192 294 236 q 456 147 382 147 z "},"7":{"ha":790,"x_min":25,"x_max":764,"o":"m 172 0 q 231 313 181 156 q 368 594 281 469 q 569 778 456 718 l 25 778 l 25 972 l 764 972 l 764 768 q 529 466 619 657 q 425 0 439 275 l 172 0 z "},"8":{"ha":863,"x_min":53,"x_max":810,"o":"m 431 -25 q 222 12 307 -25 q 95 112 138 49 q 53 254 53 175 q 106 407 53 343 q 253 504 158 471 q 126 583 174 531 q 78 717 78 636 q 121 865 78 801 q 244 963 164 928 q 431 997 324 997 q 617 963 538 997 q 741 866 697 928 q 785 722 785 804 q 737 583 785 640 q 607 504 689 525 q 756 411 701 474 q 810 263 810 349 q 765 114 810 179 q 635 12 721 49 q 431 -25 550 -25 m 431 581 q 540 613 497 581 q 582 701 582 646 q 540 792 582 758 q 431 825 499 825 q 322 793 363 825 q 281 706 281 761 q 322 615 281 649 q 431 581 364 581 m 431 149 q 553 188 506 149 q 601 286 601 226 q 553 384 601 346 q 431 422 506 422 q 309 385 357 422 q 261 288 261 347 q 309 188 261 226 q 431 149 357 149 z "},"9":{"ha":868,"x_min":57,"x_max":814,"o":"m 410 -25 q 158 58 250 -25 q 63 276 67 140 l 275 276 q 315 178 278 214 q 415 143 351 143 q 558 217 510 143 q 607 407 607 292 q 610 471 607 451 q 510 378 574 417 q 363 340 447 340 q 209 379 279 340 q 98 490 139 418 q 57 658 57 563 q 105 837 57 760 q 235 956 153 914 q 418 997 317 997 q 638 932 549 997 q 770 752 726 867 q 814 489 814 638 q 711 115 814 256 q 410 -25 608 -25 m 421 513 q 531 556 488 513 q 574 671 574 599 q 533 784 574 743 q 421 825 492 825 q 308 783 353 825 q 264 669 264 740 q 306 555 264 597 q 421 513 349 513 z "},"\u0000":{"ha":0,"x_min":0,"x_max":0,"o":""},"\r":{"ha":347,"x_min":0,"x_max":0,"o":""}," ":{"ha":347,"x_min":0,"x_max":0,"o":""},"!":{"ha":385,"x_min":75,"x_max":310,"o":"m 247 304 l 138 304 l 82 692 l 82 972 l 303 972 l 303 692 l 247 304 m 310 0 l 75 0 l 75 225 l 310 225 l 310 0 z "},"\"":{"ha":601,"x_min":58,"x_max":542,"o":"m 232 563 l 92 563 l 58 821 l 58 972 l 264 972 l 264 821 l 232 563 m 510 563 l 369 563 l 336 821 l 336 972 l 542 972 l 542 821 l 510 563 z "},"#":{"ha":919,"x_min":40,"x_max":879,"o":"m 318 0 l 160 0 l 192 236 l 40 236 l 40 382 l 213 382 l 238 588 l 86 588 l 86 733 l 258 733 l 292 972 l 450 972 l 417 733 l 568 733 l 601 972 l 760 972 l 726 733 l 879 733 l 879 588 l 706 588 l 681 382 l 833 382 l 833 236 l 661 236 l 628 0 l 469 0 l 501 236 l 351 236 l 318 0 m 397 588 l 371 382 l 522 382 l 547 588 l 397 588 z "},"$":{"ha":860,"x_min":40,"x_max":811,"o":"m 811 290 q 734 89 811 174 q 521 -17 657 4 l 521 -153 l 365 -153 l 365 -18 q 137 94 222 1 q 40 335 51 188 l 246 335 q 283 224 251 271 q 365 158 314 178 l 365 418 l 342 424 q 144 518 222 449 q 67 703 67 588 q 150 897 67 819 q 365 990 233 974 l 365 1126 l 521 1126 l 521 988 q 719 883 646 965 q 803 676 792 801 l 593 676 q 572 749 590 717 q 521 801 553 782 l 521 575 l 526 574 q 730 479 649 549 q 811 290 811 410 m 267 718 q 365 611 267 644 l 365 822 q 292 786 318 813 q 267 718 267 760 m 521 158 q 588 201 564 172 q 613 274 613 231 q 521 383 613 350 l 521 158 z "},"%":{"ha":1085,"x_min":32,"x_max":1051,"o":"m 265 513 q 97 578 163 513 q 32 749 32 643 q 97 923 32 857 q 265 989 161 989 q 433 923 368 989 q 497 749 497 857 q 433 578 497 643 q 265 513 368 513 m 283 0 l 108 0 l 799 972 l 974 972 l 283 0 m 265 638 q 324 669 301 638 q 346 750 346 700 q 324 832 346 800 q 265 864 301 864 q 206 832 228 864 q 183 750 183 800 q 206 669 183 700 q 265 638 228 638 m 819 -15 q 651 51 715 -15 q 586 222 586 117 q 651 396 586 329 q 819 463 715 463 q 987 396 922 463 q 1051 222 1051 329 q 987 51 1051 117 q 819 -15 922 -15 m 819 110 q 878 142 856 110 q 900 224 900 174 q 878 305 900 274 q 819 336 856 336 q 760 305 782 336 q 738 224 738 274 q 760 142 738 174 q 819 110 782 110 z "},"&":{"ha":969,"x_min":43,"x_max":982,"o":"m 982 0 l 735 0 l 667 75 q 379 -25 553 -25 q 209 10 286 -25 q 88 111 132 46 q 43 261 43 176 q 94 414 43 349 q 224 524 144 479 l 244 535 l 233 547 q 158 651 183 603 q 133 757 133 700 q 174 885 133 831 q 280 969 214 940 q 424 997 346 997 q 620 935 543 997 q 697 760 697 872 q 657 626 697 685 q 532 513 617 567 l 513 500 l 629 372 q 644 356 638 364 q 660 340 651 347 q 672 383 664 364 q 690 518 688 436 l 897 518 q 790 206 897 339 l 982 0 m 425 828 q 361 804 386 828 q 336 742 336 781 q 351 684 336 711 q 397 624 367 657 l 404 617 l 418 625 q 508 743 508 676 q 485 806 508 785 q 425 828 461 828 m 399 143 q 547 200 486 143 l 354 414 l 340 404 q 276 344 300 376 q 251 269 251 313 q 294 177 251 211 q 399 143 336 143 z "},"'":{"ha":324,"x_min":58,"x_max":264,"o":"m 232 563 l 92 563 l 58 821 l 58 972 l 264 972 l 264 821 l 232 563 z "},"(":{"ha":431,"x_min":49,"x_max":411,"o":"m 226 -179 q 99 92 150 -62 q 49 424 49 247 q 101 751 49 593 q 226 1014 153 910 l 411 1014 q 284 749 332 897 q 236 426 236 600 q 410 -179 236 103 l 226 -179 z "},")":{"ha":431,"x_min":19,"x_max":383,"o":"m 204 1014 q 333 742 282 896 q 383 411 383 588 q 331 83 383 242 q 204 -179 278 -75 l 19 -179 q 147 85 99 -64 q 194 408 194 235 q 21 1014 194 732 l 204 1014 z "},"*":{"ha":575,"x_min":44,"x_max":529,"o":"m 289 638 l 219 506 l 110 569 l 194 693 l 44 685 l 44 810 l 194 801 l 110 925 l 219 989 l 289 857 l 357 989 l 465 925 l 381 801 l 529 810 l 529 685 l 381 693 l 465 569 l 357 506 l 289 638 z "},"+":{"ha":749,"x_min":51,"x_max":710,"o":"m 475 503 l 710 503 l 710 325 l 475 325 l 475 75 l 285 75 l 285 325 l 51 325 l 51 503 l 285 503 l 285 754 l 475 754 l 475 503 z "},",":{"ha":385,"x_min":69,"x_max":314,"o":"m 71 -140 q 188 -25 188 -115 l 188 0 l 69 0 l 69 233 l 314 233 l 314 7 q 248 -186 314 -122 q 71 -258 182 -250 l 71 -140 z "},"-":{"ha":507,"x_min":71,"x_max":438,"o":"m 438 242 l 71 242 l 71 439 l 438 439 l 438 242 z "},".":{"ha":385,"x_min":69,"x_max":314,"o":"m 314 0 l 69 0 l 69 233 l 314 233 l 314 0 z "},"/":{"ha":601,"x_min":28,"x_max":572,"o":"m 225 0 l 28 0 l 376 972 l 572 972 l 225 0 z "},":":{"ha":386,"x_min":71,"x_max":315,"o":"m 315 0 l 71 0 l 71 233 l 315 233 l 315 0 m 315 404 l 71 404 l 71 638 l 315 638 l 315 404 z "},";":{"ha":386,"x_min":71,"x_max":315,"o":"m 315 404 l 71 404 l 71 638 l 315 638 l 315 404 m 72 -140 q 189 -25 189 -115 l 189 0 l 71 0 l 71 233 l 315 233 l 315 7 q 249 -186 315 -122 q 72 -258 183 -250 l 72 -140 z "},"<":{"ha":753,"x_min":49,"x_max":671,"o":"m 671 51 l 49 306 l 49 526 l 671 781 l 671 565 l 357 457 q 226 415 306 438 q 358 374 263 406 l 671 267 l 671 51 z "},"=":{"ha":814,"x_min":83,"x_max":742,"o":"m 742 468 l 83 468 l 83 643 l 742 643 l 742 468 m 742 190 l 83 190 l 83 365 l 742 365 l 742 190 z "},">":{"ha":753,"x_min":82,"x_max":704,"o":"m 82 51 l 82 271 l 417 383 q 529 417 475 404 q 415 450 471 431 l 82 569 l 82 781 l 704 526 l 704 306 l 82 51 z "},"?":{"ha":750,"x_min":31,"x_max":708,"o":"m 256 304 q 282 457 256 401 q 375 563 308 513 l 428 600 q 496 715 496 650 q 465 794 496 765 q 383 822 435 822 q 283 782 318 822 q 247 663 247 742 l 31 663 q 74 840 31 764 q 199 956 118 915 q 389 997 281 997 q 553 964 481 997 q 667 869 626 931 q 708 724 708 807 q 674 593 708 653 q 586 493 639 533 l 529 449 q 472 386 488 417 q 457 304 457 356 l 256 304 m 475 0 l 238 0 l 238 225 l 475 225 l 475 0 z "},"@":{"ha":1115,"x_min":67,"x_max":1065,"o":"m 583 -157 q 310 -94 426 -157 q 130 83 193 -31 q 67 343 67 197 q 134 617 67 496 q 322 805 201 738 q 596 872 442 872 q 844 814 738 872 q 1008 654 950 756 q 1065 431 1065 553 q 1028 247 1065 322 q 933 133 992 171 q 808 96 875 96 q 658 189 696 96 q 597 121 638 146 q 506 96 556 96 q 410 124 453 96 q 343 205 368 153 q 318 325 318 257 q 349 476 318 411 q 432 576 381 542 q 542 611 483 611 q 613 592 582 611 q 660 543 644 572 l 664 596 l 814 596 l 786 290 q 785 274 785 285 q 821 229 785 229 q 883 277 858 229 q 908 417 908 325 q 824 642 908 558 q 594 725 740 725 q 402 677 486 725 q 272 543 318 629 q 226 349 226 457 q 267 164 226 244 q 390 37 308 83 q 589 -10 471 -10 q 715 8 653 -10 q 829 61 776 26 l 903 -54 q 759 -127 847 -97 q 583 -157 671 -157 m 553 235 q 620 272 594 235 q 646 375 646 310 q 626 449 646 424 q 572 474 607 474 q 502 434 529 474 q 475 340 475 394 q 496 263 475 290 q 553 235 517 235 z "},"A":{"ha":1017,"x_min":-7,"x_max":1024,"o":"m 1024 0 l 785 0 l 700 242 l 310 242 l 224 0 l -7 0 l 378 972 l 639 972 l 1024 0 m 374 421 l 636 421 l 543 685 q 506 801 514 771 q 467 685 499 775 l 374 421 z "},"B":{"ha":943,"x_min":99,"x_max":897,"o":"m 99 0 l 99 972 l 522 972 q 773 911 678 972 q 868 725 868 850 q 817 588 868 642 q 683 511 767 533 q 839 434 781 493 q 897 282 897 375 q 789 69 897 139 q 504 0 681 0 l 99 0 m 501 586 q 647 694 647 586 q 501 794 647 794 l 308 794 l 308 586 l 501 586 m 511 178 q 675 299 675 178 q 635 389 675 361 q 511 417 596 417 l 308 417 l 308 178 l 511 178 z "},"C":{"ha":1025,"x_min":49,"x_max":990,"o":"m 528 -25 q 274 36 382 -25 q 107 214 165 97 q 49 492 49 331 q 113 760 49 646 q 290 936 178 875 q 542 997 401 997 q 760 953 664 997 q 916 823 857 908 q 986 618 975 738 l 763 618 q 693 763 750 710 q 540 817 636 817 q 402 778 463 817 q 308 667 342 740 q 274 492 274 593 q 307 312 274 388 q 399 196 340 236 q 536 156 458 156 q 697 214 633 156 q 772 368 760 272 l 990 368 q 922 163 979 251 q 763 24 864 74 q 528 -25 663 -25 z "},"D":{"ha":1029,"x_min":99,"x_max":981,"o":"m 99 0 l 99 972 l 457 972 q 845 848 710 972 q 981 485 981 724 q 921 228 981 338 q 744 60 861 119 q 458 0 628 0 l 99 0 m 443 183 q 673 258 589 183 q 757 485 757 332 q 678 710 757 632 q 444 789 600 789 l 315 789 l 315 183 l 443 183 z "},"E":{"ha":871,"x_min":99,"x_max":815,"o":"m 815 0 l 99 0 l 99 972 l 793 972 l 793 789 l 315 789 l 315 588 l 772 588 l 772 407 l 315 407 l 315 183 l 815 183 l 815 0 z "},"F":{"ha":833,"x_min":99,"x_max":793,"o":"m 315 0 l 99 0 l 99 972 l 793 972 l 793 789 l 315 789 l 315 567 l 765 567 l 765 383 l 315 383 l 315 0 z "},"G":{"ha":1049,"x_min":49,"x_max":979,"o":"m 533 526 l 979 526 l 979 0 l 782 0 l 782 26 q 790 122 782 71 q 679 15 754 56 q 500 -25 604 -25 q 264 37 367 -25 q 105 213 161 99 q 49 482 49 328 q 111 750 49 633 q 287 932 174 867 q 546 997 400 997 q 763 954 668 997 q 911 835 857 911 q 975 663 965 760 l 751 663 q 687 774 742 731 q 547 817 632 817 q 405 777 467 817 q 308 663 343 738 q 274 486 274 589 q 347 243 274 332 q 546 154 421 154 q 710 210 644 154 q 776 357 775 265 l 533 357 l 533 526 z "},"H":{"ha":1032,"x_min":99,"x_max":935,"o":"m 315 0 l 99 0 l 99 972 l 315 972 l 315 586 l 718 586 l 718 972 l 935 972 l 935 0 l 718 0 l 718 404 l 315 404 l 315 0 z "},"I":{"ha":413,"x_min":99,"x_max":315,"o":"m 99 972 l 315 972 l 315 0 l 99 0 l 99 972 z "},"J":{"ha":763,"x_min":14,"x_max":672,"o":"m 340 -25 q 92 67 169 -25 q 14 313 14 158 q 14 318 14 315 l 229 318 q 253 197 229 239 q 339 156 276 156 q 430 198 406 156 q 454 317 454 240 l 454 972 l 672 972 l 672 300 q 582 58 672 142 q 340 -25 492 -25 z "},"K":{"ha":949,"x_min":99,"x_max":982,"o":"m 982 0 l 701 0 l 404 419 l 311 322 l 311 0 l 99 0 l 99 972 l 311 972 l 311 582 q 375 664 331 613 l 658 972 l 933 972 l 546 568 l 982 0 z "},"L":{"ha":799,"x_min":99,"x_max":786,"o":"m 786 0 l 99 0 l 99 972 l 315 972 l 315 183 l 786 183 l 786 0 z "},"M":{"ha":1326,"x_min":99,"x_max":1228,"o":"m 99 0 l 99 972 l 432 972 l 644 317 q 669 213 663 249 q 693 317 678 263 l 896 972 l 1228 972 l 1228 0 l 1022 0 l 1022 625 q 1026 765 1022 699 l 796 0 l 543 0 l 297 764 q 303 624 303 675 l 303 0 l 99 0 z "},"N":{"ha":1086,"x_min":99,"x_max":989,"o":"m 99 0 l 99 972 l 414 972 l 782 290 q 775 435 775 346 l 775 972 l 989 972 l 989 0 l 714 0 l 304 758 q 311 622 311 694 l 311 0 l 99 0 z "},"O":{"ha":1075,"x_min":49,"x_max":1025,"o":"m 535 -25 q 284 35 394 -25 q 111 211 174 96 q 49 486 49 326 q 111 758 49 642 q 284 935 174 874 q 535 997 394 997 q 785 934 674 997 q 961 755 897 871 q 1025 486 1025 639 q 961 213 1025 328 q 786 36 897 97 q 535 -25 675 -25 m 535 157 q 728 243 654 157 q 801 486 801 329 q 767 662 801 588 q 673 776 733 736 q 535 815 613 815 q 344 728 415 815 q 274 486 274 640 q 344 244 274 331 q 535 157 415 157 z "},"P":{"ha":908,"x_min":99,"x_max":885,"o":"m 99 0 l 99 972 l 519 972 q 785 899 685 972 q 885 672 885 825 q 784 444 885 517 q 519 372 683 372 l 315 372 l 315 0 l 99 0 m 515 551 q 663 672 663 551 q 515 792 663 792 l 315 792 l 315 551 l 515 551 z "},"Q":{"ha":1075,"x_min":49,"x_max":1025,"o":"m 1025 488 q 988 275 1025 369 q 883 113 951 181 l 978 1 l 844 -114 l 736 14 q 533 -25 644 -25 q 283 35 393 -25 q 111 211 174 96 q 49 486 49 326 q 111 758 49 642 q 284 935 174 874 q 535 997 394 997 q 785 934 674 997 q 961 756 897 871 q 1025 488 1025 640 m 535 156 q 607 164 572 156 l 507 281 l 643 394 l 749 269 q 801 486 801 356 q 767 662 801 588 q 673 776 733 736 q 535 815 613 815 q 344 728 415 815 q 274 486 274 640 q 344 242 274 329 q 535 156 415 156 z "},"R":{"ha":928,"x_min":99,"x_max":868,"o":"m 99 0 l 99 972 l 544 972 q 779 906 690 972 q 868 713 868 839 q 814 558 868 618 q 679 474 760 497 q 808 403 765 460 q 851 253 851 347 l 851 0 l 633 0 l 633 233 q 599 345 633 313 q 485 378 565 378 l 313 378 l 313 0 l 99 0 m 501 557 q 647 675 647 557 q 501 792 647 792 l 313 792 l 313 557 l 501 557 z "},"S":{"ha":922,"x_min":35,"x_max":869,"o":"m 472 -25 q 160 72 276 -25 q 35 336 44 168 l 260 336 q 327 202 265 250 q 481 154 389 154 q 603 183 556 154 q 651 271 651 213 q 618 345 651 318 q 514 386 585 372 l 349 417 q 144 510 222 440 q 67 696 67 581 q 117 853 67 785 q 257 960 168 922 q 457 997 346 997 q 746 909 642 997 q 860 672 850 821 l 635 672 q 584 780 631 739 q 447 821 538 821 q 329 792 375 821 q 283 713 283 764 q 319 645 283 668 q 429 608 356 622 l 588 579 q 792 487 714 557 q 869 296 869 417 q 824 130 869 203 q 688 16 778 57 q 472 -25 599 -25 z "},"T":{"ha":874,"x_min":11,"x_max":861,"o":"m 546 0 l 329 0 l 329 789 l 11 789 l 11 972 l 861 972 l 861 789 l 546 789 l 546 0 z "},"U":{"ha":993,"x_min":89,"x_max":906,"o":"m 496 -25 q 195 81 301 -25 q 89 381 89 186 l 89 972 l 306 972 l 306 413 q 353 222 306 285 q 497 158 400 158 q 689 413 689 158 l 689 972 l 906 972 l 906 381 q 798 81 906 188 q 496 -25 690 -25 z "},"V":{"ha":996,"x_min":-1,"x_max":1001,"o":"m 360 0 l -1 972 l 239 972 l 464 318 q 503 190 493 231 q 540 318 511 231 l 765 972 l 1001 972 l 633 0 l 360 0 z "},"W":{"ha":1458,"x_min":14,"x_max":1446,"o":"m 260 0 l 14 972 l 249 972 l 382 374 q 415 203 403 276 q 449 374 428 276 l 592 972 l 886 972 l 1018 374 q 1053 203 1043 260 q 1085 375 1067 297 l 1221 972 l 1446 972 l 1199 0 l 906 0 l 764 656 l 758 686 q 739 792 746 736 q 710 656 724 706 l 546 0 l 260 0 z "},"X":{"ha":964,"x_min":-18,"x_max":983,"o":"m -18 0 l 351 508 l 15 972 l 281 972 l 444 726 q 485 656 472 683 q 526 726 499 683 l 688 972 l 944 972 l 611 511 l 983 0 l 715 0 l 528 278 q 481 360 503 315 q 431 276 464 326 l 240 0 l -18 0 z "},"Y":{"ha":951,"x_min":-6,"x_max":957,"o":"m 367 0 l 367 386 l -6 972 l 254 972 l 426 668 q 479 567 460 611 q 532 668 508 628 l 707 972 l 957 972 l 585 388 l 585 0 l 367 0 z "},"Z":{"ha":889,"x_min":42,"x_max":853,"o":"m 42 0 l 42 194 l 476 696 q 569 789 531 757 l 68 789 l 68 972 l 826 972 l 826 789 l 382 274 q 292 183 329 217 l 853 183 l 853 0 l 42 0 z "},"[":{"ha":478,"x_min":92,"x_max":447,"o":"m 447 -179 l 92 -179 l 92 1015 l 447 1015 l 447 865 l 285 865 l 285 -29 l 447 -29 l 447 -179 z "},"\\":{"ha":604,"x_min":28,"x_max":576,"o":"m 576 0 l 376 0 l 28 972 l 228 972 l 576 0 z "},"]":{"ha":478,"x_min":31,"x_max":386,"o":"m 31 1015 l 386 1015 l 386 -179 l 31 -179 l 31 -29 l 193 -29 l 193 865 l 31 865 l 31 1015 z "},"^":{"ha":728,"x_min":35,"x_max":693,"o":"m 35 475 l 261 972 l 467 972 l 693 475 l 478 475 l 401 668 q 363 785 378 736 q 324 668 347 729 l 247 475 l 35 475 z "},"_":{"ha":857,"x_min":44,"x_max":811,"o":"m 811 -235 l 44 -235 l 44 -50 l 811 -50 l 811 -235 z "},"`":{"ha":468,"x_min":240,"x_max":578,"o":"m 578 767 l 404 767 l 240 978 l 479 978 l 578 767 z "},"a":{"ha":750,"x_min":46,"x_max":679,"o":"m 281 -25 q 165 1 219 -25 q 78 76 111 26 q 46 192 46 125 q 118 349 46 297 q 314 415 190 400 l 411 426 q 467 445 450 432 q 483 482 483 458 q 457 538 483 515 q 385 560 431 560 q 302 533 333 560 q 265 460 271 507 l 61 460 q 107 586 67 531 q 217 673 147 642 q 378 704 288 704 q 606 627 533 704 q 679 401 679 550 l 679 0 l 493 0 l 493 25 q 499 88 493 60 q 416 5 471 35 q 281 -25 361 -25 m 343 118 q 447 158 406 118 q 488 263 488 199 l 488 326 q 411 299 471 311 l 364 290 q 278 259 308 281 q 249 201 249 238 q 275 140 249 163 q 343 118 301 118 z "},"b":{"ha":828,"x_min":78,"x_max":786,"o":"m 485 -25 q 356 6 408 -25 q 275 86 303 36 q 279 24 279 61 l 279 0 l 78 0 l 78 972 l 279 972 l 279 663 q 275 592 279 628 q 360 674 307 643 q 485 704 413 704 q 634 660 565 704 q 744 534 703 617 q 786 339 786 451 q 747 142 786 225 q 640 17 708 60 q 485 -25 571 -25 m 424 131 q 537 188 493 131 q 581 338 581 246 q 537 490 581 432 q 424 547 493 547 q 311 490 354 547 q 268 338 268 432 q 311 188 268 246 q 424 131 354 131 z "},"c":{"ha":778,"x_min":43,"x_max":743,"o":"m 394 -25 q 138 72 232 -25 q 43 340 43 169 q 91 535 43 453 q 221 660 139 617 q 404 704 303 704 q 640 624 554 704 q 739 414 726 543 l 538 414 q 499 508 533 471 q 406 546 465 546 q 292 492 338 546 q 247 340 247 438 q 290 189 247 247 q 401 131 332 131 q 501 169 465 131 q 542 269 536 208 l 743 269 q 638 53 726 132 q 394 -25 549 -25 z "},"d":{"ha":831,"x_min":44,"x_max":753,"o":"m 350 -25 q 192 16 261 -25 q 84 139 124 57 q 44 339 44 221 q 87 540 44 457 q 199 663 129 622 q 350 704 269 704 q 474 673 422 704 q 556 592 525 642 q 551 660 551 618 l 551 972 l 753 972 l 753 0 l 551 0 l 551 24 q 556 86 551 63 q 479 8 531 40 q 350 -25 428 -25 m 407 131 q 519 189 475 131 q 563 339 563 247 q 519 490 563 433 q 407 547 475 547 q 294 490 339 547 q 250 339 250 432 q 294 188 250 246 q 407 131 339 131 z "},"e":{"ha":776,"x_min":43,"x_max":731,"o":"m 397 -25 q 213 18 293 -25 q 88 144 133 61 q 43 342 43 226 q 88 531 43 449 q 212 659 132 614 q 393 704 292 704 q 641 603 551 704 q 731 332 731 503 l 731 293 l 247 293 q 291 174 249 221 q 397 128 333 128 q 482 153 447 128 q 524 225 517 179 l 726 225 q 677 97 719 154 q 563 8 635 40 q 397 -25 490 -25 m 525 425 q 487 522 524 485 q 392 560 450 560 q 292 522 332 560 q 246 425 253 485 l 525 425 z "},"f":{"ha":510,"x_min":22,"x_max":490,"o":"m 151 0 l 151 524 l 22 524 l 22 681 l 151 681 l 151 746 q 216 934 151 871 q 393 997 281 997 q 488 985 447 997 l 488 828 q 443 835 469 835 q 376 813 401 835 q 351 751 351 792 l 351 681 l 490 681 l 490 524 l 353 524 l 353 0 l 151 0 z "},"g":{"ha":826,"x_min":46,"x_max":749,"o":"m 396 -307 q 157 -233 243 -307 q 69 -37 71 -158 l 272 -37 q 308 -123 275 -93 q 401 -153 340 -153 q 506 -116 464 -153 q 547 -12 547 -79 l 547 53 q 553 132 547 97 q 468 55 521 85 q 346 25 415 25 q 190 65 257 25 q 84 181 122 104 q 46 364 46 257 q 87 546 46 468 q 195 664 128 624 q 339 704 263 704 q 553 592 486 704 q 547 660 547 625 l 547 681 l 749 681 l 749 35 q 653 -220 749 -133 q 396 -307 558 -307 m 406 182 q 517 233 474 182 q 560 364 560 283 q 517 496 560 444 q 406 547 474 547 q 293 496 336 547 q 250 364 250 444 q 294 233 250 283 q 406 182 338 182 z "},"h":{"ha":793,"x_min":78,"x_max":721,"o":"m 78 0 l 78 972 l 279 972 l 279 654 q 275 592 279 618 q 355 673 304 642 q 481 704 406 704 q 658 630 594 704 q 721 431 721 556 l 721 0 l 519 0 l 519 401 q 490 508 519 469 q 407 546 460 546 q 315 504 351 546 q 279 399 279 463 l 279 0 l 78 0 z "},"i":{"ha":358,"x_min":75,"x_max":285,"o":"m 75 775 l 75 963 l 285 963 l 285 775 l 75 775 m 78 681 l 279 681 l 279 0 l 78 0 l 78 681 z "},"j":{"ha":361,"x_min":-46,"x_max":288,"o":"m 78 775 l 78 963 l 288 963 l 288 775 l 78 775 m 283 681 l 283 -83 q 225 -244 283 -182 q 47 -307 167 -307 q -6 -303 21 -307 q -46 -293 -32 -299 l -46 -139 q -14 -143 -37 -143 q 58 -121 33 -143 q 82 -46 82 -99 l 82 681 l 283 681 z "},"k":{"ha":751,"x_min":78,"x_max":768,"o":"m 768 0 l 517 0 l 343 261 l 279 196 l 279 0 l 78 0 l 78 972 l 279 972 l 279 436 q 329 499 300 467 l 497 681 l 753 681 l 476 397 l 768 0 z "},"l":{"ha":358,"x_min":78,"x_max":279,"o":"m 78 972 l 279 972 l 279 0 l 78 0 l 78 972 z "},"m":{"ha":1181,"x_min":78,"x_max":1107,"o":"m 78 0 l 78 681 l 278 681 l 278 653 q 274 590 278 613 q 351 672 301 639 q 474 704 401 704 q 581 671 533 704 q 653 588 629 638 q 742 670 685 636 q 869 704 799 704 q 1042 629 978 704 q 1107 432 1107 554 l 1107 0 l 906 0 l 906 403 q 881 508 906 469 q 807 546 856 546 q 725 506 757 546 q 693 397 693 465 l 693 0 l 492 0 l 492 403 q 467 508 492 471 q 392 546 442 546 q 310 506 342 546 q 279 397 279 465 l 279 0 l 78 0 z "},"n":{"ha":793,"x_min":78,"x_max":721,"o":"m 78 0 l 78 681 l 279 681 l 279 654 q 274 592 279 625 q 354 673 303 642 q 481 704 406 704 q 658 630 594 704 q 721 431 721 556 l 721 0 l 519 0 l 519 401 q 490 508 519 469 q 407 546 460 546 q 315 504 351 546 q 279 399 279 463 l 279 0 l 78 0 z "},"o":{"ha":801,"x_min":43,"x_max":758,"o":"m 400 -25 q 214 18 294 -25 q 88 143 133 61 q 43 338 43 225 q 88 532 43 449 q 215 660 133 615 q 400 704 296 704 q 585 660 504 704 q 713 532 667 615 q 758 338 758 449 q 713 143 758 225 q 587 18 668 61 q 400 -25 506 -25 m 400 131 q 513 185 471 131 q 554 338 554 240 q 512 491 554 436 q 400 546 469 546 q 289 491 331 546 q 247 338 247 436 q 288 185 247 240 q 400 131 329 131 z "},"p":{"ha":826,"x_min":78,"x_max":785,"o":"m 78 -282 l 78 681 l 279 681 l 279 656 q 275 592 279 619 q 360 674 306 643 q 489 704 415 704 q 641 660 574 704 q 747 532 708 615 q 785 338 785 449 q 745 144 785 226 q 636 19 706 63 q 482 -25 567 -25 q 358 4 407 -25 q 275 86 308 33 q 279 24 279 60 l 279 -282 l 78 -282 m 425 131 q 537 188 494 131 q 579 339 579 246 q 538 490 579 433 q 425 547 496 547 q 313 491 356 547 q 269 339 269 435 q 313 188 269 246 q 425 131 356 131 z "},"q":{"ha":831,"x_min":44,"x_max":753,"o":"m 551 24 q 556 86 551 61 q 475 7 528 39 q 347 -25 422 -25 q 192 17 261 -25 q 84 142 124 60 q 44 340 44 225 q 86 534 44 451 q 198 660 128 617 q 351 704 268 704 q 474 674 422 704 q 556 592 525 643 q 551 656 551 619 l 551 681 l 753 681 l 753 -282 l 551 -282 l 551 24 m 407 131 q 519 187 476 131 q 563 339 563 243 q 521 492 563 436 q 408 547 479 547 q 294 492 338 547 q 250 339 250 436 q 293 185 250 239 q 407 131 336 131 z "},"r":{"ha":526,"x_min":78,"x_max":507,"o":"m 78 0 l 78 681 l 278 681 l 278 633 q 272 561 278 594 q 352 665 303 626 q 471 704 401 704 q 507 700 492 704 l 507 506 q 457 511 485 511 q 328 464 376 511 q 279 314 279 417 l 279 0 l 78 0 z "},"s":{"ha":707,"x_min":33,"x_max":663,"o":"m 360 -25 q 127 44 214 -25 q 33 232 40 114 l 236 232 q 271 149 239 179 q 360 118 303 118 q 436 139 407 118 q 465 193 465 160 q 443 236 465 221 q 372 261 421 251 l 276 281 q 57 492 57 325 q 94 600 57 551 q 197 676 131 649 q 349 704 263 704 q 572 640 489 704 q 658 468 654 575 l 458 468 q 424 535 454 510 q 347 561 394 561 q 278 545 306 561 q 251 499 251 529 q 273 458 251 474 q 349 433 294 443 l 440 414 q 663 204 663 371 q 625 85 663 138 q 519 4 588 33 q 360 -25 450 -25 z "},"t":{"ha":551,"x_min":11,"x_max":522,"o":"m 400 -14 q 158 229 158 -14 l 158 524 l 11 524 l 11 681 l 158 681 l 158 922 l 358 922 l 358 681 l 522 681 l 522 524 l 358 524 l 358 257 q 382 175 358 203 q 458 147 406 147 q 507 151 483 147 l 507 -1 q 400 -14 464 -14 z "},"u":{"ha":792,"x_min":72,"x_max":713,"o":"m 314 -25 q 140 47 208 -25 q 72 247 72 118 l 72 681 l 274 681 l 274 278 q 301 172 274 211 q 382 133 329 133 q 476 172 439 133 q 513 279 513 211 l 513 681 l 713 681 l 713 0 l 513 0 l 513 24 q 519 86 513 51 q 440 4 489 33 q 314 -25 390 -25 z "},"v":{"ha":743,"x_min":3,"x_max":735,"o":"m 257 0 l 3 681 l 219 681 l 349 278 q 375 183 358 250 q 399 278 383 226 l 528 681 l 735 681 l 493 0 l 257 0 z "},"w":{"ha":1143,"x_min":8,"x_max":1129,"o":"m 208 0 l 8 681 l 215 681 l 321 264 q 338 168 331 226 l 344 204 q 349 229 347 214 q 357 264 351 244 l 449 681 l 703 681 l 796 264 q 813 165 808 201 q 832 264 819 214 l 938 681 l 1129 681 l 936 0 l 693 0 l 593 417 q 578 514 582 481 q 560 417 575 485 l 463 0 l 208 0 z "},"x":{"ha":707,"x_min":-6,"x_max":704,"o":"m -6 0 l 239 349 l 14 681 l 239 681 l 319 550 q 358 474 346 499 q 397 549 367 494 l 481 681 l 697 681 l 468 349 l 704 0 l 479 0 l 389 149 l 350 221 q 311 149 336 190 l 214 0 l -6 0 z "},"y":{"ha":728,"x_min":3,"x_max":725,"o":"m 163 -282 l 267 4 l 3 681 l 231 681 l 353 289 q 375 193 368 236 q 387 249 379 219 q 397 289 394 278 l 514 681 l 725 681 l 378 -282 l 163 -282 z "},"z":{"ha":685,"x_min":42,"x_max":644,"o":"m 42 0 l 42 169 l 354 476 q 413 525 376 497 l 58 525 l 58 681 l 628 681 l 628 507 l 317 201 q 263 157 282 169 l 644 157 l 644 0 l 42 0 z "},"{":{"ha":493,"x_min":21,"x_max":453,"o":"m 364 -179 q 198 -119 258 -179 q 138 58 138 -60 l 138 215 q 111 301 138 271 q 21 342 85 331 l 21 494 q 111 535 85 506 q 138 621 138 564 l 138 778 q 198 953 138 893 q 364 1014 258 1014 l 453 1014 l 453 868 l 436 868 q 356 840 383 868 q 328 747 328 813 l 328 596 q 296 479 328 524 q 190 418 264 435 q 296 358 264 401 q 328 243 328 314 l 328 88 q 356 -6 328 22 q 438 -33 383 -33 l 453 -33 l 453 -179 l 364 -179 z "},"|":{"ha":383,"x_min":93,"x_max":290,"o":"m 290 -179 l 93 -179 l 93 1014 l 290 1014 l 290 -179 z "},"}":{"ha":493,"x_min":40,"x_max":472,"o":"m 129 1014 q 295 954 235 1014 q 356 776 356 894 l 356 619 q 382 534 356 564 q 472 493 408 504 l 472 340 q 382 300 408 329 q 356 214 356 271 l 356 57 q 295 -119 356 -60 q 129 -179 235 -179 l 40 -179 l 40 -33 l 57 -33 q 138 -6 110 -33 q 165 88 165 22 l 165 239 q 197 356 165 311 q 303 417 229 400 q 197 477 229 433 q 165 592 165 521 l 165 747 q 138 840 165 813 q 56 868 110 868 l 40 868 l 40 1014 l 129 1014 z "},"~":{"ha":792,"x_min":69,"x_max":728,"o":"m 69 301 q 128 477 69 422 q 275 532 186 532 q 404 503 329 532 q 494 479 467 479 q 533 493 521 479 q 546 533 544 507 l 728 533 q 676 363 728 419 q 535 307 624 307 q 394 335 475 307 q 356 348 386 338 q 306 358 325 358 q 267 344 279 358 q 251 301 254 329 l 69 301 z "}," ":{"ha":283,"x_min":0,"x_max":0,"o":""},"¡":{"ha":371,"x_min":67,"x_max":303,"o":"m 67 754 l 303 754 l 303 529 l 67 529 l 67 754 m 131 451 l 239 451 l 296 64 l 296 -218 l 74 -218 l 74 64 l 131 451 z "},"¢":{"ha":879,"x_min":46,"x_max":838,"o":"m 838 393 q 740 169 821 258 q 525 60 658 81 l 525 -79 l 368 -79 l 368 61 q 133 200 221 86 q 46 492 46 314 q 87 687 46 599 q 201 833 128 775 q 368 910 274 892 l 368 1053 l 525 1053 l 525 913 q 740 803 660 893 q 833 582 821 714 l 625 582 q 592 672 619 633 q 525 728 565 710 l 525 249 q 594 305 567 267 q 628 393 622 343 l 838 393 m 256 493 q 286 345 256 406 q 368 256 317 285 l 368 721 q 286 635 317 694 q 256 493 256 576 z "},"£":{"ha":919,"x_min":47,"x_max":871,"o":"m 60 0 l 60 174 l 189 174 l 189 376 l 47 376 l 47 546 l 189 546 l 189 665 q 283 908 189 819 q 540 997 376 997 q 778 917 693 997 q 868 674 863 836 l 658 674 q 624 790 656 754 q 538 825 593 825 q 407 665 407 825 l 407 546 l 696 546 l 696 376 l 407 376 l 407 174 l 871 174 l 871 0 l 60 0 z "},"¤":{"ha":910,"x_min":51,"x_max":860,"o":"m 806 494 q 750 281 806 371 l 860 169 l 751 60 l 638 174 q 454 129 560 129 q 271 174 351 129 l 158 60 l 51 169 l 160 279 q 103 494 103 371 q 160 711 103 619 l 51 819 l 158 931 l 272 817 q 454 861 350 861 q 638 817 560 861 l 753 931 l 860 819 l 750 710 q 806 494 806 619 m 454 294 q 571 349 528 294 q 614 494 614 403 q 570 641 614 586 q 454 696 526 696 q 340 641 383 696 q 297 494 297 586 q 340 349 297 403 q 454 294 383 294 z "},"¥":{"ha":917,"x_min":32,"x_max":886,"o":"m 886 972 l 643 532 l 819 532 l 819 388 l 563 388 l 563 311 l 819 311 l 819 167 l 563 167 l 563 0 l 354 0 l 354 167 l 99 167 l 99 311 l 354 311 l 354 388 l 99 388 l 99 532 l 275 532 l 32 972 l 283 972 l 419 675 q 463 563 428 656 q 508 675 488 629 l 646 972 l 886 972 z "},"¦":{"ha":383,"x_min":93,"x_max":290,"o":"m 290 533 l 93 533 l 93 1014 l 290 1014 l 290 533 m 290 -179 l 93 -179 l 93 301 l 290 301 l 290 -179 z "},"§":{"ha":785,"x_min":53,"x_max":736,"o":"m 607 207 q 689 38 689 139 q 610 -128 689 -62 q 385 -193 532 -193 q 165 -128 247 -193 q 74 44 83 -62 l 281 44 q 396 -44 294 -44 q 467 -26 442 -44 q 493 21 493 -8 q 474 67 493 49 q 401 110 456 86 l 224 189 q 97 277 140 226 q 53 399 53 328 q 88 515 53 464 q 182 601 122 565 q 99 772 99 667 q 132 885 99 835 q 231 967 165 936 q 390 997 297 997 q 600 933 522 997 q 685 761 678 869 l 479 761 q 447 828 474 807 q 381 850 421 850 q 317 833 340 850 q 294 788 294 815 q 315 742 294 761 q 385 700 335 722 l 558 622 q 693 531 650 582 q 736 404 736 479 q 701 292 736 343 q 607 207 665 242 m 253 442 q 273 385 253 408 q 339 339 293 361 l 478 276 q 536 369 536 314 q 517 424 536 401 q 457 465 499 446 l 308 533 q 253 442 253 494 z "},"¨":{"ha":610,"x_min":76,"x_max":556,"o":"m 272 775 l 76 775 l 76 965 l 272 965 l 272 775 m 556 775 l 361 775 l 361 965 l 556 965 l 556 775 z "},"©":{"ha":1235,"x_min":111,"x_max":1124,"o":"m 613 -25 q 363 44 478 -25 q 179 230 247 113 q 111 485 111 347 q 179 740 111 624 q 364 926 247 857 q 617 994 481 994 q 871 926 754 994 q 1056 740 988 857 q 1124 485 1124 624 q 1056 227 1124 344 q 870 42 988 110 q 613 -25 753 -25 m 622 100 q 806 152 721 100 q 940 292 890 204 q 989 486 989 381 q 939 681 989 593 q 803 821 889 769 q 617 872 718 872 q 431 821 515 872 q 296 681 346 769 q 246 486 246 593 q 296 290 246 379 q 432 151 346 201 q 622 100 518 100 m 624 197 q 428 274 500 197 q 357 482 357 351 q 429 694 357 615 q 622 772 501 772 q 796 713 729 772 q 868 551 863 653 l 724 551 q 693 625 721 599 q 625 651 665 651 q 537 605 569 651 q 504 483 504 558 q 536 365 504 411 q 622 319 568 319 q 691 347 664 319 q 724 422 718 375 l 872 422 q 795 256 861 315 q 624 197 729 197 z "},"ª":{"ha":567,"x_min":44,"x_max":499,"o":"m 213 479 q 92 521 139 479 q 44 635 44 563 q 94 740 44 704 q 219 786 143 776 l 304 796 q 340 806 329 799 q 350 829 350 814 q 333 862 350 850 q 289 874 317 874 q 242 860 261 874 q 221 822 222 847 l 60 822 q 126 942 67 896 q 282 989 186 989 q 444 936 390 989 q 499 782 499 883 l 499 496 l 353 496 l 353 511 q 357 553 353 528 q 213 479 310 479 m 258 592 q 323 616 296 592 q 350 681 350 640 l 350 719 q 304 704 338 708 l 267 700 q 199 640 199 689 q 215 605 199 618 q 258 592 231 592 z "},"«":{"ha":775,"x_min":51,"x_max":708,"o":"m 351 6 l 51 232 l 51 467 l 351 694 l 351 465 l 240 389 q 179 350 210 367 q 240 311 207 336 l 351 236 l 351 6 m 708 6 l 407 232 l 407 467 l 708 694 l 708 465 l 599 389 l 536 350 q 599 311 561 338 l 708 236 l 708 6 z "},"¬":{"ha":807,"x_min":67,"x_max":726,"o":"m 726 115 l 536 115 l 536 326 l 67 326 l 67 504 l 726 504 l 726 115 z "},"­":{"ha":508,"x_min":71,"x_max":438,"o":"m 438 242 l 71 242 l 71 439 l 438 439 l 438 242 z "},"®":{"ha":874,"x_min":56,"x_max":818,"o":"m 433 228 q 244 280 331 228 q 106 421 157 332 q 56 614 56 510 q 107 806 56 718 q 246 946 158 894 q 438 997 333 997 q 629 946 542 997 q 767 806 717 894 q 818 614 818 718 q 767 418 818 507 q 628 278 717 329 q 433 228 540 228 m 440 329 q 576 367 514 329 q 675 471 639 406 q 711 614 711 536 q 675 758 711 693 q 576 861 639 824 q 438 899 513 899 q 300 861 363 899 q 201 758 238 824 q 164 614 164 692 q 201 469 164 533 q 301 367 238 404 q 440 329 364 329 m 290 417 l 290 817 l 444 817 q 561 788 521 817 q 601 701 601 758 q 581 641 601 667 q 528 604 560 615 q 593 511 593 590 l 593 417 l 489 417 l 489 504 q 476 549 489 536 q 431 563 463 563 l 392 563 l 392 417 l 290 417 m 439 647 q 500 690 500 647 q 484 720 500 710 q 440 731 468 731 l 392 731 l 392 647 l 439 647 z "},"¯":{"ha":632,"x_min":76,"x_max":578,"o":"m 578 797 l 76 797 l 76 944 l 578 944 l 578 797 z "},"°":{"ha":578,"x_min":47,"x_max":531,"o":"m 288 508 q 166 540 221 508 q 79 625 111 571 q 47 747 47 679 q 79 867 47 814 q 167 952 111 921 q 288 983 222 983 q 410 952 354 983 q 498 867 465 921 q 531 747 531 814 q 498 625 531 679 q 410 540 465 571 q 288 508 354 508 m 288 647 q 356 676 329 647 q 383 747 383 704 q 356 817 383 789 q 288 844 329 844 q 220 817 247 844 q 193 747 193 789 q 220 676 193 704 q 288 647 247 647 z "},"±":{"ha":818,"x_min":86,"x_max":743,"o":"m 503 754 l 503 610 l 743 610 l 743 440 l 503 440 l 503 296 l 317 296 l 317 440 l 86 440 l 86 610 l 317 610 l 317 754 l 503 754 m 743 67 l 86 67 l 86 236 l 743 236 l 743 67 z "},"²":{"ha":565,"x_min":40,"x_max":519,"o":"m 40 474 q 79 644 42 576 q 193 758 117 711 l 290 819 q 347 870 331 846 q 363 931 363 894 q 342 983 363 964 q 290 1003 322 1003 q 228 976 250 1003 q 204 904 207 949 l 40 904 q 72 1016 43 964 q 156 1100 100 1068 q 292 1132 213 1132 q 462 1073 404 1132 q 519 931 519 1014 q 374 718 519 801 l 299 671 q 239 613 249 640 l 514 613 l 514 474 l 40 474 z "},"³":{"ha":589,"x_min":26,"x_max":539,"o":"m 282 456 q 98 517 169 456 q 26 690 26 579 q 26 694 26 692 l 182 694 q 210 614 183 642 q 282 586 236 586 q 354 606 326 586 q 382 665 382 625 q 282 742 382 742 l 236 742 l 236 865 l 292 865 q 347 881 326 865 q 368 929 368 897 q 347 983 368 964 q 288 1003 326 1003 q 222 978 243 1003 q 197 919 200 954 l 35 919 q 108 1074 38 1015 q 289 1132 178 1132 q 458 1078 392 1132 q 524 942 524 1025 q 494 855 524 892 q 414 801 465 818 q 506 747 474 786 q 539 651 539 708 q 509 553 539 599 q 422 482 479 508 q 282 456 364 456 z "},"´":{"ha":467,"x_min":76,"x_max":414,"o":"m 247 767 l 76 767 l 183 978 l 414 978 l 247 767 z "},"µ":{"ha":818,"x_min":89,"x_max":729,"o":"m 89 -282 l 89 681 l 290 681 l 290 278 q 318 172 290 211 q 400 133 346 133 q 493 173 457 133 q 529 279 529 213 l 529 681 l 729 681 l 729 0 l 529 0 l 529 24 q 533 86 529 57 q 365 -25 481 -25 q 286 -1 321 -25 q 290 -64 290 -19 l 290 -282 l 89 -282 z "},"¶":{"ha":821,"x_min":31,"x_max":711,"o":"m 308 471 q 106 538 182 471 q 31 719 31 606 q 108 903 31 833 q 317 972 185 972 l 711 972 l 711 -179 l 557 -179 l 557 822 l 464 822 l 464 -179 l 308 -179 l 308 471 z "},"·":{"ha":388,"x_min":71,"x_max":317,"o":"m 317 322 l 71 322 l 71 556 l 317 556 l 317 322 z "},"¸":{"ha":489,"x_min":76,"x_max":436,"o":"m 251 -310 q 76 -243 143 -310 l 143 -167 q 235 -206 185 -206 q 282 -194 264 -206 q 300 -165 300 -182 q 288 -142 300 -151 q 253 -133 275 -133 q 208 -144 229 -133 l 149 -86 l 249 44 l 349 11 l 290 -61 q 296 -61 293 -61 q 396 -92 357 -61 q 436 -174 435 -122 q 383 -273 436 -236 q 251 -310 329 -310 z "},"¹":{"ha":418,"x_min":29,"x_max":350,"o":"m 193 839 q 197 917 193 889 q 128 860 174 882 q 35 839 82 839 q 29 839 32 839 l 29 979 q 149 1023 99 988 q 208 1114 200 1058 l 350 1114 l 350 474 l 193 474 l 193 839 z "},"º":{"ha":575,"x_min":39,"x_max":538,"o":"m 288 479 q 106 551 172 479 q 39 735 39 624 q 106 918 39 847 q 288 989 172 989 q 471 918 404 989 q 538 735 538 847 q 470 551 538 624 q 288 479 403 479 m 288 606 q 353 640 331 606 q 375 735 375 675 q 352 830 375 794 q 288 865 329 865 q 223 830 246 865 q 200 735 200 794 q 223 640 200 675 q 288 606 246 606 z "},"»":{"ha":775,"x_min":65,"x_max":722,"o":"m 65 697 l 367 471 l 367 235 l 65 7 l 65 236 l 175 313 l 236 353 q 175 390 201 372 l 65 467 l 65 697 m 422 697 l 722 471 l 722 235 l 422 7 l 422 236 l 532 313 q 594 353 576 343 q 532 390 568 365 l 422 467 l 422 697 z "},"¼":{"ha":1242,"x_min":31,"x_max":1213,"o":"m 181 722 q 183 793 181 768 q 120 742 161 761 q 36 722 79 722 q 31 722 33 722 l 31 850 q 140 890 94 858 q 194 972 186 921 l 324 972 l 324 390 l 181 390 l 181 722 m 319 0 l 140 0 l 836 972 l 1015 972 l 319 0 m 1108 0 l 965 0 l 965 132 l 688 132 l 688 244 l 926 582 l 1108 582 l 1108 239 l 1213 239 l 1213 132 l 1108 132 l 1108 0 m 965 239 l 965 443 q 942 406 956 424 l 851 278 q 819 239 846 269 l 965 239 z "},"½":{"ha":1276,"x_min":31,"x_max":1231,"o":"m 181 722 q 183 793 181 768 q 120 742 161 761 q 36 722 79 722 q 31 722 33 722 l 31 850 q 140 890 94 858 q 194 972 186 921 l 324 972 l 324 390 l 181 390 l 181 722 m 319 0 l 140 0 l 836 972 l 1015 972 l 319 0 m 796 0 q 831 154 797 93 q 935 258 865 215 l 1022 315 q 1074 360 1060 338 q 1089 415 1089 383 q 1071 463 1089 444 q 1024 481 1053 481 q 967 456 986 481 q 944 392 947 432 l 794 392 q 858 538 797 478 q 1024 599 918 599 q 1178 544 1126 599 q 1231 415 1231 490 q 1099 222 1231 299 l 1031 179 q 975 126 985 151 l 1226 126 l 1226 0 l 796 0 z "},"¾":{"ha":1369,"x_min":35,"x_max":1338,"o":"m 267 375 q 100 431 165 375 q 35 589 35 488 q 35 593 35 590 l 176 593 q 201 519 178 544 q 267 494 225 494 q 333 512 307 494 q 358 565 358 529 q 267 635 358 635 l 226 635 l 226 747 l 275 747 q 326 763 307 747 q 346 806 346 778 q 326 855 346 838 q 271 872 307 872 q 212 850 232 872 q 190 797 192 828 l 42 797 q 108 938 44 885 q 274 990 172 990 q 426 942 367 990 q 486 818 486 893 q 460 738 486 771 q 386 690 433 706 q 470 642 440 676 q 500 554 500 607 q 439 426 500 478 q 267 375 378 375 m 446 0 l 267 0 l 963 972 l 1142 972 l 446 0 m 1233 0 l 1090 0 l 1090 132 l 813 132 l 813 244 l 1051 582 l 1233 582 l 1233 239 l 1338 239 l 1338 132 l 1233 132 l 1233 0 m 1090 239 l 1090 443 q 1067 406 1081 424 l 976 278 q 944 239 971 269 l 1090 239 z "},"¿":{"ha":739,"x_min":33,"x_max":713,"o":"m 267 731 l 504 731 l 504 506 l 267 506 l 267 731 m 488 426 q 461 273 488 329 q 367 168 435 217 l 315 131 q 247 15 247 81 q 277 -65 247 -36 q 360 -93 307 -93 q 460 -52 424 -93 q 496 67 496 -11 l 713 67 q 668 -110 713 -35 q 543 -227 624 -186 q 354 -268 463 -268 q 190 -235 263 -268 q 75 -139 117 -201 q 33 6 33 -76 q 68 136 33 76 q 157 238 103 196 l 214 281 q 269 344 254 313 q 285 426 285 375 l 488 426 z "},"À":{"ha":1017,"x_min":-7,"x_max":1024,"o":"m 521 1269 l 619 1058 l 444 1058 l 282 1269 l 521 1269 m 1024 0 l 785 0 l 700 242 l 310 242 l 224 0 l -7 0 l 378 972 l 639 972 l 1024 0 m 374 421 l 636 421 l 543 685 q 506 801 514 771 q 467 685 499 775 l 374 421 z "},"Á":{"ha":1017,"x_min":-7,"x_max":1024,"o":"m 522 1269 l 751 1269 l 585 1058 l 414 1058 l 522 1269 m 1024 0 l 785 0 l 700 242 l 310 242 l 224 0 l -7 0 l 378 972 l 639 972 l 1024 0 m 374 421 l 636 421 l 543 685 q 506 801 514 771 q 467 685 499 775 l 374 421 z "},"Â":{"ha":1017,"x_min":-7,"x_max":1024,"o":"m 439 1058 l 236 1058 l 388 1269 l 629 1269 l 778 1058 l 578 1058 l 542 1115 q 510 1176 517 1157 q 476 1115 503 1158 l 439 1058 m 1024 0 l 785 0 l 700 242 l 310 242 l 224 0 l -7 0 l 378 972 l 639 972 l 1024 0 m 374 421 l 636 421 l 543 685 q 506 801 514 771 q 467 685 499 775 l 374 421 z "},"Ã":{"ha":1017,"x_min":-7,"x_max":1024,"o":"m 433 1118 q 393 1074 393 1118 l 239 1074 q 281 1217 239 1168 q 401 1267 324 1267 q 458 1260 432 1267 q 521 1239 485 1253 q 556 1226 539 1232 q 586 1221 574 1221 q 616 1232 607 1221 q 626 1268 625 1243 l 781 1268 q 621 1074 781 1074 q 563 1081 590 1074 q 503 1100 536 1088 q 433 1118 454 1118 m 1024 0 l 785 0 l 700 242 l 310 242 l 224 0 l -7 0 l 378 972 l 639 972 l 1024 0 m 374 421 l 636 421 l 543 685 q 506 801 514 771 q 467 685 499 775 l 374 421 z "},"Ä":{"ha":1017,"x_min":-7,"x_max":1024,"o":"m 269 1257 l 465 1257 l 465 1067 l 269 1067 l 269 1257 m 554 1257 l 749 1257 l 749 1067 l 554 1067 l 554 1257 m 1024 0 l 785 0 l 700 242 l 310 242 l 224 0 l -7 0 l 378 972 l 639 972 l 1024 0 m 374 421 l 636 421 l 543 685 q 506 801 514 771 q 467 685 499 775 l 374 421 z "},"Å":{"ha":1017,"x_min":-7,"x_max":1024,"o":"m 510 1022 q 403 1060 444 1022 q 363 1160 363 1099 q 403 1258 363 1221 q 510 1296 444 1296 q 617 1258 576 1296 q 658 1160 658 1221 q 617 1060 658 1099 q 510 1022 576 1022 m 510 1203 q 481 1191 492 1203 q 471 1160 471 1179 q 481 1128 471 1140 q 510 1117 492 1117 q 539 1128 528 1117 q 550 1160 550 1140 q 539 1191 550 1179 q 510 1203 528 1203 m 1024 0 l 785 0 l 700 242 l 310 242 l 224 0 l -7 0 l 378 972 l 639 972 l 1024 0 m 374 421 l 636 421 l 543 685 q 506 801 514 771 q 467 685 499 775 l 374 421 z "},"Æ":{"ha":1326,"x_min":-14,"x_max":1271,"o":"m 818 407 l 818 183 l 1271 183 l 1271 0 l 601 0 l 601 240 l 338 240 l 225 0 l -14 0 l 475 972 l 1249 972 l 1249 789 l 818 789 l 818 588 l 1228 588 l 1228 407 l 818 407 m 422 419 l 601 419 l 601 814 q 546 682 579 750 l 422 419 z "},"Ç":{"ha":1025,"x_min":49,"x_max":990,"o":"m 990 368 q 869 99 975 204 q 588 -22 764 -7 l 556 -61 q 561 -61 558 -61 q 663 -92 624 -61 q 701 -175 701 -124 q 648 -274 701 -237 q 517 -310 594 -310 q 342 -243 408 -310 l 410 -167 q 500 -206 449 -206 q 547 -194 529 -206 q 565 -165 565 -182 q 553 -142 565 -151 q 518 -133 540 -133 q 474 -144 494 -133 l 414 -86 l 463 -22 q 159 132 269 -3 q 49 492 49 267 q 113 760 49 646 q 290 936 178 875 q 542 997 401 997 q 760 953 664 997 q 916 823 857 908 q 986 618 975 738 l 763 618 q 693 763 750 710 q 540 817 636 817 q 402 778 463 817 q 308 667 342 740 q 274 492 274 593 q 307 312 274 388 q 399 196 340 236 q 536 156 458 156 q 697 214 633 156 q 772 368 760 272 l 990 368 z "},"È":{"ha":871,"x_min":99,"x_max":815,"o":"m 563 1058 l 388 1058 l 225 1269 l 464 1269 l 563 1058 m 815 0 l 99 0 l 99 972 l 793 972 l 793 789 l 315 789 l 315 588 l 772 588 l 772 407 l 315 407 l 315 183 l 815 183 l 815 0 z "},"É":{"ha":871,"x_min":99,"x_max":815,"o":"m 528 1058 l 357 1058 l 465 1269 l 694 1269 l 528 1058 m 815 0 l 99 0 l 99 972 l 793 972 l 793 789 l 315 789 l 315 588 l 772 588 l 772 407 l 315 407 l 315 183 l 815 183 l 815 0 z "},"Ê":{"ha":871,"x_min":99,"x_max":815,"o":"m 181 1058 l 332 1269 l 574 1269 l 722 1058 l 522 1058 l 486 1115 q 454 1176 461 1157 q 421 1115 447 1158 l 383 1058 l 181 1058 m 815 0 l 99 0 l 99 972 l 793 972 l 793 789 l 315 789 l 315 588 l 772 588 l 772 407 l 315 407 l 315 183 l 815 183 l 815 0 z "},"Ë":{"ha":871,"x_min":99,"x_max":815,"o":"m 408 1067 l 213 1067 l 213 1257 l 408 1257 l 408 1067 m 692 1067 l 497 1067 l 497 1257 l 692 1257 l 692 1067 m 815 0 l 99 0 l 99 972 l 793 972 l 793 789 l 315 789 l 315 588 l 772 588 l 772 407 l 315 407 l 315 183 l 815 183 l 815 0 z "},"Ì":{"ha":413,"x_min":-22,"x_max":315,"o":"m 217 1269 l 315 1058 l 140 1058 l -22 1269 l 217 1269 m 99 972 l 315 972 l 315 0 l 99 0 l 99 972 z "},"Í":{"ha":413,"x_min":99,"x_max":449,"o":"m 219 1269 l 449 1269 l 282 1058 l 111 1058 l 219 1269 m 99 972 l 315 972 l 315 0 l 99 0 l 99 972 z "},"Î":{"ha":413,"x_min":-67,"x_max":475,"o":"m 136 1058 l -67 1058 l 85 1269 l 326 1269 l 475 1058 l 275 1058 l 239 1115 q 207 1176 214 1157 q 174 1115 200 1158 l 136 1058 m 99 972 l 315 972 l 315 0 l 99 0 l 99 972 z "},"Ï":{"ha":413,"x_min":-35,"x_max":444,"o":"m -35 1257 l 161 1257 l 161 1067 l -35 1067 l -35 1257 m 250 1067 l 250 1257 l 444 1257 l 444 1067 l 250 1067 m 99 972 l 315 972 l 315 0 l 99 0 l 99 972 z "},"Ð":{"ha":1051,"x_min":22,"x_max":1003,"o":"m 479 972 q 867 848 732 972 q 1003 485 1003 724 q 943 229 1003 339 q 766 60 883 119 q 481 0 649 0 l 119 0 l 119 417 l 22 417 l 22 565 l 119 565 l 119 972 l 479 972 m 464 183 q 695 258 611 183 q 779 485 779 332 q 701 710 779 632 q 467 789 622 789 l 336 789 l 336 565 l 485 565 l 485 417 l 336 417 l 336 183 l 464 183 z "},"Ñ":{"ha":1086,"x_min":99,"x_max":989,"o":"m 654 1074 q 597 1081 624 1074 q 536 1100 569 1088 q 467 1118 488 1118 q 426 1074 426 1118 l 272 1074 q 315 1217 272 1168 q 435 1267 357 1267 q 492 1260 465 1267 q 554 1239 518 1253 q 590 1226 572 1232 q 619 1221 607 1221 q 649 1232 640 1221 q 660 1268 658 1243 l 814 1268 q 654 1074 814 1074 m 99 0 l 99 972 l 414 972 l 782 290 q 775 435 775 346 l 775 972 l 989 972 l 989 0 l 714 0 l 304 758 q 311 622 311 694 l 311 0 l 99 0 z "},"Ò":{"ha":1075,"x_min":49,"x_max":1025,"o":"m 643 1058 l 468 1058 l 306 1269 l 544 1269 l 643 1058 m 535 -25 q 284 35 394 -25 q 111 211 174 96 q 49 486 49 326 q 111 758 49 642 q 284 935 174 874 q 535 997 394 997 q 785 934 674 997 q 961 755 897 871 q 1025 486 1025 639 q 961 213 1025 328 q 786 36 897 97 q 535 -25 675 -25 m 535 157 q 728 243 654 157 q 801 486 801 329 q 767 662 801 588 q 673 776 733 736 q 535 815 613 815 q 344 728 415 815 q 274 486 274 640 q 344 244 274 331 q 535 157 415 157 z "},"Ó":{"ha":1075,"x_min":49,"x_max":1025,"o":"m 610 1058 l 439 1058 l 547 1269 l 776 1269 l 610 1058 m 535 -25 q 284 35 394 -25 q 111 211 174 96 q 49 486 49 326 q 111 758 49 642 q 284 935 174 874 q 535 997 394 997 q 785 934 674 997 q 961 755 897 871 q 1025 486 1025 639 q 961 213 1025 328 q 786 36 897 97 q 535 -25 675 -25 m 535 157 q 728 243 654 157 q 801 486 801 329 q 767 662 801 588 q 673 776 733 736 q 535 815 613 815 q 344 728 415 815 q 274 486 274 640 q 344 244 274 331 q 535 157 415 157 z "},"Ô":{"ha":1075,"x_min":49,"x_max":1025,"o":"m 261 1058 l 413 1269 l 654 1269 l 803 1058 l 603 1058 l 567 1115 q 535 1176 542 1157 q 501 1115 528 1158 l 464 1058 l 261 1058 m 535 -25 q 284 35 394 -25 q 111 211 174 96 q 49 486 49 326 q 111 758 49 642 q 284 935 174 874 q 535 997 394 997 q 785 934 674 997 q 961 755 897 871 q 1025 486 1025 639 q 961 213 1025 328 q 786 36 897 97 q 535 -25 675 -25 m 535 157 q 728 243 654 157 q 801 486 801 329 q 767 662 801 588 q 673 776 733 736 q 535 815 613 815 q 344 728 415 815 q 274 486 274 640 q 344 244 274 331 q 535 157 415 157 z "},"Õ":{"ha":1075,"x_min":49,"x_max":1025,"o":"m 646 1074 q 588 1081 615 1074 q 528 1100 561 1088 q 458 1118 479 1118 q 418 1074 418 1118 l 264 1074 q 306 1217 264 1168 q 426 1267 349 1267 q 483 1260 457 1267 q 546 1239 510 1253 q 581 1226 564 1232 q 611 1221 599 1221 q 641 1232 632 1221 q 651 1268 650 1243 l 806 1268 q 646 1074 806 1074 m 535 -25 q 284 35 394 -25 q 111 211 174 96 q 49 486 49 326 q 111 758 49 642 q 284 935 174 874 q 535 997 394 997 q 785 934 674 997 q 961 755 897 871 q 1025 486 1025 639 q 961 213 1025 328 q 786 36 897 97 q 535 -25 675 -25 m 535 157 q 728 243 654 157 q 801 486 801 329 q 767 662 801 588 q 673 776 733 736 q 535 815 613 815 q 344 728 415 815 q 274 486 274 640 q 344 244 274 331 q 535 157 415 157 z "},"Ö":{"ha":1075,"x_min":49,"x_max":1025,"o":"m 489 1067 l 293 1067 l 293 1257 l 489 1257 l 489 1067 m 772 1067 l 578 1067 l 578 1257 l 772 1257 l 772 1067 m 535 -25 q 284 35 394 -25 q 111 211 174 96 q 49 486 49 326 q 111 758 49 642 q 284 935 174 874 q 535 997 394 997 q 785 934 674 997 q 961 755 897 871 q 1025 486 1025 639 q 961 213 1025 328 q 786 36 897 97 q 535 -25 675 -25 m 535 157 q 728 243 654 157 q 801 486 801 329 q 767 662 801 588 q 673 776 733 736 q 535 815 613 815 q 344 728 415 815 q 274 486 274 640 q 344 244 274 331 q 535 157 415 157 z "},"×":{"ha":785,"x_min":44,"x_max":740,"o":"m 392 289 l 174 67 l 44 197 l 265 415 l 51 628 l 183 756 l 392 543 l 603 756 l 733 628 l 518 417 l 740 197 l 610 67 l 392 289 z "},"Ø":{"ha":1075,"x_min":49,"x_max":1025,"o":"m 897 844 q 992 687 958 778 q 1025 486 1025 596 q 961 213 1025 328 q 786 36 897 97 q 535 -25 675 -25 q 294 29 399 -25 l 222 -68 l 99 18 l 175 121 q 81 280 114 188 q 49 486 49 372 q 111 758 49 642 q 284 935 174 874 q 535 997 394 997 q 781 938 669 997 l 857 1040 l 978 953 l 897 844 m 274 486 q 308 301 274 379 l 665 781 q 535 815 610 815 q 344 728 415 815 q 274 486 274 640 m 535 157 q 728 243 654 157 q 801 486 801 329 q 765 667 801 590 l 411 188 q 535 157 464 157 z "},"Ù":{"ha":993,"x_min":89,"x_max":906,"o":"m 607 1058 l 432 1058 l 269 1269 l 508 1269 l 607 1058 m 496 -25 q 195 81 301 -25 q 89 381 89 186 l 89 972 l 306 972 l 306 413 q 353 222 306 285 q 497 158 400 158 q 689 413 689 158 l 689 972 l 906 972 l 906 381 q 798 81 906 188 q 496 -25 690 -25 z "},"Ú":{"ha":993,"x_min":89,"x_max":906,"o":"m 572 1058 l 401 1058 l 510 1269 l 739 1269 l 572 1058 m 496 -25 q 195 81 301 -25 q 89 381 89 186 l 89 972 l 306 972 l 306 413 q 353 222 306 285 q 497 158 400 158 q 689 413 689 158 l 689 972 l 906 972 l 906 381 q 798 81 906 188 q 496 -25 690 -25 z "},"Û":{"ha":993,"x_min":89,"x_max":906,"o":"m 224 1058 l 375 1269 l 617 1269 l 765 1058 l 565 1058 l 529 1115 q 497 1176 504 1157 q 464 1115 490 1158 l 426 1058 l 224 1058 m 496 -25 q 195 81 301 -25 q 89 381 89 186 l 89 972 l 306 972 l 306 413 q 353 222 306 285 q 497 158 400 158 q 689 413 689 158 l 689 972 l 906 972 l 906 381 q 798 81 906 188 q 496 -25 690 -25 z "},"Ü":{"ha":993,"x_min":89,"x_max":906,"o":"m 453 1067 l 257 1067 l 257 1257 l 453 1257 l 453 1067 m 736 1067 l 542 1067 l 542 1257 l 736 1257 l 736 1067 m 496 -25 q 195 81 301 -25 q 89 381 89 186 l 89 972 l 306 972 l 306 413 q 353 222 306 285 q 497 158 400 158 q 689 413 689 158 l 689 972 l 906 972 l 906 381 q 798 81 906 188 q 496 -25 690 -25 z "},"Ý":{"ha":951,"x_min":-6,"x_max":957,"o":"m 557 1058 l 386 1058 l 494 1269 l 724 1269 l 557 1058 m 367 0 l 367 386 l -6 972 l 254 972 l 426 668 q 479 567 460 611 q 532 668 508 628 l 707 972 l 957 972 l 585 388 l 585 0 l 367 0 z "},"Þ":{"ha":907,"x_min":99,"x_max":867,"o":"m 99 0 l 99 972 l 315 972 l 315 808 l 503 808 q 767 735 667 808 q 867 508 867 661 q 765 281 867 353 q 500 208 664 208 l 315 208 l 315 0 l 99 0 m 496 388 q 608 419 572 388 q 644 510 644 451 q 497 628 644 628 l 315 628 l 315 388 l 496 388 z "},"ß":{"ha":831,"x_min":78,"x_max":788,"o":"m 469 -18 q 410 -14 440 -18 q 361 -4 379 -10 l 361 151 q 428 144 392 144 q 542 179 500 144 q 583 278 583 214 q 540 379 583 343 q 414 415 496 415 l 361 415 l 361 571 l 410 571 q 524 610 481 571 q 568 713 568 649 q 533 804 568 768 q 435 840 497 840 q 319 791 360 840 q 278 657 278 742 l 278 0 l 78 0 l 78 650 q 172 902 78 807 q 446 997 267 997 q 618 963 544 997 q 731 869 692 929 q 769 731 769 808 q 718 582 769 643 q 592 500 667 521 q 733 415 679 478 q 788 263 788 353 q 703 56 788 131 q 469 -18 618 -18 z "},"à":{"ha":750,"x_min":46,"x_max":679,"o":"m 486 767 l 311 767 l 149 978 l 388 978 l 486 767 m 281 -25 q 165 1 219 -25 q 78 76 111 26 q 46 192 46 125 q 118 349 46 297 q 314 415 190 400 l 411 426 q 467 445 450 432 q 483 482 483 458 q 457 538 483 515 q 385 560 431 560 q 302 533 333 560 q 265 460 271 507 l 61 460 q 107 586 67 531 q 217 673 147 642 q 378 704 288 704 q 606 627 533 704 q 679 401 679 550 l 679 0 l 493 0 l 493 25 q 499 88 493 60 q 416 5 471 35 q 281 -25 361 -25 m 343 118 q 447 158 406 118 q 488 263 488 199 l 488 326 q 411 299 471 311 l 364 290 q 278 259 308 281 q 249 201 249 238 q 275 140 249 163 q 343 118 301 118 z "},"á":{"ha":750,"x_min":46,"x_max":679,"o":"m 451 767 l 281 767 l 389 978 l 618 978 l 451 767 m 281 -25 q 165 1 219 -25 q 78 76 111 26 q 46 192 46 125 q 118 349 46 297 q 314 415 190 400 l 411 426 q 467 445 450 432 q 483 482 483 458 q 457 538 483 515 q 385 560 431 560 q 302 533 333 560 q 265 460 271 507 l 61 460 q 107 586 67 531 q 217 673 147 642 q 378 704 288 704 q 606 627 533 704 q 679 401 679 550 l 679 0 l 493 0 l 493 25 q 499 88 493 60 q 416 5 471 35 q 281 -25 361 -25 m 343 118 q 447 158 406 118 q 488 263 488 199 l 488 326 q 411 299 471 311 l 364 290 q 278 259 308 281 q 249 201 249 238 q 275 140 249 163 q 343 118 301 118 z "},"â":{"ha":750,"x_min":46,"x_max":679,"o":"m 104 767 l 256 978 l 497 978 l 646 767 l 446 767 l 410 824 q 378 885 385 865 q 344 824 371 867 l 307 767 l 104 767 m 281 -25 q 165 1 219 -25 q 78 76 111 26 q 46 192 46 125 q 118 349 46 297 q 314 415 190 400 l 411 426 q 467 445 450 432 q 483 482 483 458 q 457 538 483 515 q 385 560 431 560 q 302 533 333 560 q 265 460 271 507 l 61 460 q 107 586 67 531 q 217 673 147 642 q 378 704 288 704 q 606 627 533 704 q 679 401 679 550 l 679 0 l 493 0 l 493 25 q 499 88 493 60 q 416 5 471 35 q 281 -25 361 -25 m 343 118 q 447 158 406 118 q 488 263 488 199 l 488 326 q 411 299 471 311 l 364 290 q 278 259 308 281 q 249 201 249 238 q 275 140 249 163 q 343 118 301 118 z "},"ã":{"ha":750,"x_min":46,"x_max":679,"o":"m 488 782 q 430 789 457 782 q 369 808 403 796 q 300 826 321 826 q 260 782 260 826 l 106 782 q 148 926 106 876 q 268 975 190 975 q 325 968 299 975 q 388 947 351 961 q 423 935 406 940 q 453 929 440 929 q 483 940 474 929 q 493 976 492 951 l 647 976 q 488 782 647 782 m 281 -25 q 165 1 219 -25 q 78 76 111 26 q 46 192 46 125 q 118 349 46 297 q 314 415 190 400 l 411 426 q 467 445 450 432 q 483 482 483 458 q 457 538 483 515 q 385 560 431 560 q 302 533 333 560 q 265 460 271 507 l 61 460 q 107 586 67 531 q 217 673 147 642 q 378 704 288 704 q 606 627 533 704 q 679 401 679 550 l 679 0 l 493 0 l 493 25 q 499 88 493 60 q 416 5 471 35 q 281 -25 361 -25 m 343 118 q 447 158 406 118 q 488 263 488 199 l 488 326 q 411 299 471 311 l 364 290 q 278 259 308 281 q 249 201 249 238 q 275 140 249 163 q 343 118 301 118 z "},"ä":{"ha":750,"x_min":46,"x_max":679,"o":"m 332 775 l 136 775 l 136 965 l 332 965 l 332 775 m 615 775 l 421 775 l 421 965 l 615 965 l 615 775 m 281 -25 q 165 1 219 -25 q 78 76 111 26 q 46 192 46 125 q 118 349 46 297 q 314 415 190 400 l 411 426 q 467 445 450 432 q 483 482 483 458 q 457 538 483 515 q 385 560 431 560 q 302 533 333 560 q 265 460 271 507 l 61 460 q 107 586 67 531 q 217 673 147 642 q 378 704 288 704 q 606 627 533 704 q 679 401 679 550 l 679 0 l 493 0 l 493 25 q 499 88 493 60 q 416 5 471 35 q 281 -25 361 -25 m 343 118 q 447 158 406 118 q 488 263 488 199 l 488 326 q 411 299 471 311 l 364 290 q 278 259 308 281 q 249 201 249 238 q 275 140 249 163 q 343 118 301 118 z "},"å":{"ha":750,"x_min":46,"x_max":679,"o":"m 376 731 q 270 769 311 731 q 229 868 229 807 q 270 967 229 929 q 376 1004 311 1004 q 484 967 443 1004 q 525 868 525 929 q 484 769 525 807 q 376 731 443 731 m 376 825 q 406 837 394 825 q 417 868 417 849 q 406 899 417 888 q 376 911 394 911 q 348 899 358 911 q 338 868 338 888 q 348 837 338 849 q 376 825 358 825 m 281 -25 q 165 1 219 -25 q 78 76 111 26 q 46 192 46 125 q 118 349 46 297 q 314 415 190 400 l 411 426 q 467 445 450 432 q 483 482 483 458 q 457 538 483 515 q 385 560 431 560 q 302 533 333 560 q 265 460 271 507 l 61 460 q 107 586 67 531 q 217 673 147 642 q 378 704 288 704 q 606 627 533 704 q 679 401 679 550 l 679 0 l 493 0 l 493 25 q 499 88 493 60 q 416 5 471 35 q 281 -25 361 -25 m 343 118 q 447 158 406 118 q 488 263 488 199 l 488 326 q 411 299 471 311 l 364 290 q 278 259 308 281 q 249 201 249 238 q 275 140 249 163 q 343 118 301 118 z "},"æ":{"ha":1219,"x_min":46,"x_max":1175,"o":"m 301 -25 q 117 33 189 -25 q 46 193 46 92 q 120 349 46 300 q 319 415 194 399 l 417 428 q 483 481 483 436 q 457 537 483 514 q 383 560 431 560 q 301 533 332 560 q 265 460 269 506 l 61 460 q 156 638 71 571 q 374 704 240 704 q 604 603 526 704 q 708 678 647 651 q 840 704 769 704 q 1019 658 943 704 q 1135 529 1094 613 q 1175 333 1175 446 l 1175 293 l 690 293 q 734 175 692 222 q 840 128 776 128 q 925 153 890 128 q 968 225 960 179 l 1171 225 q 1120 97 1163 154 q 1006 8 1078 40 q 842 -25 933 -25 q 682 11 751 -25 q 571 115 613 47 q 458 10 531 44 q 301 -25 386 -25 m 969 425 q 930 522 967 485 q 835 560 893 560 q 736 522 776 560 q 689 425 696 483 l 969 425 m 342 118 q 445 158 404 118 q 486 260 486 197 l 486 326 q 424 301 468 308 l 368 292 q 278 261 308 281 q 249 199 249 242 q 275 140 249 163 q 342 118 301 118 z "},"ç":{"ha":778,"x_min":43,"x_max":743,"o":"m 743 269 q 651 67 726 143 q 443 -22 575 -10 l 413 -61 q 418 -61 415 -61 q 519 -92 481 -61 q 558 -175 558 -124 q 505 -274 558 -237 q 374 -310 451 -310 q 199 -243 265 -310 l 267 -167 q 357 -206 306 -206 q 404 -194 386 -206 q 422 -165 422 -182 q 410 -142 422 -151 q 375 -133 397 -133 q 331 -144 351 -133 l 271 -86 l 322 -19 q 117 96 192 1 q 43 340 43 190 q 91 535 43 453 q 221 660 139 617 q 404 704 303 704 q 640 624 554 704 q 739 414 726 543 l 538 414 q 499 508 533 471 q 406 546 465 546 q 292 492 338 546 q 247 340 247 438 q 290 189 247 247 q 401 131 332 131 q 501 169 465 131 q 542 269 536 208 l 743 269 z "},"è":{"ha":776,"x_min":43,"x_max":731,"o":"m 501 767 l 326 767 l 164 978 l 403 978 l 501 767 m 397 -25 q 213 18 293 -25 q 88 144 133 61 q 43 342 43 226 q 88 531 43 449 q 212 659 132 614 q 393 704 292 704 q 641 603 551 704 q 731 332 731 503 l 731 293 l 247 293 q 291 174 249 221 q 397 128 333 128 q 482 153 447 128 q 524 225 517 179 l 726 225 q 677 97 719 154 q 563 8 635 40 q 397 -25 490 -25 m 525 425 q 487 522 524 485 q 392 560 450 560 q 292 522 332 560 q 246 425 253 485 l 525 425 z "},"é":{"ha":776,"x_min":43,"x_max":731,"o":"m 467 767 l 296 767 l 404 978 l 633 978 l 467 767 m 397 -25 q 213 18 293 -25 q 88 144 133 61 q 43 342 43 226 q 88 531 43 449 q 212 659 132 614 q 393 704 292 704 q 641 603 551 704 q 731 332 731 503 l 731 293 l 247 293 q 291 174 249 221 q 397 128 333 128 q 482 153 447 128 q 524 225 517 179 l 726 225 q 677 97 719 154 q 563 8 635 40 q 397 -25 490 -25 m 525 425 q 487 522 524 485 q 392 560 450 560 q 292 522 332 560 q 246 425 253 485 l 525 425 z "},"ê":{"ha":776,"x_min":43,"x_max":731,"o":"m 118 767 l 269 978 l 511 978 l 660 767 l 460 767 l 424 824 q 392 885 399 865 q 358 824 385 867 l 321 767 l 118 767 m 397 -25 q 213 18 293 -25 q 88 144 133 61 q 43 342 43 226 q 88 531 43 449 q 212 659 132 614 q 393 704 292 704 q 641 603 551 704 q 731 332 731 503 l 731 293 l 247 293 q 291 174 249 221 q 397 128 333 128 q 482 153 447 128 q 524 225 517 179 l 726 225 q 677 97 719 154 q 563 8 635 40 q 397 -25 490 -25 m 525 425 q 487 522 524 485 q 392 560 450 560 q 292 522 332 560 q 246 425 253 485 l 525 425 z "},"ë":{"ha":776,"x_min":43,"x_max":731,"o":"m 347 775 l 151 775 l 151 965 l 347 965 l 347 775 m 631 775 l 436 775 l 436 965 l 631 965 l 631 775 m 397 -25 q 213 18 293 -25 q 88 144 133 61 q 43 342 43 226 q 88 531 43 449 q 212 659 132 614 q 393 704 292 704 q 641 603 551 704 q 731 332 731 503 l 731 293 l 247 293 q 291 174 249 221 q 397 128 333 128 q 482 153 447 128 q 524 225 517 179 l 726 225 q 677 97 719 154 q 563 8 635 40 q 397 -25 490 -25 m 525 425 q 487 522 524 485 q 392 560 450 560 q 292 522 332 560 q 246 425 253 485 l 525 425 z "},"ì":{"ha":358,"x_min":-49,"x_max":289,"o":"m 190 978 l 289 767 l 114 767 l -49 978 l 190 978 m 78 681 l 279 681 l 279 0 l 78 0 l 78 681 z "},"í":{"ha":358,"x_min":78,"x_max":421,"o":"m 192 978 l 421 978 l 254 767 l 83 767 l 192 978 m 78 681 l 279 681 l 279 0 l 78 0 l 78 681 z "},"î":{"ha":358,"x_min":-94,"x_max":447,"o":"m 108 767 l -94 767 l 57 978 l 299 978 l 447 767 l 247 767 l 211 824 q 179 885 186 865 q 146 824 172 867 l 108 767 m 78 681 l 279 681 l 279 0 l 78 0 l 78 681 z "},"ï":{"ha":358,"x_min":-61,"x_max":418,"o":"m -61 965 l 135 965 l 135 775 l -61 775 l -61 965 m 224 775 l 224 965 l 418 965 l 418 775 l 224 775 m 78 681 l 279 681 l 279 0 l 78 0 l 78 681 z "},"ð":{"ha":807,"x_min":43,"x_max":758,"o":"m 613 815 q 722 607 686 722 q 758 367 758 492 q 712 157 758 246 q 583 22 665 68 q 397 -25 501 -25 q 213 18 293 -25 q 88 143 132 61 q 43 336 43 225 q 85 523 43 442 q 198 648 126 604 q 357 692 269 692 q 551 603 474 692 q 501 683 546 613 q 436 757 472 724 l 264 700 l 231 804 l 328 836 q 214 894 286 863 l 360 1006 q 526 903 454 965 l 676 953 l 708 847 l 613 815 m 400 131 q 513 185 471 131 q 554 338 554 240 q 512 491 554 436 q 400 546 469 546 q 289 491 331 546 q 247 338 247 436 q 288 185 247 240 q 400 131 329 131 z "},"ñ":{"ha":793,"x_min":78,"x_max":721,"o":"m 518 782 q 460 789 488 782 q 400 808 433 796 q 331 826 351 826 q 290 782 290 826 l 136 782 q 178 926 136 876 q 299 975 221 975 q 356 968 329 975 q 418 947 382 961 q 453 935 436 940 q 483 929 471 929 q 513 940 504 929 q 524 976 522 951 l 678 976 q 518 782 678 782 m 78 0 l 78 681 l 279 681 l 279 654 q 274 592 279 625 q 354 673 303 642 q 481 704 406 704 q 658 630 594 704 q 721 431 721 556 l 721 0 l 519 0 l 519 401 q 490 508 519 469 q 407 546 460 546 q 315 504 351 546 q 279 399 279 463 l 279 0 l 78 0 z "},"ò":{"ha":801,"x_min":43,"x_max":758,"o":"m 510 767 l 335 767 l 172 978 l 411 978 l 510 767 m 400 -25 q 214 18 294 -25 q 88 143 133 61 q 43 338 43 225 q 88 532 43 449 q 215 660 133 615 q 400 704 296 704 q 585 660 504 704 q 713 532 667 615 q 758 338 758 449 q 713 143 758 225 q 587 18 668 61 q 400 -25 506 -25 m 400 131 q 513 185 471 131 q 554 338 554 240 q 512 491 554 436 q 400 546 469 546 q 289 491 331 546 q 247 338 247 436 q 288 185 247 240 q 400 131 329 131 z "},"ó":{"ha":801,"x_min":43,"x_max":758,"o":"m 476 767 l 306 767 l 414 978 l 643 978 l 476 767 m 400 -25 q 214 18 294 -25 q 88 143 133 61 q 43 338 43 225 q 88 532 43 449 q 215 660 133 615 q 400 704 296 704 q 585 660 504 704 q 713 532 667 615 q 758 338 758 449 q 713 143 758 225 q 587 18 668 61 q 400 -25 506 -25 m 400 131 q 513 185 471 131 q 554 338 554 240 q 512 491 554 436 q 400 546 469 546 q 289 491 331 546 q 247 338 247 436 q 288 185 247 240 q 400 131 329 131 z "},"ô":{"ha":801,"x_min":43,"x_max":758,"o":"m 128 767 l 279 978 l 521 978 l 669 767 l 469 767 l 433 824 q 401 885 408 865 q 368 824 394 867 l 331 767 l 128 767 m 400 -25 q 214 18 294 -25 q 88 143 133 61 q 43 338 43 225 q 88 532 43 449 q 215 660 133 615 q 400 704 296 704 q 585 660 504 704 q 713 532 667 615 q 758 338 758 449 q 713 143 758 225 q 587 18 668 61 q 400 -25 506 -25 m 400 131 q 513 185 471 131 q 554 338 554 240 q 512 491 554 436 q 400 546 469 546 q 289 491 331 546 q 247 338 247 436 q 288 185 247 240 q 400 131 329 131 z "},"õ":{"ha":801,"x_min":43,"x_max":758,"o":"m 511 782 q 453 789 481 782 q 393 808 426 796 q 324 826 344 826 q 283 782 283 826 l 129 782 q 172 926 129 876 q 292 975 214 975 q 349 968 322 975 q 411 947 375 961 q 447 935 429 940 q 476 929 464 929 q 506 940 497 929 q 517 976 515 951 l 671 976 q 511 782 671 782 m 400 -25 q 214 18 294 -25 q 88 143 133 61 q 43 338 43 225 q 88 532 43 449 q 215 660 133 615 q 400 704 296 704 q 585 660 504 704 q 713 532 667 615 q 758 338 758 449 q 713 143 758 225 q 587 18 668 61 q 400 -25 506 -25 m 400 131 q 513 185 471 131 q 554 338 554 240 q 512 491 554 436 q 400 546 469 546 q 289 491 331 546 q 247 338 247 436 q 288 185 247 240 q 400 131 329 131 z "},"ö":{"ha":801,"x_min":43,"x_max":758,"o":"m 356 775 l 160 775 l 160 965 l 356 965 l 356 775 m 639 775 l 444 775 l 444 965 l 639 965 l 639 775 m 400 -25 q 214 18 294 -25 q 88 143 133 61 q 43 338 43 225 q 88 532 43 449 q 215 660 133 615 q 400 704 296 704 q 585 660 504 704 q 713 532 667 615 q 758 338 758 449 q 713 143 758 225 q 587 18 668 61 q 400 -25 506 -25 m 400 131 q 513 185 471 131 q 554 338 554 240 q 512 491 554 436 q 400 546 469 546 q 289 491 331 546 q 247 338 247 436 q 288 185 247 240 q 400 131 329 131 z "},"÷":{"ha":774,"x_min":64,"x_max":722,"o":"m 481 590 l 294 590 l 294 765 l 481 765 l 481 590 m 722 326 l 64 326 l 64 503 l 722 503 l 722 326 m 481 63 l 294 63 l 294 238 l 481 238 l 481 63 z "},"ø":{"ha":801,"x_min":43,"x_max":758,"o":"m 674 589 q 758 338 758 492 q 713 143 758 225 q 587 18 668 61 q 400 -25 506 -25 q 236 7 308 -25 l 169 -81 l 60 -3 l 128 86 q 43 338 43 182 q 88 532 43 449 q 215 660 133 615 q 400 704 296 704 q 567 669 490 704 l 635 758 l 742 681 l 674 589 m 247 338 q 256 257 247 293 l 464 532 q 400 546 436 546 q 289 491 331 546 q 247 338 247 436 m 400 131 q 513 185 471 131 q 554 338 554 240 q 544 419 554 385 l 338 144 q 400 131 365 131 z "},"ù":{"ha":792,"x_min":72,"x_max":713,"o":"m 508 767 l 333 767 l 171 978 l 410 978 l 508 767 m 314 -25 q 140 47 208 -25 q 72 247 72 118 l 72 681 l 274 681 l 274 278 q 301 172 274 211 q 382 133 329 133 q 476 172 439 133 q 513 279 513 211 l 513 681 l 713 681 l 713 0 l 513 0 l 513 24 q 519 86 513 51 q 440 4 489 33 q 314 -25 390 -25 z "},"ú":{"ha":792,"x_min":72,"x_max":713,"o":"m 475 767 l 304 767 l 413 978 l 642 978 l 475 767 m 314 -25 q 140 47 208 -25 q 72 247 72 118 l 72 681 l 274 681 l 274 278 q 301 172 274 211 q 382 133 329 133 q 476 172 439 133 q 513 279 513 211 l 513 681 l 713 681 l 713 0 l 513 0 l 513 24 q 519 86 513 51 q 440 4 489 33 q 314 -25 390 -25 z "},"û":{"ha":792,"x_min":72,"x_max":713,"o":"m 126 767 l 278 978 l 519 978 l 668 767 l 468 767 l 432 824 q 400 885 407 865 q 367 824 393 867 l 329 767 l 126 767 m 314 -25 q 140 47 208 -25 q 72 247 72 118 l 72 681 l 274 681 l 274 278 q 301 172 274 211 q 382 133 329 133 q 476 172 439 133 q 513 279 513 211 l 513 681 l 713 681 l 713 0 l 513 0 l 513 24 q 519 86 513 51 q 440 4 489 33 q 314 -25 390 -25 z "},"ü":{"ha":792,"x_min":72,"x_max":713,"o":"m 356 775 l 160 775 l 160 965 l 356 965 l 356 775 m 639 775 l 444 775 l 444 965 l 639 965 l 639 775 m 314 -25 q 140 47 208 -25 q 72 247 72 118 l 72 681 l 274 681 l 274 278 q 301 172 274 211 q 382 133 329 133 q 476 172 439 133 q 513 279 513 211 l 513 681 l 713 681 l 713 0 l 513 0 l 513 24 q 519 86 513 51 q 440 4 489 33 q 314 -25 390 -25 z "},"ý":{"ha":728,"x_min":3,"x_max":725,"o":"m 449 767 l 278 767 l 386 978 l 615 978 l 449 767 m 163 -282 l 267 4 l 3 681 l 231 681 l 353 289 q 375 193 368 236 q 387 249 379 219 q 397 289 394 278 l 514 681 l 725 681 l 378 -282 l 163 -282 z "},"þ":{"ha":826,"x_min":78,"x_max":785,"o":"m 78 -282 l 78 972 l 279 972 l 279 656 q 275 592 279 619 q 360 674 306 643 q 489 704 415 704 q 641 660 574 704 q 747 532 708 615 q 785 338 785 449 q 745 144 785 226 q 636 19 706 63 q 482 -25 567 -25 q 358 4 407 -25 q 275 86 308 33 q 279 24 279 60 l 279 -282 l 78 -282 m 425 131 q 537 188 494 131 q 579 339 579 246 q 538 490 579 433 q 425 547 496 547 q 313 491 356 547 q 269 339 269 435 q 313 188 269 246 q 425 131 356 131 z "},"ÿ":{"ha":728,"x_min":3,"x_max":725,"o":"m 328 775 l 132 775 l 132 965 l 328 965 l 328 775 m 611 775 l 417 775 l 417 965 l 611 965 l 611 775 m 163 -282 l 267 4 l 3 681 l 231 681 l 353 289 q 375 193 368 236 q 387 249 379 219 q 397 289 394 278 l 514 681 l 725 681 l 378 -282 l 163 -282 z "},"Ā":{"ha":1017,"x_min":-7,"x_max":1024,"o":"m 260 1236 l 760 1236 l 760 1089 l 260 1089 l 260 1236 m 1024 0 l 785 0 l 700 242 l 310 242 l 224 0 l -7 0 l 378 972 l 639 972 l 1024 0 m 374 421 l 636 421 l 543 685 q 506 801 514 771 q 467 685 499 775 l 374 421 z "},"ā":{"ha":750,"x_min":46,"x_max":679,"o":"m 626 797 l 126 797 l 126 944 l 626 944 l 626 797 m 281 -25 q 165 1 219 -25 q 78 76 111 26 q 46 192 46 125 q 118 349 46 297 q 314 415 190 400 l 411 426 q 467 445 450 432 q 483 482 483 458 q 457 538 483 515 q 385 560 431 560 q 302 533 333 560 q 265 460 271 507 l 61 460 q 107 586 67 531 q 217 673 147 642 q 378 704 288 704 q 606 627 533 704 q 679 401 679 550 l 679 0 l 493 0 l 493 25 q 499 88 493 60 q 416 5 471 35 q 281 -25 361 -25 m 343 118 q 447 158 406 118 q 488 263 488 199 l 488 326 q 411 299 471 311 l 364 290 q 278 259 308 281 q 249 201 249 238 q 275 140 249 163 q 343 118 301 118 z "},"Ă":{"ha":1017,"x_min":-7,"x_max":1024,"o":"m 508 1053 q 351 1109 404 1053 q 299 1265 299 1165 l 443 1265 q 508 1182 443 1182 q 557 1205 540 1182 q 574 1265 574 1228 l 718 1265 q 665 1109 718 1165 q 508 1053 613 1053 m 1024 0 l 785 0 l 700 242 l 310 242 l 224 0 l -7 0 l 378 972 l 639 972 l 1024 0 m 374 421 l 636 421 l 543 685 q 506 801 514 771 q 467 685 499 775 l 374 421 z "},"ă":{"ha":750,"x_min":46,"x_max":679,"o":"m 375 761 q 218 817 271 761 q 165 974 165 874 l 310 974 q 375 890 310 890 q 424 913 407 890 q 440 974 440 936 l 585 974 q 532 817 585 874 q 375 761 479 761 m 281 -25 q 165 1 219 -25 q 78 76 111 26 q 46 192 46 125 q 118 349 46 297 q 314 415 190 400 l 411 426 q 467 445 450 432 q 483 482 483 458 q 457 538 483 515 q 385 560 431 560 q 302 533 333 560 q 265 460 271 507 l 61 460 q 107 586 67 531 q 217 673 147 642 q 378 704 288 704 q 606 627 533 704 q 679 401 679 550 l 679 0 l 493 0 l 493 25 q 499 88 493 60 q 416 5 471 35 q 281 -25 361 -25 m 343 118 q 447 158 406 118 q 488 263 488 199 l 488 326 q 411 299 471 311 l 364 290 q 278 259 308 281 q 249 201 249 238 q 275 140 249 163 q 343 118 301 118 z "},"Ą":{"ha":1017,"x_min":-7,"x_max":1035,"o":"m 964 -149 q 1035 -132 996 -149 l 1035 -254 q 914 -282 986 -282 q 786 -245 832 -282 q 740 -147 740 -208 q 858 0 740 -53 l 785 0 l 700 242 l 310 242 l 224 0 l -7 0 l 378 972 l 639 972 l 1024 0 q 914 -106 914 -54 q 928 -137 914 -126 q 964 -149 943 -149 m 374 421 l 636 421 l 543 685 q 506 801 514 771 q 467 685 499 775 l 374 421 z "},"ą":{"ha":750,"x_min":46,"x_max":692,"o":"m 621 -149 q 692 -132 651 -149 l 692 -254 q 569 -282 643 -282 q 442 -244 488 -282 q 397 -143 397 -206 q 504 0 397 -56 l 493 0 l 493 25 q 499 88 493 60 q 416 5 471 35 q 281 -25 361 -25 q 165 1 219 -25 q 78 76 111 26 q 46 192 46 125 q 118 349 46 297 q 314 415 190 400 l 411 426 q 467 445 450 432 q 483 482 483 458 q 457 538 483 515 q 385 560 431 560 q 302 533 333 560 q 265 460 271 507 l 61 460 q 107 586 67 531 q 217 673 147 642 q 378 704 288 704 q 606 627 533 704 q 679 401 679 550 l 679 0 q 571 -106 571 -54 q 585 -137 571 -126 q 621 -149 600 -149 m 488 326 q 411 299 471 311 l 364 290 q 278 259 308 281 q 249 201 249 238 q 275 140 249 163 q 343 118 301 118 q 447 158 406 118 q 488 263 488 199 l 488 326 z "},"Ć":{"ha":1025,"x_min":49,"x_max":990,"o":"m 617 1058 l 446 1058 l 554 1269 l 783 1269 l 617 1058 m 528 -25 q 274 36 382 -25 q 107 214 165 97 q 49 492 49 331 q 113 760 49 646 q 290 936 178 875 q 542 997 401 997 q 760 953 664 997 q 916 823 857 908 q 986 618 975 738 l 763 618 q 693 763 750 710 q 540 817 636 817 q 402 778 463 817 q 308 667 342 740 q 274 492 274 593 q 307 312 274 388 q 399 196 340 236 q 536 156 458 156 q 697 214 633 156 q 772 368 760 272 l 990 368 q 922 163 979 251 q 763 24 864 74 q 528 -25 663 -25 z "},"ć":{"ha":778,"x_min":43,"x_max":743,"o":"m 476 767 l 306 767 l 414 978 l 643 978 l 476 767 m 394 -25 q 138 72 232 -25 q 43 340 43 169 q 91 535 43 453 q 221 660 139 617 q 404 704 303 704 q 640 624 554 704 q 739 414 726 543 l 538 414 q 499 508 533 471 q 406 546 465 546 q 292 492 338 546 q 247 340 247 438 q 290 189 247 247 q 401 131 332 131 q 501 169 465 131 q 542 269 536 208 l 743 269 q 638 53 726 132 q 394 -25 549 -25 z "},"Ĉ":{"ha":1025,"x_min":49,"x_max":990,"o":"m 268 1058 l 419 1269 l 661 1269 l 810 1058 l 610 1058 l 574 1115 q 542 1176 549 1157 q 508 1115 535 1158 l 471 1058 l 268 1058 m 528 -25 q 274 36 382 -25 q 107 214 165 97 q 49 492 49 331 q 113 760 49 646 q 290 936 178 875 q 542 997 401 997 q 760 953 664 997 q 916 823 857 908 q 986 618 975 738 l 763 618 q 693 763 750 710 q 540 817 636 817 q 402 778 463 817 q 308 667 342 740 q 274 492 274 593 q 307 312 274 388 q 399 196 340 236 q 536 156 458 156 q 697 214 633 156 q 772 368 760 272 l 990 368 q 922 163 979 251 q 763 24 864 74 q 528 -25 663 -25 z "},"ĉ":{"ha":778,"x_min":43,"x_max":743,"o":"m 128 767 l 279 978 l 521 978 l 669 767 l 469 767 l 433 824 q 401 885 408 865 q 368 824 394 867 l 331 767 l 128 767 m 394 -25 q 138 72 232 -25 q 43 340 43 169 q 91 535 43 453 q 221 660 139 617 q 404 704 303 704 q 640 624 554 704 q 739 414 726 543 l 538 414 q 499 508 533 471 q 406 546 465 546 q 292 492 338 546 q 247 340 247 438 q 290 189 247 247 q 401 131 332 131 q 501 169 465 131 q 542 269 536 208 l 743 269 q 638 53 726 132 q 394 -25 549 -25 z "},"Ċ":{"ha":1025,"x_min":49,"x_max":990,"o":"m 647 1067 l 438 1067 l 438 1254 l 647 1254 l 647 1067 m 528 -25 q 274 36 382 -25 q 107 214 165 97 q 49 492 49 331 q 113 760 49 646 q 290 936 178 875 q 542 997 401 997 q 760 953 664 997 q 916 823 857 908 q 986 618 975 738 l 763 618 q 693 763 750 710 q 540 817 636 817 q 402 778 463 817 q 308 667 342 740 q 274 492 274 593 q 307 312 274 388 q 399 196 340 236 q 536 156 458 156 q 697 214 633 156 q 772 368 760 272 l 990 368 q 922 163 979 251 q 763 24 864 74 q 528 -25 663 -25 z "},"ċ":{"ha":778,"x_min":43,"x_max":743,"o":"m 507 775 l 297 775 l 297 963 l 507 963 l 507 775 m 394 -25 q 138 72 232 -25 q 43 340 43 169 q 91 535 43 453 q 221 660 139 617 q 404 704 303 704 q 640 624 554 704 q 739 414 726 543 l 538 414 q 499 508 533 471 q 406 546 465 546 q 292 492 338 546 q 247 340 247 438 q 290 189 247 247 q 401 131 332 131 q 501 169 465 131 q 542 269 536 208 l 743 269 q 638 53 726 132 q 394 -25 549 -25 z "},"Č":{"ha":1025,"x_min":49,"x_max":990,"o":"m 421 1058 l 274 1269 l 475 1269 l 513 1211 q 544 1153 531 1183 q 576 1211 554 1175 l 613 1269 l 815 1269 l 663 1058 l 421 1058 m 528 -25 q 274 36 382 -25 q 107 214 165 97 q 49 492 49 331 q 113 760 49 646 q 290 936 178 875 q 542 997 401 997 q 760 953 664 997 q 916 823 857 908 q 986 618 975 738 l 763 618 q 693 763 750 710 q 540 817 636 817 q 402 778 463 817 q 308 667 342 740 q 274 492 274 593 q 307 312 274 388 q 399 196 340 236 q 536 156 458 156 q 697 214 633 156 q 772 368 760 272 l 990 368 q 922 163 979 251 q 763 24 864 74 q 528 -25 663 -25 z "},"č":{"ha":778,"x_min":43,"x_max":743,"o":"m 281 767 l 133 978 l 335 978 l 372 919 q 404 861 390 892 q 436 919 414 883 l 472 978 l 675 978 l 522 767 l 281 767 m 394 -25 q 138 72 232 -25 q 43 340 43 169 q 91 535 43 453 q 221 660 139 617 q 404 704 303 704 q 640 624 554 704 q 739 414 726 543 l 538 414 q 499 508 533 471 q 406 546 465 546 q 292 492 338 546 q 247 340 247 438 q 290 189 247 247 q 401 131 332 131 q 501 169 465 131 q 542 269 536 208 l 743 269 q 638 53 726 132 q 394 -25 549 -25 z "},"Ď":{"ha":1029,"x_min":99,"x_max":981,"o":"m 371 1058 l 224 1269 l 425 1269 l 463 1211 q 494 1153 481 1183 q 526 1211 504 1175 l 563 1269 l 765 1269 l 613 1058 l 371 1058 m 99 0 l 99 972 l 457 972 q 845 848 710 972 q 981 485 981 724 q 921 228 981 338 q 744 60 861 119 q 458 0 628 0 l 99 0 m 443 183 q 673 258 589 183 q 757 485 757 332 q 678 710 757 632 q 444 789 600 789 l 315 789 l 315 183 l 443 183 z "},"ď":{"ha":953,"x_min":44,"x_max":1000,"o":"m 350 -25 q 192 16 261 -25 q 84 139 124 57 q 44 339 44 221 q 87 540 44 457 q 199 663 129 622 q 350 704 269 704 q 474 673 422 704 q 556 592 525 642 q 551 660 551 618 l 551 972 l 753 972 l 753 0 l 551 0 l 551 24 q 556 86 551 63 q 479 8 531 40 q 350 -25 428 -25 m 804 718 q 878 742 857 721 q 899 807 899 763 l 803 807 l 803 972 l 1000 972 l 1000 821 q 947 675 1000 718 q 804 629 894 632 l 804 718 m 407 131 q 519 189 475 131 q 563 339 563 247 q 519 490 563 433 q 407 547 475 547 q 294 490 339 547 q 250 339 250 432 q 294 188 250 246 q 407 131 339 131 z "},"Đ":{"ha":1051,"x_min":22,"x_max":1003,"o":"m 479 972 q 867 848 732 972 q 1003 485 1003 724 q 943 229 1003 339 q 766 60 883 119 q 481 0 649 0 l 119 0 l 119 417 l 22 417 l 22 565 l 119 565 l 119 972 l 479 972 m 464 183 q 695 258 611 183 q 779 485 779 332 q 701 710 779 632 q 467 789 622 789 l 336 789 l 336 565 l 485 565 l 485 417 l 336 417 l 336 183 l 464 183 z "},"đ":{"ha":831,"x_min":44,"x_max":844,"o":"m 844 888 l 844 743 l 753 743 l 753 0 l 551 0 l 551 24 q 556 86 551 63 q 479 8 531 40 q 350 -25 428 -25 q 192 16 261 -25 q 84 139 124 57 q 44 339 44 221 q 87 540 44 457 q 199 663 129 622 q 350 704 269 704 q 474 673 422 704 q 556 592 525 642 q 551 660 551 618 l 551 743 l 347 743 l 347 888 l 551 888 l 551 972 l 753 972 l 753 888 l 844 888 m 407 131 q 519 189 475 131 q 563 339 563 247 q 519 490 563 433 q 407 547 475 547 q 294 490 339 547 q 250 339 250 432 q 294 188 250 246 q 407 131 339 131 z "},"Ē":{"ha":871,"x_min":99,"x_max":815,"o":"m 703 1089 l 203 1089 l 203 1236 l 703 1236 l 703 1089 m 815 0 l 99 0 l 99 972 l 793 972 l 793 789 l 315 789 l 315 588 l 772 588 l 772 407 l 315 407 l 315 183 l 815 183 l 815 0 z "},"ē":{"ha":776,"x_min":43,"x_max":731,"o":"m 642 797 l 142 797 l 142 944 l 642 944 l 642 797 m 397 -25 q 213 18 293 -25 q 88 144 133 61 q 43 342 43 226 q 88 531 43 449 q 212 659 132 614 q 393 704 292 704 q 641 603 551 704 q 731 332 731 503 l 731 293 l 247 293 q 291 174 249 221 q 397 128 333 128 q 482 153 447 128 q 524 225 517 179 l 726 225 q 677 97 719 154 q 563 8 635 40 q 397 -25 490 -25 m 525 425 q 487 522 524 485 q 392 560 450 560 q 292 522 332 560 q 246 425 253 485 l 525 425 z "},"Ĕ":{"ha":871,"x_min":99,"x_max":815,"o":"m 451 1053 q 294 1109 347 1053 q 242 1265 242 1165 l 386 1265 q 451 1182 386 1182 q 500 1205 483 1182 q 517 1265 517 1228 l 661 1265 q 608 1109 661 1165 q 451 1053 556 1053 m 815 0 l 99 0 l 99 972 l 793 972 l 793 789 l 315 789 l 315 588 l 772 588 l 772 407 l 315 407 l 315 183 l 815 183 l 815 0 z "},"ĕ":{"ha":776,"x_min":43,"x_max":731,"o":"m 390 761 q 233 817 286 761 q 181 974 181 874 l 325 974 q 390 890 325 890 q 439 913 422 890 q 456 974 456 936 l 600 974 q 547 817 600 874 q 390 761 494 761 m 397 -25 q 213 18 293 -25 q 88 144 133 61 q 43 342 43 226 q 88 531 43 449 q 212 659 132 614 q 393 704 292 704 q 641 603 551 704 q 731 332 731 503 l 731 293 l 247 293 q 291 174 249 221 q 397 128 333 128 q 482 153 447 128 q 524 225 517 179 l 726 225 q 677 97 719 154 q 563 8 635 40 q 397 -25 490 -25 m 525 425 q 487 522 524 485 q 392 560 450 560 q 292 522 332 560 q 246 425 253 485 l 525 425 z "},"Ė":{"ha":871,"x_min":99,"x_max":815,"o":"m 558 1067 l 349 1067 l 349 1254 l 558 1254 l 558 1067 m 815 0 l 99 0 l 99 972 l 793 972 l 793 789 l 315 789 l 315 588 l 772 588 l 772 407 l 315 407 l 315 183 l 815 183 l 815 0 z "},"ė":{"ha":776,"x_min":43,"x_max":731,"o":"m 497 775 l 288 775 l 288 963 l 497 963 l 497 775 m 397 -25 q 213 18 293 -25 q 88 144 133 61 q 43 342 43 226 q 88 531 43 449 q 212 659 132 614 q 393 704 292 704 q 641 603 551 704 q 731 332 731 503 l 731 293 l 247 293 q 291 174 249 221 q 397 128 333 128 q 482 153 447 128 q 524 225 517 179 l 726 225 q 677 97 719 154 q 563 8 635 40 q 397 -25 490 -25 m 525 425 q 487 522 524 485 q 392 560 450 560 q 292 522 332 560 q 246 425 253 485 l 525 425 z "},"Ę":{"ha":871,"x_min":99,"x_max":828,"o":"m 757 -149 q 828 -132 788 -149 l 828 -254 q 706 -282 779 -282 q 578 -244 624 -282 q 533 -143 533 -206 q 640 0 533 -56 l 99 0 l 99 972 l 793 972 l 793 789 l 315 789 l 315 588 l 772 588 l 772 407 l 315 407 l 315 183 l 815 183 l 815 0 q 707 -106 707 -54 q 722 -137 707 -126 q 757 -149 736 -149 z "},"ę":{"ha":776,"x_min":43,"x_max":731,"o":"m 419 -282 q 292 -244 338 -282 q 247 -144 247 -207 q 325 -21 247 -65 q 119 96 196 1 q 43 342 43 190 q 88 531 43 449 q 212 659 132 614 q 393 704 292 704 q 641 603 551 704 q 731 333 731 503 l 731 293 l 247 293 q 291 174 249 221 q 397 128 333 128 q 482 153 447 128 q 524 225 517 179 l 726 225 q 667 85 719 146 q 531 -4 615 24 q 421 -101 421 -43 q 435 -136 421 -124 q 472 -149 450 -149 q 540 -132 503 -149 l 540 -254 q 488 -274 519 -267 q 419 -282 456 -282 m 525 425 q 487 523 524 486 q 392 560 450 560 q 292 522 332 560 q 246 425 253 485 l 525 425 z "},"Ě":{"ha":871,"x_min":99,"x_max":815,"o":"m 333 1058 l 186 1269 l 388 1269 l 425 1211 q 457 1153 443 1183 q 489 1211 467 1175 l 525 1269 l 728 1269 l 575 1058 l 333 1058 m 815 0 l 99 0 l 99 972 l 793 972 l 793 789 l 315 789 l 315 588 l 772 588 l 772 407 l 315 407 l 315 183 l 815 183 l 815 0 z "},"ě":{"ha":776,"x_min":43,"x_max":731,"o":"m 271 767 l 124 978 l 325 978 l 363 919 q 394 861 381 892 q 426 919 404 883 l 463 978 l 665 978 l 513 767 l 271 767 m 397 -25 q 213 18 293 -25 q 88 144 133 61 q 43 342 43 226 q 88 531 43 449 q 212 659 132 614 q 393 704 292 704 q 641 603 551 704 q 731 332 731 503 l 731 293 l 247 293 q 291 174 249 221 q 397 128 333 128 q 482 153 447 128 q 524 225 517 179 l 726 225 q 677 97 719 154 q 563 8 635 40 q 397 -25 490 -25 m 525 425 q 487 522 524 485 q 392 560 450 560 q 292 522 332 560 q 246 425 253 485 l 525 425 z "},"Ĝ":{"ha":1049,"x_min":49,"x_max":979,"o":"m 475 1058 l 272 1058 l 424 1269 l 665 1269 l 814 1058 l 614 1058 l 578 1115 q 546 1176 553 1157 q 513 1115 539 1158 l 475 1058 m 533 526 l 979 526 l 979 0 l 782 0 l 782 26 q 790 122 782 71 q 679 15 754 56 q 500 -25 604 -25 q 264 37 367 -25 q 105 213 161 99 q 49 482 49 328 q 111 750 49 633 q 287 932 174 867 q 546 997 400 997 q 763 954 668 997 q 911 835 857 911 q 975 663 965 760 l 751 663 q 687 774 742 731 q 547 817 632 817 q 405 777 467 817 q 308 663 343 738 q 274 486 274 589 q 347 243 274 332 q 546 154 421 154 q 710 210 644 154 q 776 357 775 265 l 533 357 l 533 526 z "},"ĝ":{"ha":826,"x_min":46,"x_max":749,"o":"m 143 767 l 294 978 l 536 978 l 685 767 l 485 767 l 449 824 q 417 885 424 865 q 383 824 410 867 l 346 767 l 143 767 m 396 -307 q 157 -233 243 -307 q 69 -37 71 -158 l 272 -37 q 308 -123 275 -93 q 401 -153 340 -153 q 506 -116 464 -153 q 547 -12 547 -79 l 547 53 q 553 132 547 97 q 468 55 521 85 q 346 25 415 25 q 190 65 257 25 q 84 181 122 104 q 46 364 46 257 q 87 546 46 468 q 195 664 128 624 q 339 704 263 704 q 553 592 486 704 q 547 660 547 625 l 547 681 l 749 681 l 749 35 q 653 -220 749 -133 q 396 -307 558 -307 m 406 182 q 517 233 474 182 q 560 364 560 283 q 517 496 560 444 q 406 547 474 547 q 293 496 336 547 q 250 364 250 444 q 294 233 250 283 q 406 182 338 182 z "},"Ğ":{"ha":1049,"x_min":49,"x_max":979,"o":"m 544 1053 q 388 1109 440 1053 q 335 1265 335 1165 l 479 1265 q 544 1182 479 1182 q 593 1205 576 1182 q 610 1265 610 1228 l 754 1265 q 701 1109 754 1165 q 544 1053 649 1053 m 533 526 l 979 526 l 979 0 l 782 0 l 782 26 q 790 122 782 71 q 679 15 754 56 q 500 -25 604 -25 q 264 37 367 -25 q 105 213 161 99 q 49 482 49 328 q 111 750 49 633 q 287 932 174 867 q 546 997 400 997 q 763 954 668 997 q 911 835 857 911 q 975 663 965 760 l 751 663 q 687 774 742 731 q 547 817 632 817 q 405 777 467 817 q 308 663 343 738 q 274 486 274 589 q 347 243 274 332 q 546 154 421 154 q 710 210 644 154 q 776 357 775 265 l 533 357 l 533 526 z "},"ğ":{"ha":826,"x_min":46,"x_max":749,"o":"m 414 761 q 257 817 310 761 q 204 974 204 874 l 349 974 q 414 890 349 890 q 463 913 446 890 q 479 974 479 936 l 624 974 q 571 817 624 874 q 414 761 518 761 m 396 -307 q 157 -233 243 -307 q 69 -37 71 -158 l 272 -37 q 308 -123 275 -93 q 401 -153 340 -153 q 506 -116 464 -153 q 547 -12 547 -79 l 547 53 q 553 132 547 97 q 468 55 521 85 q 346 25 415 25 q 190 65 257 25 q 84 181 122 104 q 46 364 46 257 q 87 546 46 468 q 195 664 128 624 q 339 704 263 704 q 553 592 486 704 q 547 660 547 625 l 547 681 l 749 681 l 749 35 q 653 -220 749 -133 q 396 -307 558 -307 m 406 182 q 517 233 474 182 q 560 364 560 283 q 517 496 560 444 q 406 547 474 547 q 293 496 336 547 q 250 364 250 444 q 294 233 250 283 q 406 182 338 182 z "},"Ġ":{"ha":1049,"x_min":49,"x_max":979,"o":"m 442 1254 l 651 1254 l 651 1067 l 442 1067 l 442 1254 m 533 526 l 979 526 l 979 0 l 782 0 l 782 26 q 790 122 782 71 q 679 15 754 56 q 500 -25 604 -25 q 264 37 367 -25 q 105 213 161 99 q 49 482 49 328 q 111 750 49 633 q 287 932 174 867 q 546 997 400 997 q 763 954 668 997 q 911 835 857 911 q 975 663 965 760 l 751 663 q 687 774 742 731 q 547 817 632 817 q 405 777 467 817 q 308 663 343 738 q 274 486 274 589 q 347 243 274 332 q 546 154 421 154 q 710 210 644 154 q 776 357 775 265 l 533 357 l 533 526 z "},"ġ":{"ha":826,"x_min":46,"x_max":749,"o":"m 521 775 l 311 775 l 311 963 l 521 963 l 521 775 m 396 -307 q 157 -233 243 -307 q 69 -37 71 -158 l 272 -37 q 308 -123 275 -93 q 401 -153 340 -153 q 506 -116 464 -153 q 547 -12 547 -79 l 547 53 q 553 132 547 97 q 468 55 521 85 q 346 25 415 25 q 190 65 257 25 q 84 181 122 104 q 46 364 46 257 q 87 546 46 468 q 195 664 128 624 q 339 704 263 704 q 553 592 486 704 q 547 660 547 625 l 547 681 l 749 681 l 749 35 q 653 -220 749 -133 q 396 -307 558 -307 m 406 182 q 517 233 474 182 q 560 364 560 283 q 517 496 560 444 q 406 547 474 547 q 293 496 336 547 q 250 364 250 444 q 294 233 250 283 q 406 182 338 182 z "},"Ģ":{"ha":1049,"x_min":49,"x_max":979,"o":"m 533 526 l 979 526 l 979 0 l 782 0 l 782 26 q 790 122 782 71 q 679 15 754 56 q 500 -25 604 -25 q 264 37 367 -25 q 105 213 161 99 q 49 482 49 328 q 111 750 49 633 q 287 932 174 867 q 546 997 400 997 q 763 954 668 997 q 911 835 857 911 q 975 663 965 760 l 751 663 q 687 774 742 731 q 547 817 632 817 q 405 777 467 817 q 308 663 343 738 q 274 486 274 589 q 347 243 274 332 q 546 154 421 154 q 710 210 644 154 q 776 357 775 265 l 533 357 l 533 526 m 436 -274 l 436 -101 l 643 -101 l 643 -260 q 588 -412 643 -368 q 438 -458 532 -457 l 438 -367 q 515 -342 493 -364 q 536 -274 536 -321 l 436 -274 z "},"ģ":{"ha":826,"x_min":46,"x_max":749,"o":"m 517 1032 q 440 1008 461 1029 q 419 939 419 988 l 519 939 l 519 767 l 313 767 l 313 925 q 517 1125 313 1122 l 517 1032 m 396 -307 q 157 -233 243 -307 q 69 -37 71 -158 l 272 -37 q 308 -123 275 -93 q 401 -153 340 -153 q 506 -116 464 -153 q 547 -12 547 -79 l 547 53 q 553 132 547 97 q 468 55 521 85 q 346 25 415 25 q 190 65 257 25 q 84 181 122 104 q 46 364 46 257 q 87 546 46 468 q 195 664 128 624 q 339 704 263 704 q 553 592 486 704 q 547 660 547 625 l 547 681 l 749 681 l 749 35 q 653 -220 749 -133 q 396 -307 558 -307 m 406 182 q 517 233 474 182 q 560 364 560 283 q 517 496 560 444 q 406 547 474 547 q 293 496 336 547 q 250 364 250 444 q 294 233 250 283 q 406 182 338 182 z "},"Ĥ":{"ha":1032,"x_min":99,"x_max":935,"o":"m 243 1058 l 394 1269 l 636 1269 l 785 1058 l 585 1058 l 549 1115 q 517 1176 524 1157 q 483 1115 510 1158 l 446 1058 l 243 1058 m 315 0 l 99 0 l 99 972 l 315 972 l 315 586 l 718 586 l 718 972 l 935 972 l 935 0 l 718 0 l 718 404 l 315 404 l 315 0 z "},"ĥ":{"ha":793,"x_min":-29,"x_max":721,"o":"m -29 1058 l 122 1269 l 364 1269 l 513 1058 l 313 1058 l 276 1115 q 244 1176 251 1157 q 211 1115 238 1158 l 174 1058 l -29 1058 m 78 0 l 78 972 l 279 972 l 279 654 q 275 592 279 618 q 355 673 304 642 q 481 704 406 704 q 658 630 594 704 q 721 431 721 556 l 721 0 l 519 0 l 519 401 q 490 508 519 469 q 407 546 460 546 q 315 504 351 546 q 279 399 279 463 l 279 0 l 78 0 z "},"Ħ":{"ha":1071,"x_min":29,"x_max":1043,"o":"m 956 846 l 1043 846 l 1043 699 l 956 699 l 956 0 l 739 0 l 739 404 l 335 404 l 335 0 l 118 0 l 118 699 l 29 699 l 29 846 l 118 846 l 118 972 l 335 972 l 335 846 l 739 846 l 739 972 l 956 972 l 956 846 m 335 586 l 739 586 l 739 699 l 335 699 l 335 586 z "},"ħ":{"ha":793,"x_min":-12,"x_max":721,"o":"m 481 704 q 658 630 594 704 q 721 431 721 556 l 721 0 l 519 0 l 519 401 q 490 508 519 469 q 407 546 460 546 q 315 504 351 546 q 279 399 279 463 l 279 0 l 78 0 l 78 743 l -12 743 l -12 888 l 78 888 l 78 972 l 279 972 l 279 888 l 485 888 l 485 743 l 279 743 l 279 654 q 275 592 279 618 q 355 673 304 642 q 481 704 406 704 z "},"Ĩ":{"ha":413,"x_min":-65,"x_max":476,"o":"m 476 1268 q 317 1074 476 1074 q 259 1081 286 1074 q 199 1100 232 1088 q 129 1118 150 1118 q 89 1074 89 1118 l -65 1074 q -23 1217 -65 1168 q 97 1267 19 1267 q 154 1260 128 1267 q 217 1239 181 1253 q 252 1226 235 1232 q 282 1221 269 1221 q 312 1232 303 1221 q 322 1268 321 1243 l 476 1268 m 99 972 l 315 972 l 315 0 l 99 0 l 99 972 z "},"ĩ":{"ha":358,"x_min":-92,"x_max":450,"o":"m 450 976 q 290 782 450 782 q 233 789 260 782 q 172 808 206 796 q 103 826 124 826 q 63 782 63 826 l -92 782 q -49 926 -92 876 q 71 975 -7 975 q 128 968 101 975 q 190 947 154 961 q 226 935 208 940 q 256 929 243 929 q 285 940 276 929 q 296 976 294 951 l 450 976 m 78 681 l 279 681 l 279 0 l 78 0 l 78 681 z "},"Ī":{"ha":413,"x_min":-44,"x_max":456,"o":"m -44 1089 l -44 1236 l 456 1236 l 456 1089 l -44 1089 m 99 972 l 315 972 l 315 0 l 99 0 l 99 972 z "},"ī":{"ha":358,"x_min":-71,"x_max":429,"o":"m -71 797 l -71 944 l 429 944 l 429 797 l -71 797 m 78 681 l 279 681 l 279 0 l 78 0 l 78 681 z "},"Ĭ":{"ha":413,"x_min":-4,"x_max":415,"o":"m 415 1265 q 363 1109 415 1165 q 206 1053 310 1053 q 49 1109 101 1053 q -4 1265 -4 1165 l 140 1265 q 206 1182 140 1182 q 254 1205 238 1182 q 271 1265 271 1228 l 415 1265 m 99 972 l 315 972 l 315 0 l 99 0 l 99 972 z "},"ĭ":{"ha":358,"x_min":-32,"x_max":388,"o":"m 388 974 q 335 817 388 874 q 178 761 282 761 q 21 817 74 761 q -32 974 -32 874 l 113 974 q 178 890 113 890 q 226 913 210 890 q 243 974 243 936 l 388 974 m 78 681 l 279 681 l 279 0 l 78 0 l 78 681 z "},"Į":{"ha":413,"x_min":31,"x_max":325,"o":"m 254 -149 q 325 -132 286 -149 l 325 -254 q 272 -274 304 -267 q 204 -282 240 -282 q 76 -245 122 -282 q 31 -150 31 -208 q 135 0 31 -51 l 99 0 l 99 972 l 315 972 l 315 0 l 314 0 q 204 -106 204 -54 q 219 -137 204 -126 q 254 -149 233 -149 z "},"į":{"ha":358,"x_min":-3,"x_max":292,"o":"m 75 963 l 285 963 l 285 775 l 75 775 l 75 963 m 221 -149 q 292 -132 251 -149 l 292 -254 q 169 -282 243 -282 q 42 -244 88 -282 q -3 -143 -3 -206 q 104 0 -3 -56 l 78 0 l 78 681 l 279 681 l 279 0 q 171 -106 171 -54 q 185 -137 171 -126 q 221 -149 200 -149 z "},"İ":{"ha":413,"x_min":99,"x_max":315,"o":"m 101 1254 l 311 1254 l 311 1067 l 101 1067 l 101 1254 m 99 972 l 315 972 l 315 0 l 99 0 l 99 972 z "},"ı":{"ha":358,"x_min":78,"x_max":279,"o":"m 78 681 l 279 681 l 279 0 l 78 0 l 78 681 z "},"Ĳ":{"ha":1175,"x_min":99,"x_max":1085,"o":"m 99 972 l 315 972 l 315 0 l 99 0 l 99 972 m 753 -25 q 504 67 582 -25 q 426 313 426 158 q 426 318 426 315 l 642 318 q 665 197 642 239 q 751 156 689 156 q 842 198 818 156 q 867 317 867 240 l 867 972 l 1085 972 l 1085 300 q 994 58 1085 142 q 753 -25 904 -25 z "},"ĳ":{"ha":719,"x_min":75,"x_max":646,"o":"m 75 775 l 75 963 l 285 963 l 285 775 l 75 775 m 78 681 l 279 681 l 279 0 l 78 0 l 78 681 m 436 775 l 436 963 l 646 963 l 646 775 l 436 775 m 642 681 l 642 -83 q 583 -244 642 -182 q 406 -307 525 -307 q 353 -303 379 -307 q 313 -293 326 -299 l 313 -139 q 344 -143 321 -143 q 416 -121 392 -143 q 440 -46 440 -99 l 440 681 l 642 681 z "},"Ĵ":{"ha":763,"x_min":14,"x_max":832,"o":"m 290 1058 l 442 1269 l 683 1269 l 832 1058 l 632 1058 l 596 1115 q 564 1176 571 1157 q 531 1115 557 1158 l 493 1058 l 290 1058 m 340 -25 q 92 67 169 -25 q 14 313 14 158 q 14 318 14 315 l 229 318 q 253 197 229 239 q 339 156 276 156 q 430 198 406 156 q 454 317 454 240 l 454 972 l 672 972 l 672 300 q 582 58 672 142 q 340 -25 492 -25 z "},"ĵ":{"ha":361,"x_min":-90,"x_max":451,"o":"m 113 767 l -90 767 l 61 978 l 303 978 l 451 767 l 251 767 l 215 824 q 183 885 190 865 q 150 824 176 867 l 113 767 m 283 681 l 283 -83 q 225 -244 283 -182 q 47 -307 167 -307 q -6 -303 21 -307 q -46 -293 -32 -299 l -46 -139 q -14 -143 -37 -143 q 58 -121 33 -143 q 82 -46 82 -99 l 82 681 l 283 681 z "},"Ķ":{"ha":949,"x_min":99,"x_max":982,"o":"m 546 568 l 982 0 l 701 0 l 404 419 l 311 322 l 311 0 l 99 0 l 99 972 l 311 972 l 311 582 q 375 664 331 613 l 658 972 l 933 972 l 546 568 m 394 -274 l 394 -101 l 601 -101 l 601 -260 q 546 -412 601 -368 q 396 -458 490 -457 l 396 -367 q 473 -342 451 -364 q 494 -274 494 -321 l 394 -274 z "},"ķ":{"ha":751,"x_min":78,"x_max":768,"o":"m 476 397 l 768 0 l 517 0 l 343 261 l 279 196 l 279 0 l 78 0 l 78 972 l 279 972 l 279 436 q 329 499 300 467 l 497 681 l 753 681 l 476 397 m 290 -274 l 290 -101 l 497 -101 l 497 -260 q 442 -412 497 -368 q 292 -458 386 -457 l 292 -367 q 369 -342 347 -364 q 390 -274 390 -321 l 290 -274 z "},"Ĺ":{"ha":799,"x_min":99,"x_max":786,"o":"m 281 1058 l 110 1058 l 218 1269 l 447 1269 l 281 1058 m 786 0 l 99 0 l 99 972 l 315 972 l 315 183 l 786 183 l 786 0 z "},"ĺ":{"ha":358,"x_min":78,"x_max":421,"o":"m 192 1269 l 421 1269 l 254 1058 l 83 1058 l 192 1269 m 78 972 l 279 972 l 279 0 l 78 0 l 78 972 z "},"Ļ":{"ha":799,"x_min":99,"x_max":786,"o":"m 786 0 l 99 0 l 99 972 l 315 972 l 315 183 l 786 183 l 786 0 m 340 -367 q 417 -342 396 -364 q 439 -274 439 -321 l 339 -274 l 339 -101 l 546 -101 l 546 -260 q 490 -412 546 -368 q 340 -458 435 -457 l 340 -367 z "},"ļ":{"ha":358,"x_min":75,"x_max":282,"o":"m 279 972 l 279 0 l 78 0 l 78 972 l 279 972 m 75 -101 l 282 -101 l 282 -260 q 226 -412 282 -368 q 76 -458 171 -457 l 76 -367 q 153 -342 132 -364 q 175 -274 175 -321 l 75 -274 l 75 -101 z "},"Ľ":{"ha":804,"x_min":99,"x_max":786,"o":"m 786 0 l 99 0 l 99 972 l 315 972 l 315 183 l 786 183 l 786 0 m 433 707 q 510 731 489 710 q 532 800 532 753 l 432 800 l 432 972 l 639 972 l 639 814 q 433 614 639 617 l 433 707 z "},"ľ":{"ha":481,"x_min":78,"x_max":528,"o":"m 78 972 l 279 972 l 279 0 l 78 0 l 78 972 m 331 972 l 528 972 l 528 821 q 475 675 528 718 q 332 629 422 632 l 332 718 q 405 742 385 721 q 425 807 425 763 l 331 807 l 331 972 z "},"Ŀ":{"ha":800,"x_min":99,"x_max":786,"o":"m 786 0 l 99 0 l 99 972 l 315 972 l 315 183 l 786 183 l 786 0 m 714 357 l 468 357 l 468 590 l 714 590 l 714 357 z "},"ŀ":{"ha":613,"x_min":78,"x_max":604,"o":"m 78 972 l 279 972 l 279 0 l 78 0 l 78 972 m 371 385 l 371 607 l 604 607 l 604 385 l 371 385 z "},"Ł":{"ha":854,"x_min":22,"x_max":843,"o":"m 371 394 l 371 183 l 843 183 l 843 0 l 154 0 l 154 299 l 22 240 l 22 428 l 154 486 l 154 972 l 371 972 l 371 582 l 621 692 l 621 504 l 371 394 z "},"ł":{"ha":553,"x_min":29,"x_max":531,"o":"m 376 629 l 531 700 l 531 517 l 376 446 l 376 0 l 175 0 l 175 354 l 29 288 l 29 469 l 175 536 l 175 972 l 376 972 l 376 629 z "},"Ń":{"ha":1086,"x_min":99,"x_max":989,"o":"m 618 1058 l 447 1058 l 556 1269 l 785 1269 l 618 1058 m 99 0 l 99 972 l 414 972 l 782 290 q 775 435 775 346 l 775 972 l 989 972 l 989 0 l 714 0 l 304 758 q 311 622 311 694 l 311 0 l 99 0 z "},"ń":{"ha":793,"x_min":78,"x_max":721,"o":"m 482 767 l 311 767 l 419 978 l 649 978 l 482 767 m 78 0 l 78 681 l 279 681 l 279 654 q 274 592 279 625 q 354 673 303 642 q 481 704 406 704 q 658 630 594 704 q 721 431 721 556 l 721 0 l 519 0 l 519 401 q 490 508 519 469 q 407 546 460 546 q 315 504 351 546 q 279 399 279 463 l 279 0 l 78 0 z "},"Ņ":{"ha":1086,"x_min":99,"x_max":989,"o":"m 99 0 l 99 972 l 414 972 l 782 290 q 775 435 775 346 l 775 972 l 989 972 l 989 0 l 714 0 l 304 758 q 311 622 311 694 l 311 0 l 99 0 m 451 -367 q 528 -342 507 -364 q 550 -274 550 -321 l 450 -274 l 450 -101 l 657 -101 l 657 -260 q 601 -412 657 -368 q 451 -458 546 -457 l 451 -367 z "},"ņ":{"ha":793,"x_min":78,"x_max":721,"o":"m 78 0 l 78 681 l 279 681 l 279 654 q 274 592 279 625 q 354 673 303 642 q 481 704 406 704 q 658 630 594 704 q 721 431 721 556 l 721 0 l 519 0 l 519 401 q 490 508 519 469 q 407 546 460 546 q 315 504 351 546 q 279 399 279 463 l 279 0 l 78 0 m 307 -367 q 384 -342 363 -364 q 406 -274 406 -321 l 306 -274 l 306 -101 l 513 -101 l 513 -260 q 457 -412 513 -368 q 307 -458 401 -457 l 307 -367 z "},"Ň":{"ha":1086,"x_min":99,"x_max":989,"o":"m 422 1058 l 275 1269 l 476 1269 l 514 1211 q 546 1153 532 1183 q 578 1211 556 1175 l 614 1269 l 817 1269 l 664 1058 l 422 1058 m 99 0 l 99 972 l 414 972 l 782 290 q 775 435 775 346 l 775 972 l 989 972 l 989 0 l 714 0 l 304 758 q 311 622 311 694 l 311 0 l 99 0 z "},"ň":{"ha":793,"x_min":78,"x_max":721,"o":"m 286 767 l 139 978 l 340 978 l 378 919 q 410 861 396 892 q 442 919 419 883 l 478 978 l 681 978 l 528 767 l 286 767 m 78 0 l 78 681 l 279 681 l 279 654 q 274 592 279 625 q 354 673 303 642 q 481 704 406 704 q 658 630 594 704 q 721 431 721 556 l 721 0 l 519 0 l 519 401 q 490 508 519 469 q 407 546 460 546 q 315 504 351 546 q 279 399 279 463 l 279 0 l 78 0 z "},"Ŋ":{"ha":1086,"x_min":99,"x_max":989,"o":"m 753 -307 q 699 -303 725 -307 q 658 -293 674 -299 l 658 -140 q 690 -144 669 -144 q 763 -123 739 -144 q 788 -53 788 -101 l 788 -3 l 303 742 q 311 606 311 678 l 311 0 l 99 0 l 99 972 l 386 972 l 783 365 q 775 508 775 432 l 775 972 l 989 972 l 989 -83 q 931 -244 989 -182 q 753 -307 872 -307 z "},"ŋ":{"ha":793,"x_min":78,"x_max":721,"o":"m 481 704 q 658 630 594 704 q 721 431 721 556 l 721 -85 q 663 -244 721 -182 q 486 -307 604 -307 q 431 -303 458 -307 q 390 -293 404 -299 l 390 -140 q 424 -144 401 -144 q 494 -124 469 -144 q 519 -53 519 -103 l 519 401 q 490 508 519 469 q 407 546 460 546 q 315 504 351 546 q 279 399 279 463 l 279 0 l 78 0 l 78 681 l 279 681 l 279 654 q 274 592 279 625 q 354 673 303 642 q 481 704 406 704 z "},"Ō":{"ha":1075,"x_min":49,"x_max":1025,"o":"m 785 1089 l 285 1089 l 285 1236 l 785 1236 l 785 1089 m 535 -25 q 284 35 394 -25 q 111 211 174 96 q 49 486 49 326 q 111 758 49 642 q 284 935 174 874 q 535 997 394 997 q 785 934 674 997 q 961 755 897 871 q 1025 486 1025 639 q 961 213 1025 328 q 786 36 897 97 q 535 -25 675 -25 m 535 157 q 728 243 654 157 q 801 486 801 329 q 767 662 801 588 q 673 776 733 736 q 535 815 613 815 q 344 728 415 815 q 274 486 274 640 q 344 244 274 331 q 535 157 415 157 z "},"ō":{"ha":801,"x_min":43,"x_max":758,"o":"m 650 797 l 150 797 l 150 944 l 650 944 l 650 797 m 400 -25 q 214 18 294 -25 q 88 143 133 61 q 43 338 43 225 q 88 532 43 449 q 215 660 133 615 q 400 704 296 704 q 585 660 504 704 q 713 532 667 615 q 758 338 758 449 q 713 143 758 225 q 587 18 668 61 q 400 -25 506 -25 m 400 131 q 513 185 471 131 q 554 338 554 240 q 512 491 554 436 q 400 546 469 546 q 289 491 331 546 q 247 338 247 436 q 288 185 247 240 q 400 131 329 131 z "},"Ŏ":{"ha":1075,"x_min":49,"x_max":1025,"o":"m 533 1053 q 376 1109 429 1053 q 324 1265 324 1165 l 468 1265 q 533 1182 468 1182 q 582 1205 565 1182 q 599 1265 599 1228 l 743 1265 q 690 1109 743 1165 q 533 1053 638 1053 m 535 -25 q 284 35 394 -25 q 111 211 174 96 q 49 486 49 326 q 111 758 49 642 q 284 935 174 874 q 535 997 394 997 q 785 934 674 997 q 961 755 897 871 q 1025 486 1025 639 q 961 213 1025 328 q 786 36 897 97 q 535 -25 675 -25 m 535 157 q 728 243 654 157 q 801 486 801 329 q 767 662 801 588 q 673 776 733 736 q 535 815 613 815 q 344 728 415 815 q 274 486 274 640 q 344 244 274 331 q 535 157 415 157 z "},"ŏ":{"ha":801,"x_min":43,"x_max":758,"o":"m 400 761 q 243 817 296 761 q 190 974 190 874 l 335 974 q 400 890 335 890 q 449 913 432 890 q 465 974 465 936 l 610 974 q 557 817 610 874 q 400 761 504 761 m 400 -25 q 214 18 294 -25 q 88 143 133 61 q 43 338 43 225 q 88 532 43 449 q 215 660 133 615 q 400 704 296 704 q 585 660 504 704 q 713 532 667 615 q 758 338 758 449 q 713 143 758 225 q 587 18 668 61 q 400 -25 506 -25 m 400 131 q 513 185 471 131 q 554 338 554 240 q 512 491 554 436 q 400 546 469 546 q 289 491 331 546 q 247 338 247 436 q 288 185 247 240 q 400 131 329 131 z "},"Ő":{"ha":1075,"x_min":49,"x_max":1025,"o":"m 458 1058 l 313 1058 l 378 1269 l 617 1269 l 458 1058 m 744 1058 l 594 1058 l 660 1269 l 901 1269 l 744 1058 m 535 -25 q 284 35 394 -25 q 111 211 174 96 q 49 486 49 326 q 111 758 49 642 q 284 935 174 874 q 535 997 394 997 q 785 934 674 997 q 961 755 897 871 q 1025 486 1025 639 q 961 213 1025 328 q 786 36 897 97 q 535 -25 675 -25 m 535 157 q 728 243 654 157 q 801 486 801 329 q 767 662 801 588 q 673 776 733 736 q 535 815 613 815 q 344 728 415 815 q 274 486 274 640 q 344 244 274 331 q 535 157 415 157 z "},"ő":{"ha":801,"x_min":43,"x_max":768,"o":"m 325 767 l 179 767 l 244 978 l 483 978 l 325 767 m 611 767 l 461 767 l 526 978 l 768 978 l 611 767 m 400 -25 q 214 18 294 -25 q 88 143 133 61 q 43 338 43 225 q 88 532 43 449 q 215 660 133 615 q 400 704 296 704 q 585 660 504 704 q 713 532 667 615 q 758 338 758 449 q 713 143 758 225 q 587 18 668 61 q 400 -25 506 -25 m 400 131 q 513 185 471 131 q 554 338 554 240 q 512 491 554 436 q 400 546 469 546 q 289 491 331 546 q 247 338 247 436 q 288 185 247 240 q 400 131 329 131 z "},"Œ":{"ha":1343,"x_min":49,"x_max":1288,"o":"m 529 0 q 281 57 389 0 q 110 224 172 114 q 49 490 49 335 q 115 748 49 639 q 295 915 182 857 q 543 972 408 972 l 1265 972 l 1265 789 l 844 789 l 844 588 l 1244 588 l 1244 407 l 844 407 l 844 183 l 1288 183 l 1288 0 l 529 0 m 626 183 l 626 789 l 536 789 q 404 755 464 789 q 309 654 344 721 q 274 493 274 588 q 308 324 274 394 q 401 219 342 254 q 536 183 461 183 l 626 183 z "},"œ":{"ha":1288,"x_min":43,"x_max":1242,"o":"m 400 -25 q 214 18 294 -25 q 88 143 133 61 q 43 338 43 225 q 88 532 43 449 q 215 660 133 615 q 400 704 296 704 q 544 677 479 704 q 654 597 610 650 q 765 676 700 649 q 906 704 829 704 q 1153 605 1064 704 q 1242 333 1242 506 l 1242 293 l 757 293 q 802 175 760 222 q 908 128 844 128 q 993 153 958 128 q 1036 225 1028 179 l 1239 225 q 1188 97 1231 154 q 1073 8 1146 40 q 906 -25 1000 -25 q 762 1 826 -25 q 654 79 697 28 q 545 1 610 28 q 400 -25 481 -25 m 1036 425 q 998 523 1035 486 q 903 560 961 560 q 803 522 844 560 q 756 425 763 485 l 1036 425 m 400 131 q 513 185 471 131 q 554 338 554 240 q 512 491 554 436 q 400 546 469 546 q 289 491 331 546 q 247 338 247 436 q 288 185 247 240 q 400 131 329 131 z "},"Ŕ":{"ha":928,"x_min":99,"x_max":868,"o":"m 518 1058 l 347 1058 l 456 1269 l 685 1269 l 518 1058 m 99 0 l 99 972 l 544 972 q 779 906 690 972 q 868 713 868 839 q 814 558 868 618 q 679 474 760 497 q 808 403 765 460 q 851 253 851 347 l 851 0 l 633 0 l 633 233 q 599 345 633 313 q 485 378 565 378 l 313 378 l 313 0 l 99 0 m 501 557 q 647 675 647 557 q 501 792 647 792 l 313 792 l 313 557 l 501 557 z "},"ŕ":{"ha":526,"x_min":78,"x_max":522,"o":"m 356 767 l 185 767 l 293 978 l 522 978 l 356 767 m 78 0 l 78 681 l 278 681 l 278 633 q 272 561 278 594 q 352 665 303 626 q 471 704 401 704 q 507 700 492 704 l 507 506 q 457 511 485 511 q 328 464 376 511 q 279 314 279 417 l 279 0 l 78 0 z "},"Ŗ":{"ha":928,"x_min":99,"x_max":868,"o":"m 99 0 l 99 972 l 544 972 q 779 906 690 972 q 868 713 868 839 q 814 558 868 618 q 679 474 760 497 q 808 403 765 460 q 851 253 851 347 l 851 0 l 633 0 l 633 233 q 599 345 633 313 q 485 378 565 378 l 313 378 l 313 0 l 99 0 m 501 557 q 647 675 647 557 q 501 792 647 792 l 313 792 l 313 557 l 501 557 m 378 -367 q 455 -342 433 -364 q 476 -274 476 -321 l 376 -274 l 376 -101 l 583 -101 l 583 -260 q 528 -412 583 -368 q 378 -458 472 -457 l 378 -367 z "},"ŗ":{"ha":526,"x_min":75,"x_max":507,"o":"m 78 0 l 78 681 l 278 681 l 278 633 q 272 561 278 594 q 352 665 303 626 q 471 704 401 704 q 507 700 492 704 l 507 506 q 457 511 485 511 q 328 464 376 511 q 279 314 279 417 l 279 0 l 78 0 m 76 -367 q 153 -342 132 -364 q 175 -274 175 -321 l 75 -274 l 75 -101 l 282 -101 l 282 -260 q 226 -412 282 -368 q 76 -458 171 -457 l 76 -367 z "},"Ř":{"ha":928,"x_min":99,"x_max":868,"o":"m 322 1058 l 175 1269 l 376 1269 l 414 1211 q 446 1153 432 1183 q 478 1211 456 1175 l 514 1269 l 717 1269 l 564 1058 l 322 1058 m 99 0 l 99 972 l 544 972 q 779 906 690 972 q 868 713 868 839 q 814 558 868 618 q 679 474 760 497 q 808 403 765 460 q 851 253 851 347 l 851 0 l 633 0 l 633 233 q 599 345 633 313 q 485 378 565 378 l 313 378 l 313 0 l 99 0 m 501 557 q 647 675 647 557 q 501 792 647 792 l 313 792 l 313 557 l 501 557 z "},"ř":{"ha":526,"x_min":14,"x_max":556,"o":"m 161 767 l 14 978 l 215 978 l 253 919 q 285 861 271 892 q 317 919 294 883 l 353 978 l 556 978 l 403 767 l 161 767 m 78 0 l 78 681 l 278 681 l 278 633 q 272 561 278 594 q 352 665 303 626 q 471 704 401 704 q 507 700 492 704 l 507 506 q 457 511 485 511 q 328 464 376 511 q 279 314 279 417 l 279 0 l 78 0 z "},"Ś":{"ha":922,"x_min":35,"x_max":869,"o":"m 536 1058 l 365 1058 l 474 1269 l 703 1269 l 536 1058 m 472 -25 q 160 72 276 -25 q 35 336 44 168 l 260 336 q 327 202 265 250 q 481 154 389 154 q 603 183 556 154 q 651 271 651 213 q 618 345 651 318 q 514 386 585 372 l 349 417 q 144 510 222 440 q 67 696 67 581 q 117 853 67 785 q 257 960 168 922 q 457 997 346 997 q 746 909 642 997 q 860 672 850 821 l 635 672 q 584 780 631 739 q 447 821 538 821 q 329 792 375 821 q 283 713 283 764 q 319 645 283 668 q 429 608 356 622 l 588 579 q 792 487 714 557 q 869 296 869 417 q 824 130 869 203 q 688 16 778 57 q 472 -25 599 -25 z "},"ś":{"ha":707,"x_min":33,"x_max":663,"o":"m 424 767 l 253 767 l 361 978 l 590 978 l 424 767 m 360 -25 q 127 44 214 -25 q 33 232 40 114 l 236 232 q 271 149 239 179 q 360 118 303 118 q 436 139 407 118 q 465 193 465 160 q 443 236 465 221 q 372 261 421 251 l 276 281 q 57 492 57 325 q 94 600 57 551 q 197 676 131 649 q 349 704 263 704 q 572 640 489 704 q 658 468 654 575 l 458 468 q 424 535 454 510 q 347 561 394 561 q 278 545 306 561 q 251 499 251 529 q 273 458 251 474 q 349 433 294 443 l 440 414 q 663 204 663 371 q 625 85 663 138 q 519 4 588 33 q 360 -25 450 -25 z "},"Ŝ":{"ha":922,"x_min":35,"x_max":869,"o":"m 188 1058 l 339 1269 l 581 1269 l 729 1058 l 529 1058 l 493 1115 q 461 1176 468 1157 q 428 1115 454 1158 l 390 1058 l 188 1058 m 472 -25 q 160 72 276 -25 q 35 336 44 168 l 260 336 q 327 202 265 250 q 481 154 389 154 q 603 183 556 154 q 651 271 651 213 q 618 345 651 318 q 514 386 585 372 l 349 417 q 144 510 222 440 q 67 696 67 581 q 117 853 67 785 q 257 960 168 922 q 457 997 346 997 q 746 909 642 997 q 860 672 850 821 l 635 672 q 584 780 631 739 q 447 821 538 821 q 329 792 375 821 q 283 713 283 764 q 319 645 283 668 q 429 608 356 622 l 588 579 q 792 487 714 557 q 869 296 869 417 q 824 130 869 203 q 688 16 778 57 q 472 -25 599 -25 z "},"ŝ":{"ha":707,"x_min":33,"x_max":663,"o":"m 75 767 l 226 978 l 468 978 l 617 767 l 417 767 l 381 824 q 349 885 356 865 q 315 824 342 867 l 278 767 l 75 767 m 360 -25 q 127 44 214 -25 q 33 232 40 114 l 236 232 q 271 149 239 179 q 360 118 303 118 q 436 139 407 118 q 465 193 465 160 q 443 236 465 221 q 372 261 421 251 l 276 281 q 57 492 57 325 q 94 600 57 551 q 197 676 131 649 q 349 704 263 704 q 572 640 489 704 q 658 468 654 575 l 458 468 q 424 535 454 510 q 347 561 394 561 q 278 545 306 561 q 251 499 251 529 q 273 458 251 474 q 349 433 294 443 l 440 414 q 663 204 663 371 q 625 85 663 138 q 519 4 588 33 q 360 -25 450 -25 z "},"Ş":{"ha":922,"x_min":35,"x_max":869,"o":"m 869 296 q 778 75 869 163 q 519 -24 688 -12 l 489 -61 q 494 -61 492 -61 q 596 -92 557 -61 q 635 -175 635 -124 q 581 -274 635 -237 q 450 -310 528 -310 q 275 -243 342 -310 l 343 -167 q 433 -206 382 -206 q 481 -194 463 -206 q 499 -165 499 -182 q 486 -142 499 -151 q 451 -133 474 -133 q 407 -144 428 -133 l 347 -86 l 397 -21 q 139 92 235 -3 q 35 336 43 186 l 260 336 q 327 202 265 250 q 481 154 389 154 q 603 183 556 154 q 651 271 651 213 q 618 345 651 318 q 514 386 585 372 l 349 417 q 144 510 222 440 q 67 696 67 581 q 117 853 67 785 q 257 960 168 922 q 457 997 346 997 q 746 909 642 997 q 860 672 850 821 l 635 672 q 584 780 631 739 q 447 821 538 821 q 329 792 375 821 q 283 713 283 764 q 319 645 283 668 q 429 608 356 622 l 588 579 q 792 487 714 557 q 869 296 869 417 z "},"ş":{"ha":707,"x_min":33,"x_max":663,"o":"m 663 204 q 595 51 663 113 q 413 -22 528 -10 l 381 -61 q 386 -61 383 -61 q 488 -92 449 -61 q 526 -175 526 -124 q 473 -274 526 -237 q 342 -310 419 -310 q 167 -243 233 -310 l 235 -167 q 325 -206 274 -206 q 372 -194 354 -206 q 390 -165 390 -182 q 378 -142 390 -151 q 343 -133 365 -133 q 299 -144 319 -133 l 239 -86 l 289 -21 q 106 63 174 -4 q 33 232 39 129 l 236 232 q 271 149 239 179 q 360 118 303 118 q 436 139 407 118 q 465 193 465 160 q 443 236 465 221 q 372 261 421 251 l 276 281 q 57 492 57 325 q 94 600 57 551 q 197 676 131 649 q 349 704 263 704 q 572 640 489 704 q 658 468 654 575 l 458 468 q 424 535 454 510 q 347 561 394 561 q 278 545 306 561 q 251 499 251 529 q 273 458 251 474 q 349 433 294 443 l 440 414 q 663 204 663 371 z "},"Š":{"ha":922,"x_min":35,"x_max":869,"o":"m 340 1058 l 193 1269 l 394 1269 l 432 1211 q 464 1153 450 1183 q 496 1211 474 1175 l 532 1269 l 735 1269 l 582 1058 l 340 1058 m 472 -25 q 160 72 276 -25 q 35 336 44 168 l 260 336 q 327 202 265 250 q 481 154 389 154 q 603 183 556 154 q 651 271 651 213 q 618 345 651 318 q 514 386 585 372 l 349 417 q 144 510 222 440 q 67 696 67 581 q 117 853 67 785 q 257 960 168 922 q 457 997 346 997 q 746 909 642 997 q 860 672 850 821 l 635 672 q 584 780 631 739 q 447 821 538 821 q 329 792 375 821 q 283 713 283 764 q 319 645 283 668 q 429 608 356 622 l 588 579 q 792 487 714 557 q 869 296 869 417 q 824 130 869 203 q 688 16 778 57 q 472 -25 599 -25 z "},"š":{"ha":707,"x_min":33,"x_max":663,"o":"m 228 767 l 81 978 l 282 978 l 319 919 q 351 861 338 892 q 383 919 361 883 l 419 978 l 622 978 l 469 767 l 228 767 m 360 -25 q 127 44 214 -25 q 33 232 40 114 l 236 232 q 271 149 239 179 q 360 118 303 118 q 436 139 407 118 q 465 193 465 160 q 443 236 465 221 q 372 261 421 251 l 276 281 q 57 492 57 325 q 94 600 57 551 q 197 676 131 649 q 349 704 263 704 q 572 640 489 704 q 658 468 654 575 l 458 468 q 424 535 454 510 q 347 561 394 561 q 278 545 306 561 q 251 499 251 529 q 273 458 251 474 q 349 433 294 443 l 440 414 q 663 204 663 371 q 625 85 663 138 q 519 4 588 33 q 360 -25 450 -25 z "},"Ţ":{"ha":874,"x_min":11,"x_max":861,"o":"m 546 0 l 504 0 l 454 -61 q 460 -61 457 -61 q 561 -92 522 -61 q 600 -175 600 -124 q 547 -274 600 -237 q 415 -310 493 -310 q 240 -243 307 -310 l 308 -167 q 399 -206 347 -206 q 446 -194 428 -206 q 464 -165 464 -182 q 451 -142 464 -151 q 417 -133 439 -133 q 372 -144 393 -133 l 313 -86 l 378 0 l 329 0 l 329 789 l 11 789 l 11 972 l 861 972 l 861 789 l 546 789 l 546 0 z "},"ţ":{"ha":551,"x_min":11,"x_max":522,"o":"m 522 524 l 358 524 l 358 257 q 382 175 358 203 q 458 147 406 147 q 507 151 483 147 l 507 -1 q 400 -14 464 -14 q 368 -12 378 -14 l 329 -61 q 335 -61 332 -61 q 436 -92 397 -61 q 475 -175 475 -124 q 422 -274 475 -237 q 290 -310 368 -310 q 115 -243 182 -310 l 183 -167 q 274 -206 222 -206 q 321 -194 303 -206 q 339 -165 339 -182 q 326 -142 339 -151 q 292 -133 314 -133 q 247 -144 268 -133 l 188 -86 l 264 14 q 158 229 158 68 l 158 524 l 11 524 l 11 681 l 158 681 l 158 922 l 358 922 l 358 681 l 522 681 l 522 524 z "},"Ť":{"ha":874,"x_min":11,"x_max":861,"o":"m 315 1058 l 168 1269 l 369 1269 l 407 1211 q 439 1153 425 1183 q 471 1211 449 1175 l 507 1269 l 710 1269 l 557 1058 l 315 1058 m 546 0 l 329 0 l 329 789 l 11 789 l 11 972 l 861 972 l 861 789 l 546 789 l 546 0 z "},"ť":{"ha":551,"x_min":11,"x_max":613,"o":"m 417 792 q 518 864 511 801 l 418 864 l 418 996 l 613 996 l 613 896 q 563 772 613 817 q 417 722 513 728 l 417 792 m 400 -14 q 158 229 158 -14 l 158 524 l 11 524 l 11 681 l 158 681 l 158 922 l 358 922 l 358 681 l 522 681 l 522 524 l 358 524 l 358 257 q 382 175 358 203 q 458 147 406 147 q 507 151 483 147 l 507 -1 q 400 -14 464 -14 z "},"Ŧ":{"ha":893,"x_min":22,"x_max":871,"o":"m 871 972 l 871 789 l 556 789 l 556 564 l 771 564 l 771 410 l 556 410 l 556 0 l 339 0 l 339 410 l 122 410 l 122 564 l 339 564 l 339 789 l 22 789 l 22 972 l 871 972 z "},"ŧ":{"ha":558,"x_min":17,"x_max":528,"o":"m 528 524 l 364 524 l 364 431 l 488 431 l 488 288 l 364 288 l 364 257 q 387 175 364 203 q 464 147 410 147 q 513 151 488 147 l 513 -1 q 406 -14 465 -14 q 164 229 164 -14 l 164 288 l 44 288 l 44 431 l 164 431 l 164 524 l 17 524 l 17 681 l 164 681 l 164 922 l 364 922 l 364 681 l 528 681 l 528 524 z "},"Ũ":{"ha":993,"x_min":89,"x_max":906,"o":"m 608 1074 q 551 1081 578 1074 q 490 1100 524 1088 q 421 1118 442 1118 q 381 1074 381 1118 l 226 1074 q 269 1217 226 1168 q 389 1267 311 1267 q 446 1260 419 1267 q 508 1239 472 1253 q 544 1226 526 1232 q 574 1221 561 1221 q 603 1232 594 1221 q 614 1268 613 1243 l 768 1268 q 608 1074 768 1074 m 496 -25 q 195 81 301 -25 q 89 381 89 186 l 89 972 l 306 972 l 306 413 q 353 222 306 285 q 497 158 400 158 q 689 413 689 158 l 689 972 l 906 972 l 906 381 q 798 81 906 188 q 496 -25 690 -25 z "},"ũ":{"ha":792,"x_min":72,"x_max":713,"o":"m 511 782 q 453 789 481 782 q 393 808 426 796 q 324 826 344 826 q 283 782 283 826 l 129 782 q 172 926 129 876 q 292 975 214 975 q 349 968 322 975 q 411 947 375 961 q 447 935 429 940 q 476 929 464 929 q 506 940 497 929 q 517 976 515 951 l 671 976 q 511 782 671 782 m 314 -25 q 140 47 208 -25 q 72 247 72 118 l 72 681 l 274 681 l 274 278 q 301 172 274 211 q 382 133 329 133 q 476 172 439 133 q 513 279 513 211 l 513 681 l 713 681 l 713 0 l 513 0 l 513 24 q 519 86 513 51 q 440 4 489 33 q 314 -25 390 -25 z "},"Ū":{"ha":993,"x_min":89,"x_max":906,"o":"m 747 1089 l 247 1089 l 247 1236 l 747 1236 l 747 1089 m 496 -25 q 195 81 301 -25 q 89 381 89 186 l 89 972 l 306 972 l 306 413 q 353 222 306 285 q 497 158 400 158 q 689 413 689 158 l 689 972 l 906 972 l 906 381 q 798 81 906 188 q 496 -25 690 -25 z "},"ū":{"ha":792,"x_min":72,"x_max":713,"o":"m 650 797 l 150 797 l 150 944 l 650 944 l 650 797 m 314 -25 q 140 47 208 -25 q 72 247 72 118 l 72 681 l 274 681 l 274 278 q 301 172 274 211 q 382 133 329 133 q 476 172 439 133 q 513 279 513 211 l 513 681 l 713 681 l 713 0 l 513 0 l 513 24 q 519 86 513 51 q 440 4 489 33 q 314 -25 390 -25 z "},"Ŭ":{"ha":993,"x_min":89,"x_max":906,"o":"m 496 1053 q 339 1109 392 1053 q 286 1265 286 1165 l 431 1265 q 496 1182 431 1182 q 544 1205 528 1182 q 561 1265 561 1228 l 706 1265 q 653 1109 706 1165 q 496 1053 600 1053 m 496 -25 q 195 81 301 -25 q 89 381 89 186 l 89 972 l 306 972 l 306 413 q 353 222 306 285 q 497 158 400 158 q 689 413 689 158 l 689 972 l 906 972 l 906 381 q 798 81 906 188 q 496 -25 690 -25 z "},"ŭ":{"ha":792,"x_min":72,"x_max":713,"o":"m 399 761 q 242 817 294 761 q 189 974 189 874 l 333 974 q 399 890 333 890 q 447 913 431 890 q 464 974 464 936 l 608 974 q 556 817 608 874 q 399 761 503 761 m 314 -25 q 140 47 208 -25 q 72 247 72 118 l 72 681 l 274 681 l 274 278 q 301 172 274 211 q 382 133 329 133 q 476 172 439 133 q 513 279 513 211 l 513 681 l 713 681 l 713 0 l 513 0 l 513 24 q 519 86 513 51 q 440 4 489 33 q 314 -25 390 -25 z "},"Ů":{"ha":993,"x_min":89,"x_max":906,"o":"m 497 1022 q 391 1060 432 1022 q 350 1160 350 1099 q 391 1258 350 1221 q 497 1296 432 1296 q 605 1258 564 1296 q 646 1160 646 1221 q 605 1060 646 1099 q 497 1022 564 1022 m 497 1117 q 526 1128 515 1117 q 538 1160 538 1140 q 526 1191 538 1179 q 497 1203 515 1203 q 469 1191 479 1203 q 458 1160 458 1179 q 469 1128 458 1140 q 497 1117 479 1117 m 496 -25 q 195 81 301 -25 q 89 381 89 186 l 89 972 l 306 972 l 306 413 q 353 222 306 285 q 497 158 400 158 q 689 413 689 158 l 689 972 l 906 972 l 906 381 q 798 81 906 188 q 496 -25 690 -25 z "},"ů":{"ha":792,"x_min":72,"x_max":713,"o":"m 400 731 q 294 769 335 731 q 253 868 253 807 q 294 967 253 929 q 400 1004 335 1004 q 508 967 467 1004 q 549 868 549 929 q 508 769 549 807 q 400 731 467 731 m 400 825 q 429 837 418 825 q 440 868 440 849 q 429 899 440 888 q 400 911 418 911 q 372 899 382 911 q 361 868 361 888 q 372 837 361 849 q 400 825 382 825 m 314 -25 q 140 47 208 -25 q 72 247 72 118 l 72 681 l 274 681 l 274 278 q 301 172 274 211 q 382 133 329 133 q 476 172 439 133 q 513 279 513 211 l 513 681 l 713 681 l 713 0 l 513 0 l 513 24 q 519 86 513 51 q 440 4 489 33 q 314 -25 390 -25 z "},"Ű":{"ha":993,"x_min":89,"x_max":906,"o":"m 422 1058 l 276 1058 l 342 1269 l 581 1269 l 422 1058 m 708 1058 l 558 1058 l 624 1269 l 865 1269 l 708 1058 m 496 -25 q 195 81 301 -25 q 89 381 89 186 l 89 972 l 306 972 l 306 413 q 353 222 306 285 q 497 158 400 158 q 689 413 689 158 l 689 972 l 906 972 l 906 381 q 798 81 906 188 q 496 -25 690 -25 z "},"ű":{"ha":792,"x_min":72,"x_max":768,"o":"m 325 767 l 179 767 l 244 978 l 483 978 l 325 767 m 611 767 l 461 767 l 526 978 l 768 978 l 611 767 m 314 -25 q 140 47 208 -25 q 72 247 72 118 l 72 681 l 274 681 l 274 278 q 301 172 274 211 q 382 133 329 133 q 476 172 439 133 q 513 279 513 211 l 513 681 l 713 681 l 713 0 l 513 0 l 513 24 q 519 86 513 51 q 440 4 489 33 q 314 -25 390 -25 z "},"Ų":{"ha":993,"x_min":89,"x_max":906,"o":"m 540 -282 q 413 -245 458 -282 q 368 -150 368 -208 q 440 -22 368 -65 q 179 99 269 -6 q 89 381 89 203 l 89 972 l 306 972 l 306 413 q 353 222 306 285 q 497 158 400 158 q 689 413 689 158 l 689 972 l 906 972 l 906 381 q 643 -6 906 81 q 565 -51 589 -25 q 542 -101 542 -76 q 556 -135 542 -122 q 592 -149 571 -149 q 663 -132 624 -149 l 663 -254 q 540 -282 614 -282 z "},"ų":{"ha":792,"x_min":72,"x_max":725,"o":"m 654 -149 q 725 -132 685 -149 l 725 -254 q 603 -282 676 -282 q 476 -244 521 -282 q 431 -143 431 -206 q 538 0 431 -56 l 513 0 l 513 24 q 519 86 513 51 q 440 4 489 33 q 314 -25 390 -25 q 140 47 208 -25 q 72 247 72 118 l 72 681 l 274 681 l 274 278 q 301 172 274 211 q 382 133 329 133 q 476 172 439 133 q 513 279 513 211 l 513 681 l 713 681 l 713 0 q 604 -106 604 -54 q 619 -137 604 -126 q 654 -149 633 -149 z "},"Ŵ":{"ha":1458,"x_min":14,"x_max":1446,"o":"m 464 1058 l 615 1269 l 857 1269 l 1006 1058 l 806 1058 l 769 1115 q 738 1176 744 1157 q 704 1115 731 1158 l 667 1058 l 464 1058 m 260 0 l 14 972 l 249 972 l 382 374 q 415 203 403 276 q 449 374 428 276 l 592 972 l 886 972 l 1018 374 q 1053 203 1043 260 q 1085 375 1067 297 l 1221 972 l 1446 972 l 1199 0 l 906 0 l 764 656 l 758 686 q 739 792 746 736 q 710 656 724 706 l 546 0 l 260 0 z "},"ŵ":{"ha":1143,"x_min":8,"x_max":1129,"o":"m 303 767 l 454 978 l 696 978 l 844 767 l 644 767 l 608 824 q 576 885 583 865 q 543 824 569 867 l 506 767 l 303 767 m 208 0 l 8 681 l 215 681 l 321 264 q 338 168 331 226 l 344 204 q 349 229 347 214 q 357 264 351 244 l 449 681 l 703 681 l 796 264 q 813 165 808 201 q 832 264 819 214 l 938 681 l 1129 681 l 936 0 l 693 0 l 593 417 q 578 514 582 481 q 560 417 575 485 l 463 0 l 208 0 z "},"Ŷ":{"ha":951,"x_min":-6,"x_max":957,"o":"m 208 1058 l 360 1269 l 601 1269 l 750 1058 l 550 1058 l 514 1115 q 482 1176 489 1157 q 449 1115 475 1158 l 411 1058 l 208 1058 m 367 0 l 367 386 l -6 972 l 254 972 l 426 668 q 479 567 460 611 q 532 668 508 628 l 707 972 l 957 972 l 585 388 l 585 0 l 367 0 z "},"ŷ":{"ha":728,"x_min":3,"x_max":725,"o":"m 100 767 l 251 978 l 493 978 l 642 767 l 442 767 l 406 824 q 374 885 381 865 q 340 824 367 867 l 303 767 l 100 767 m 163 -282 l 267 4 l 3 681 l 231 681 l 353 289 q 375 193 368 236 q 387 249 379 219 q 397 289 394 278 l 514 681 l 725 681 l 378 -282 l 163 -282 z "},"Ÿ":{"ha":951,"x_min":-6,"x_max":957,"o":"m 436 1067 l 240 1067 l 240 1257 l 436 1257 l 436 1067 m 719 1067 l 525 1067 l 525 1257 l 719 1257 l 719 1067 m 367 0 l 367 386 l -6 972 l 254 972 l 426 668 q 479 567 460 611 q 532 668 508 628 l 707 972 l 957 972 l 585 388 l 585 0 l 367 0 z "},"Ź":{"ha":889,"x_min":42,"x_max":853,"o":"m 526 1058 l 356 1058 l 464 1269 l 693 1269 l 526 1058 m 42 0 l 42 194 l 476 696 q 569 789 531 757 l 68 789 l 68 972 l 826 972 l 826 789 l 382 274 q 292 183 329 217 l 853 183 l 853 0 l 42 0 z "},"ź":{"ha":685,"x_min":42,"x_max":644,"o":"m 432 767 l 261 767 l 369 978 l 599 978 l 432 767 m 42 0 l 42 169 l 354 476 q 413 525 376 497 l 58 525 l 58 681 l 628 681 l 628 507 l 317 201 q 263 157 282 169 l 644 157 l 644 0 l 42 0 z "},"Ż":{"ha":889,"x_min":42,"x_max":853,"o":"m 556 1067 l 346 1067 l 346 1254 l 556 1254 l 556 1067 m 42 0 l 42 194 l 476 696 q 569 789 531 757 l 68 789 l 68 972 l 826 972 l 826 789 l 382 274 q 292 183 329 217 l 853 183 l 853 0 l 42 0 z "},"ż":{"ha":685,"x_min":42,"x_max":644,"o":"m 461 775 l 251 775 l 251 963 l 461 963 l 461 775 m 42 0 l 42 169 l 354 476 q 413 525 376 497 l 58 525 l 58 681 l 628 681 l 628 507 l 317 201 q 263 157 282 169 l 644 157 l 644 0 l 42 0 z "},"Ž":{"ha":889,"x_min":42,"x_max":853,"o":"m 331 1058 l 183 1269 l 385 1269 l 422 1211 q 454 1153 440 1183 q 486 1211 464 1175 l 522 1269 l 725 1269 l 572 1058 l 331 1058 m 42 0 l 42 194 l 476 696 q 569 789 531 757 l 68 789 l 68 972 l 826 972 l 826 789 l 382 274 q 292 183 329 217 l 853 183 l 853 0 l 42 0 z "},"ž":{"ha":685,"x_min":42,"x_max":644,"o":"m 236 767 l 89 978 l 290 978 l 328 919 q 360 861 346 892 q 392 919 369 883 l 428 978 l 631 978 l 478 767 l 236 767 m 42 0 l 42 169 l 354 476 q 413 525 376 497 l 58 525 l 58 681 l 628 681 l 628 507 l 317 201 q 263 157 282 169 l 644 157 l 644 0 l 42 0 z "},"ƒ":{"ha":757,"x_min":32,"x_max":717,"o":"m 639 828 q 526 728 543 828 l 508 618 l 717 618 l 717 468 l 482 468 l 414 64 q 323 -119 393 -60 q 144 -178 253 -178 q 32 -161 85 -178 l 32 6 q 110 -8 78 -8 q 221 88 204 -8 l 286 468 l 94 468 l 94 618 l 311 618 l 335 757 q 424 939 356 881 q 603 997 493 997 q 717 981 669 997 l 717 814 q 639 828 675 828 z "},"Ǽ":{"ha":1326,"x_min":-14,"x_max":1271,"o":"m 826 1269 l 1056 1269 l 889 1058 l 718 1058 l 826 1269 m 818 407 l 818 183 l 1271 183 l 1271 0 l 601 0 l 601 240 l 338 240 l 225 0 l -14 0 l 475 972 l 1249 972 l 1249 789 l 818 789 l 818 588 l 1228 588 l 1228 407 l 818 407 m 422 419 l 601 419 l 601 814 q 546 682 579 750 l 422 419 z "},"ǽ":{"ha":1219,"x_min":46,"x_max":1175,"o":"m 679 767 l 508 767 l 617 978 l 846 978 l 679 767 m 301 -25 q 117 33 189 -25 q 46 193 46 92 q 120 349 46 300 q 319 415 194 399 l 417 428 q 483 481 483 436 q 457 537 483 514 q 383 560 431 560 q 301 533 332 560 q 265 460 269 506 l 61 460 q 156 638 71 571 q 374 704 240 704 q 604 603 526 704 q 708 678 647 651 q 840 704 769 704 q 1019 658 943 704 q 1135 529 1094 613 q 1175 333 1175 446 l 1175 293 l 690 293 q 734 175 692 222 q 840 128 776 128 q 925 153 890 128 q 968 225 960 179 l 1171 225 q 1120 97 1163 154 q 1006 8 1078 40 q 842 -25 933 -25 q 682 11 751 -25 q 571 115 613 47 q 458 10 531 44 q 301 -25 386 -25 m 969 425 q 930 522 967 485 q 835 560 893 560 q 736 522 776 560 q 689 425 696 483 l 969 425 m 342 118 q 445 158 404 118 q 486 260 486 197 l 486 326 q 424 301 468 308 l 368 292 q 278 261 308 281 q 249 199 249 242 q 275 140 249 163 q 342 118 301 118 z "},"Ǿ":{"ha":1075,"x_min":49,"x_max":1025,"o":"m 547 1269 l 776 1269 l 610 1058 l 439 1058 l 547 1269 m 897 844 q 992 687 958 778 q 1025 486 1025 596 q 961 213 1025 328 q 786 36 897 97 q 535 -25 675 -25 q 294 29 399 -25 l 222 -68 l 99 18 l 175 121 q 81 280 114 188 q 49 486 49 372 q 111 758 49 642 q 284 935 174 874 q 535 997 394 997 q 781 938 669 997 l 857 1040 l 978 953 l 897 844 m 274 486 q 308 301 274 379 l 665 781 q 535 815 610 815 q 344 728 415 815 q 274 486 274 640 m 535 157 q 728 243 654 157 q 801 486 801 329 q 765 667 801 590 l 411 188 q 535 157 464 157 z "},"ǿ":{"ha":801,"x_min":43,"x_max":758,"o":"m 414 978 l 643 978 l 476 767 l 306 767 l 414 978 m 674 589 q 758 338 758 492 q 713 143 758 225 q 587 18 668 61 q 400 -25 506 -25 q 236 7 308 -25 l 169 -81 l 60 -3 l 128 86 q 43 338 43 182 q 88 532 43 449 q 215 660 133 615 q 400 704 296 704 q 567 669 490 704 l 635 758 l 742 681 l 674 589 m 247 338 q 256 257 247 293 l 464 532 q 400 546 436 546 q 289 491 331 546 q 247 338 247 436 m 400 131 q 513 185 471 131 q 554 338 554 240 q 544 419 554 385 l 338 144 q 400 131 365 131 z "},"Ș":{"ha":922,"x_min":35,"x_max":869,"o":"m 472 -25 q 160 72 276 -25 q 35 336 44 168 l 260 336 q 327 202 265 250 q 481 154 389 154 q 603 183 556 154 q 651 271 651 213 q 618 345 651 318 q 514 386 585 372 l 349 417 q 144 510 222 440 q 67 696 67 581 q 117 853 67 785 q 257 960 168 922 q 457 997 346 997 q 746 909 642 997 q 860 672 850 821 l 635 672 q 584 780 631 739 q 447 821 538 821 q 329 792 375 821 q 283 713 283 764 q 319 645 283 668 q 429 608 356 622 l 588 579 q 792 487 714 557 q 869 296 869 417 q 824 130 869 203 q 688 16 778 57 q 472 -25 599 -25 m 368 -367 q 445 -342 424 -364 q 467 -274 467 -321 l 367 -274 l 367 -101 l 574 -101 l 574 -260 q 518 -412 574 -368 q 368 -458 463 -457 l 368 -367 z "},"ș":{"ha":707,"x_min":33,"x_max":663,"o":"m 360 -25 q 127 44 214 -25 q 33 232 40 114 l 236 232 q 271 149 239 179 q 360 118 303 118 q 436 139 407 118 q 465 193 465 160 q 443 236 465 221 q 372 261 421 251 l 276 281 q 57 492 57 325 q 94 600 57 551 q 197 676 131 649 q 349 704 263 704 q 572 640 489 704 q 658 468 654 575 l 458 468 q 424 535 454 510 q 347 561 394 561 q 278 545 306 561 q 251 499 251 529 q 273 458 251 474 q 349 433 294 443 l 440 414 q 663 204 663 371 q 625 85 663 138 q 519 4 588 33 q 360 -25 450 -25 m 261 -367 q 338 -342 317 -364 q 360 -274 360 -321 l 260 -274 l 260 -101 l 467 -101 l 467 -260 q 411 -412 467 -368 q 261 -458 356 -457 l 261 -367 z "},"Ț":{"ha":874,"x_min":11,"x_max":861,"o":"m 546 0 l 329 0 l 329 789 l 11 789 l 11 972 l 861 972 l 861 789 l 546 789 l 546 0 m 333 -367 q 410 -342 389 -364 q 432 -274 432 -321 l 332 -274 l 332 -101 l 539 -101 l 539 -260 q 483 -412 539 -368 q 333 -458 428 -457 l 333 -367 z "},"ț":{"ha":551,"x_min":11,"x_max":522,"o":"m 400 -14 q 158 229 158 -14 l 158 524 l 11 524 l 11 681 l 158 681 l 158 922 l 358 922 l 358 681 l 522 681 l 522 524 l 358 524 l 358 257 q 382 175 358 203 q 458 147 406 147 q 507 151 483 147 l 507 -1 q 400 -14 464 -14 m 208 -367 q 285 -342 264 -364 q 307 -274 307 -321 l 207 -274 l 207 -101 l 414 -101 l 414 -260 q 358 -412 414 -368 q 208 -458 303 -457 l 208 -367 z "},"Ȧ":{"ha":1017,"x_min":-7,"x_max":1024,"o":"m 406 1254 l 615 1254 l 615 1067 l 406 1067 l 406 1254 m 1024 0 l 785 0 l 700 242 l 310 242 l 224 0 l -7 0 l 378 972 l 639 972 l 1024 0 m 374 421 l 636 421 l 543 685 q 506 801 514 771 q 467 685 499 775 l 374 421 z "},"ȧ":{"ha":750,"x_min":46,"x_max":679,"o":"m 482 775 l 272 775 l 272 963 l 482 963 l 482 775 m 281 -25 q 165 1 219 -25 q 78 76 111 26 q 46 192 46 125 q 118 349 46 297 q 314 415 190 400 l 411 426 q 467 445 450 432 q 483 482 483 458 q 457 538 483 515 q 385 560 431 560 q 302 533 333 560 q 265 460 271 507 l 61 460 q 107 586 67 531 q 217 673 147 642 q 378 704 288 704 q 606 627 533 704 q 679 401 679 550 l 679 0 l 493 0 l 493 25 q 499 88 493 60 q 416 5 471 35 q 281 -25 361 -25 m 343 118 q 447 158 406 118 q 488 263 488 199 l 488 326 q 411 299 471 311 l 364 290 q 278 259 308 281 q 249 201 249 238 q 275 140 249 163 q 343 118 301 118 z "},"Ȳ":{"ha":951,"x_min":-6,"x_max":957,"o":"m 731 1089 l 231 1089 l 231 1236 l 731 1236 l 731 1089 m 367 0 l 367 386 l -6 972 l 254 972 l 426 668 q 479 567 460 611 q 532 668 508 628 l 707 972 l 957 972 l 585 388 l 585 0 l 367 0 z "},"ȳ":{"ha":728,"x_min":3,"x_max":725,"o":"m 624 797 l 124 797 l 124 944 l 624 944 l 624 797 m 163 -282 l 267 4 l 3 681 l 231 681 l 353 289 q 375 193 368 236 q 387 249 379 219 q 397 289 394 278 l 514 681 l 725 681 l 378 -282 l 163 -282 z "},"ȷ":{"ha":361,"x_min":-46,"x_max":283,"o":"m 283 681 l 283 -83 q 225 -244 283 -182 q 47 -307 167 -307 q -6 -303 21 -307 q -46 -293 -32 -299 l -46 -139 q -14 -143 -37 -143 q 58 -121 33 -143 q 82 -46 82 -99 l 82 681 l 283 681 z "},"ˆ":{"ha":671,"x_min":306,"x_max":847,"o":"m 306 767 l 457 978 l 700 978 l 847 767 l 647 767 l 613 824 q 579 885 588 861 q 563 850 574 869 q 547 824 551 831 l 510 767 l 306 767 z "},"ˇ":{"ha":671,"x_min":76,"x_max":618,"o":"m 224 767 l 76 978 l 278 978 l 315 919 q 347 861 333 892 q 379 919 357 883 l 415 978 l 618 978 l 465 767 l 224 767 z "},"˘":{"ha":547,"x_min":257,"x_max":676,"o":"m 465 761 q 310 817 363 761 q 257 974 257 874 l 401 974 q 465 890 401 890 q 515 913 499 890 q 532 974 532 936 l 676 974 q 623 817 676 874 q 465 761 569 761 z "},"˙":{"ha":340,"x_min":76,"x_max":286,"o":"m 286 775 l 76 775 l 76 963 l 286 963 l 286 775 z "},"˚":{"ha":426,"x_min":76,"x_max":374,"o":"m 225 731 q 117 769 158 731 q 76 868 76 807 q 117 967 76 929 q 225 1004 158 1004 q 332 966 290 1004 q 374 868 374 928 q 332 769 374 807 q 225 731 290 731 m 225 825 q 253 837 243 825 q 264 868 264 849 q 253 899 264 888 q 225 911 243 911 q 196 899 207 911 q 185 868 185 888 q 196 837 185 849 q 225 825 207 825 z "},"˛":{"ha":425,"x_min":76,"x_max":371,"o":"m 249 -282 q 122 -244 167 -282 q 76 -143 76 -206 q 268 33 76 -25 l 358 0 q 250 -106 250 -54 q 265 -137 250 -126 q 300 -149 279 -149 q 371 -132 332 -149 l 371 -254 q 249 -282 322 -282 z "},"˜":{"ha":671,"x_min":300,"x_max":842,"o":"m 682 782 q 624 789 651 782 q 564 808 597 796 q 494 826 515 826 q 454 782 454 826 l 300 782 q 342 926 300 876 q 463 975 385 975 q 519 968 493 975 q 582 947 546 961 q 617 935 600 940 q 647 929 635 929 q 688 976 688 929 l 842 976 q 682 782 842 782 z "},"˝":{"ha":718,"x_min":76,"x_max":665,"o":"m 222 767 l 76 767 l 142 978 l 381 978 l 222 767 m 508 767 l 357 767 l 422 978 l 665 978 l 508 767 z "},"Δ":{"ha":951,"x_min":35,"x_max":915,"o":"m 915 0 l 35 0 l 35 176 l 379 972 l 572 972 l 915 176 l 915 0 m 231 178 l 715 178 l 514 651 q 474 760 485 715 q 433 651 463 721 l 231 178 z "},"Ω":{"ha":1082,"x_min":57,"x_max":1025,"o":"m 96 0 l 96 168 l 168 168 q 256 160 211 168 q 108 313 158 217 q 57 524 57 408 q 120 773 57 665 q 294 939 183 881 q 542 997 404 997 q 790 939 679 997 q 963 773 900 881 q 1025 524 1025 665 q 971 310 1025 408 q 825 160 917 211 q 911 168 867 168 l 983 168 l 983 0 l 590 0 l 590 168 q 747 270 692 182 q 803 499 803 358 q 732 733 803 649 q 540 817 661 817 q 350 732 421 817 q 279 499 279 647 q 334 270 279 358 q 490 168 389 182 l 490 0 l 96 0 z "},"μ":{"ha":818,"x_min":89,"x_max":729,"o":"m 89 -282 l 89 681 l 290 681 l 290 278 q 318 172 290 211 q 400 133 346 133 q 493 173 457 133 q 529 279 529 213 l 529 681 l 729 681 l 729 0 l 529 0 l 529 24 q 533 86 529 57 q 365 -25 481 -25 q 286 -1 321 -25 q 290 -64 290 -19 l 290 -282 l 89 -282 z "},"π":{"ha":875,"x_min":36,"x_max":826,"o":"m 728 -22 q 483 222 483 -22 l 483 525 l 335 525 l 335 0 l 135 0 l 135 525 l 36 525 l 36 681 l 826 681 l 826 525 l 678 525 l 678 251 q 701 167 678 194 q 781 140 725 140 q 826 146 810 140 l 826 -10 q 728 -22 789 -22 z "},"฿":{"ha":871,"x_min":100,"x_max":825,"o":"m 825 281 q 741 84 825 151 q 511 3 657 17 l 511 -153 l 360 -153 l 360 0 l 100 0 l 100 972 l 360 972 l 360 1124 l 511 1124 l 511 971 q 719 901 643 961 q 796 725 796 840 q 744 588 796 642 q 611 511 693 533 q 765 431 706 492 q 825 281 825 371 m 360 799 l 301 799 l 301 586 l 360 586 l 360 799 m 583 696 q 511 790 583 771 l 511 594 q 583 696 583 615 m 301 417 l 301 175 l 360 175 l 360 417 l 301 417 m 511 181 q 611 300 611 203 q 587 377 611 350 q 511 413 563 404 l 511 181 z "},"Ẁ":{"ha":1458,"x_min":14,"x_max":1446,"o":"m 846 1058 l 671 1058 l 508 1269 l 747 1269 l 846 1058 m 260 0 l 14 972 l 249 972 l 382 374 q 415 203 403 276 q 449 374 428 276 l 592 972 l 886 972 l 1018 374 q 1053 203 1043 260 q 1085 375 1067 297 l 1221 972 l 1446 972 l 1199 0 l 906 0 l 764 656 l 758 686 q 739 792 746 736 q 710 656 724 706 l 546 0 l 260 0 z "},"ẁ":{"ha":1143,"x_min":8,"x_max":1129,"o":"m 685 767 l 510 767 l 347 978 l 586 978 l 685 767 m 208 0 l 8 681 l 215 681 l 321 264 q 338 168 331 226 l 344 204 q 349 229 347 214 q 357 264 351 244 l 449 681 l 703 681 l 796 264 q 813 165 808 201 q 832 264 819 214 l 938 681 l 1129 681 l 936 0 l 693 0 l 593 417 q 578 514 582 481 q 560 417 575 485 l 463 0 l 208 0 z "},"Ẃ":{"ha":1458,"x_min":14,"x_max":1446,"o":"m 813 1058 l 642 1058 l 750 1269 l 979 1269 l 813 1058 m 260 0 l 14 972 l 249 972 l 382 374 q 415 203 403 276 q 449 374 428 276 l 592 972 l 886 972 l 1018 374 q 1053 203 1043 260 q 1085 375 1067 297 l 1221 972 l 1446 972 l 1199 0 l 906 0 l 764 656 l 758 686 q 739 792 746 736 q 710 656 724 706 l 546 0 l 260 0 z "},"ẃ":{"ha":1143,"x_min":8,"x_max":1129,"o":"m 651 767 l 481 767 l 589 978 l 818 978 l 651 767 m 208 0 l 8 681 l 215 681 l 321 264 q 338 168 331 226 l 344 204 q 349 229 347 214 q 357 264 351 244 l 449 681 l 703 681 l 796 264 q 813 165 808 201 q 832 264 819 214 l 938 681 l 1129 681 l 936 0 l 693 0 l 593 417 q 578 514 582 481 q 560 417 575 485 l 463 0 l 208 0 z "},"Ẅ":{"ha":1458,"x_min":14,"x_max":1446,"o":"m 692 1067 l 496 1067 l 496 1257 l 692 1257 l 692 1067 m 975 1067 l 781 1067 l 781 1257 l 975 1257 l 975 1067 m 260 0 l 14 972 l 249 972 l 382 374 q 415 203 403 276 q 449 374 428 276 l 592 972 l 886 972 l 1018 374 q 1053 203 1043 260 q 1085 375 1067 297 l 1221 972 l 1446 972 l 1199 0 l 906 0 l 764 656 l 758 686 q 739 792 746 736 q 710 656 724 706 l 546 0 l 260 0 z "},"ẅ":{"ha":1143,"x_min":8,"x_max":1129,"o":"m 531 775 l 335 775 l 335 965 l 531 965 l 531 775 m 814 775 l 619 775 l 619 965 l 814 965 l 814 775 m 208 0 l 8 681 l 215 681 l 321 264 q 338 168 331 226 l 344 204 q 349 229 347 214 q 357 264 351 244 l 449 681 l 703 681 l 796 264 q 813 165 808 201 q 832 264 819 214 l 938 681 l 1129 681 l 936 0 l 693 0 l 593 417 q 578 514 582 481 q 560 417 575 485 l 463 0 l 208 0 z "},"ẞ":{"ha":953,"x_min":99,"x_max":903,"o":"m 550 -18 q 403 -1 472 -18 l 403 179 q 518 165 454 165 q 637 196 592 165 q 682 286 682 226 q 518 401 682 401 l 421 401 l 421 574 l 507 574 q 629 603 588 574 q 671 683 671 633 q 510 792 671 792 l 313 792 l 313 0 l 99 0 l 99 972 l 533 972 q 794 899 708 972 q 881 715 881 826 q 826 575 881 633 q 699 492 772 517 q 847 410 790 469 q 903 258 903 351 q 810 56 903 131 q 550 -18 717 -18 z "},"Ỳ":{"ha":951,"x_min":-6,"x_max":957,"o":"m 590 1058 l 415 1058 l 253 1269 l 492 1269 l 590 1058 m 367 0 l 367 386 l -6 972 l 254 972 l 426 668 q 479 567 460 611 q 532 668 508 628 l 707 972 l 957 972 l 585 388 l 585 0 l 367 0 z "},"ỳ":{"ha":728,"x_min":3,"x_max":725,"o":"m 482 767 l 307 767 l 144 978 l 383 978 l 482 767 m 163 -282 l 267 4 l 3 681 l 231 681 l 353 289 q 375 193 368 236 q 387 249 379 219 q 397 289 394 278 l 514 681 l 725 681 l 378 -282 l 163 -282 z "}," ":{"ha":653,"x_min":0,"x_max":0,"o":""}," ":{"ha":1303,"x_min":0,"x_max":0,"o":""}," ":{"ha":164,"x_min":0,"x_max":0,"o":""}," ":{"ha":56,"x_min":0,"x_max":0,"o":""},"–":{"ha":756,"x_min":69,"x_max":685,"o":"m 685 243 l 69 243 l 69 438 l 685 438 l 685 243 z "},"—":{"ha":1136,"x_min":69,"x_max":1065,"o":"m 1065 243 l 69 243 l 69 438 l 1065 438 l 1065 243 z "},"―":{"ha":1136,"x_min":69,"x_max":1065,"o":"m 1065 243 l 69 243 l 69 438 l 1065 438 l 1065 243 z "},"‘":{"ha":363,"x_min":63,"x_max":293,"o":"m 292 879 q 215 842 246 869 q 185 765 185 814 l 185 742 l 293 742 l 293 522 l 63 522 l 63 735 q 126 917 63 857 q 292 986 189 978 l 292 879 z "},"’":{"ha":353,"x_min":71,"x_max":301,"o":"m 72 615 q 149 653 118 625 q 181 731 181 682 l 181 753 l 71 753 l 71 972 l 301 972 l 301 760 q 238 577 301 638 q 72 510 175 517 l 72 615 z "},"‚":{"ha":371,"x_min":69,"x_max":300,"o":"m 71 -137 q 148 -99 117 -128 q 179 -22 179 -71 l 179 0 l 69 0 l 69 219 l 300 219 l 300 7 q 237 -176 300 -115 q 71 -243 174 -236 l 71 -137 z "},"“":{"ha":665,"x_min":61,"x_max":596,"o":"m 290 879 q 214 842 244 869 q 183 765 183 814 l 183 742 l 292 742 l 292 522 l 61 522 l 61 735 q 124 917 61 857 q 290 986 188 978 l 290 879 m 594 879 q 518 842 549 869 q 488 765 488 814 l 488 742 l 596 742 l 596 522 l 365 522 l 365 735 q 428 917 365 857 q 594 986 492 978 l 594 879 z "},"”":{"ha":657,"x_min":71,"x_max":606,"o":"m 72 615 q 149 653 118 625 q 181 731 181 682 l 181 753 l 71 753 l 71 972 l 301 972 l 301 760 q 238 577 301 638 q 72 510 175 517 l 72 615 m 376 615 q 453 653 422 625 q 485 731 485 682 l 485 753 l 375 753 l 375 972 l 606 972 l 606 760 q 542 577 606 638 q 376 510 479 517 l 376 615 z "},"„":{"ha":674,"x_min":69,"x_max":604,"o":"m 71 -137 q 148 -99 117 -128 q 179 -22 179 -71 l 179 0 l 69 0 l 69 219 l 300 219 l 300 7 q 237 -176 300 -115 q 71 -243 174 -236 l 71 -137 m 375 -137 q 452 -99 421 -128 q 483 -22 483 -71 l 483 0 l 374 0 l 374 219 l 604 219 l 604 7 q 541 -176 604 -115 q 375 -243 478 -236 l 375 -137 z "},"†":{"ha":679,"x_min":38,"x_max":642,"o":"m 436 0 l 243 0 l 243 565 l 38 565 l 38 738 l 243 738 l 243 972 l 436 972 l 436 738 l 642 738 l 642 565 l 436 565 l 436 0 z "},"‡":{"ha":724,"x_min":60,"x_max":664,"o":"m 664 738 l 664 565 l 458 565 l 458 401 l 664 401 l 664 228 l 458 228 l 458 0 l 264 0 l 264 228 l 60 228 l 60 401 l 264 401 l 264 565 l 60 565 l 60 738 l 264 738 l 264 972 l 458 972 l 458 738 l 664 738 z "},"•":{"ha":697,"x_min":79,"x_max":619,"o":"m 349 131 q 213 167 275 131 q 115 264 151 203 q 79 399 79 325 q 115 535 79 474 q 213 633 151 597 q 349 669 275 669 q 485 633 422 669 q 583 535 547 597 q 619 399 619 474 q 583 264 619 325 q 485 167 547 203 q 349 131 422 131 z "},"…":{"ha":1079,"x_min":69,"x_max":1011,"o":"m 303 0 l 69 0 l 69 233 l 303 233 l 303 0 m 657 0 l 424 0 l 424 233 l 657 233 l 657 0 m 1011 0 l 776 0 l 776 233 l 1011 233 l 1011 0 z "},"‰":{"ha":1401,"x_min":32,"x_max":1369,"o":"m 497 749 q 433 578 497 643 q 265 513 368 513 q 97 578 163 513 q 32 749 32 643 q 97 923 32 857 q 265 989 161 989 q 433 923 368 989 q 497 749 497 857 m 108 0 l 799 972 l 974 972 l 283 0 l 108 0 m 183 750 q 206 669 183 700 q 265 638 228 638 q 324 669 301 638 q 346 750 346 700 q 324 832 346 800 q 265 864 301 864 q 206 832 228 864 q 183 750 183 800 m 1144 463 q 1307 396 1244 463 q 1369 222 1369 329 q 1306 51 1369 117 q 1144 -15 1243 -15 q 1049 5 1092 -15 q 976 63 1006 25 q 904 5 947 25 q 808 -15 861 -15 q 648 51 710 -15 q 586 222 586 117 q 649 396 586 329 q 810 463 711 463 q 906 442 863 463 q 978 385 949 422 q 1049 442 1007 422 q 1144 463 1092 463 m 819 110 q 878 142 856 110 q 900 224 900 174 q 878 305 900 274 q 819 336 856 336 q 760 305 782 336 q 738 224 738 274 q 760 142 738 174 q 819 110 782 110 m 1136 110 q 1195 142 1172 110 q 1218 224 1218 174 q 1195 304 1218 272 q 1136 336 1172 336 q 1078 305 1100 336 q 1056 224 1056 274 q 1078 142 1056 174 q 1136 110 1100 110 z "},"‹":{"ha":418,"x_min":51,"x_max":351,"o":"m 351 6 l 51 232 l 51 467 l 351 694 l 351 465 l 244 390 q 179 350 204 363 q 244 310 214 333 l 351 236 l 351 6 z "},"›":{"ha":418,"x_min":64,"x_max":365,"o":"m 64 697 l 365 471 l 365 235 l 64 7 l 64 236 l 172 311 l 236 353 q 172 392 214 363 l 64 467 l 64 697 z "},"⁄":{"ha":301,"x_min":-287,"x_max":588,"o":"m -108 0 l -287 0 l 408 972 l 588 972 l -108 0 z "},"⁰":{"ha":622,"x_min":42,"x_max":582,"o":"m 311 456 q 114 544 186 456 q 42 789 42 633 q 115 1040 42 947 q 311 1132 188 1132 q 454 1090 393 1132 q 549 971 515 1049 q 582 789 582 893 q 509 544 582 633 q 311 456 436 456 m 314 589 q 394 641 364 589 q 424 789 424 693 q 394 945 424 889 q 314 1001 365 1001 q 230 945 261 1001 q 199 789 199 889 q 230 641 199 693 q 314 589 261 589 z "},"⁴":{"ha":635,"x_min":29,"x_max":607,"o":"m 492 474 l 335 474 l 335 618 l 29 618 l 29 743 l 292 1114 l 492 1114 l 492 738 l 607 738 l 607 618 l 492 618 l 492 474 m 335 738 l 335 961 q 308 919 319 933 l 210 781 q 174 738 190 753 l 335 738 z "},"⁵":{"ha":579,"x_min":35,"x_max":543,"o":"m 289 456 q 104 513 172 456 q 35 664 36 571 l 196 664 q 221 608 197 631 q 283 586 244 586 q 356 613 329 586 q 383 686 383 639 q 358 756 383 728 q 290 783 333 783 q 210 749 236 783 l 44 749 l 101 1114 l 508 1114 l 508 972 l 213 972 l 200 892 q 190 846 194 858 q 336 904 246 904 q 485 847 426 904 q 543 685 543 789 q 471 517 543 579 q 289 456 399 456 z "},"⁶":{"ha":608,"x_min":43,"x_max":569,"o":"m 324 456 q 117 542 190 456 q 43 792 43 629 q 119 1042 43 953 q 328 1132 196 1132 q 490 1078 431 1132 q 558 936 550 1024 l 397 936 q 372 986 390 971 q 324 1001 354 1001 q 247 965 274 1001 q 211 854 219 929 q 208 835 210 843 q 204 818 206 826 q 357 890 261 890 q 508 836 447 890 q 569 688 569 782 q 538 569 569 622 q 449 485 506 515 q 324 456 393 456 m 318 586 q 387 611 361 586 q 413 676 413 636 q 387 740 413 715 q 318 765 361 765 q 249 740 274 765 q 224 675 224 715 q 249 610 224 635 q 318 586 274 586 z "},"⁷":{"ha":558,"x_min":26,"x_max":536,"o":"m 121 474 q 157 674 124 574 q 249 853 190 775 q 381 967 307 932 l 26 967 l 26 1114 l 536 1114 l 536 992 q 426 859 471 925 q 353 699 382 793 q 318 474 324 604 l 121 474 z "},"⁸":{"ha":600,"x_min":42,"x_max":558,"o":"m 297 456 q 108 508 174 456 q 42 639 42 561 q 75 741 42 701 q 172 806 108 781 q 85 863 115 825 q 56 950 56 901 q 122 1083 56 1033 q 300 1132 189 1132 q 477 1082 410 1132 q 544 954 544 1032 q 514 860 544 900 q 426 806 483 821 q 524 744 490 785 q 558 647 558 703 q 490 510 558 564 q 297 456 421 456 m 301 857 q 364 877 340 857 q 388 931 388 897 q 365 981 388 963 q 301 1000 342 1000 q 236 981 260 1000 q 213 931 213 963 q 237 877 213 897 q 301 857 261 857 m 300 589 q 374 610 347 589 q 401 668 401 632 q 374 728 401 706 q 300 750 347 750 q 226 727 254 750 q 199 668 199 704 q 226 610 199 632 q 300 589 254 589 z "},"⁹":{"ha":599,"x_min":42,"x_max":557,"o":"m 278 456 q 117 507 182 456 q 46 658 51 558 l 204 658 q 289 581 210 581 q 367 618 343 581 q 400 736 390 656 q 406 768 403 757 q 261 694 354 694 q 104 751 167 694 q 42 906 42 808 q 76 1022 42 969 q 166 1103 110 1074 q 289 1132 222 1132 q 485 1043 413 1132 q 557 796 557 954 q 485 543 557 631 q 278 456 413 456 m 289 822 q 353 848 328 822 q 379 914 379 874 q 354 978 379 953 q 289 1003 329 1003 q 225 978 250 1003 q 200 914 200 954 q 225 848 200 874 q 289 822 250 822 z "},"₀":{"ha":611,"x_min":43,"x_max":569,"o":"m 306 -156 q 114 -69 185 -156 q 43 169 43 18 q 76 346 43 271 q 167 462 108 421 q 306 503 226 503 q 444 462 385 503 q 537 346 504 421 q 569 169 569 271 q 498 -69 569 18 q 306 -156 426 -156 m 308 -26 q 386 24 357 -26 q 415 169 415 75 q 387 321 415 267 q 308 375 358 375 q 227 321 257 375 q 197 169 197 267 q 227 24 197 75 q 308 -26 257 -26 z "},"₁":{"ha":417,"x_min":28,"x_max":349,"o":"m 192 224 q 196 301 192 274 q 126 245 172 267 q 33 224 81 224 q 28 224 31 224 l 28 364 q 148 408 97 372 q 207 499 199 443 l 349 499 l 349 -142 l 192 -142 l 192 224 z "},"₂":{"ha":565,"x_min":40,"x_max":519,"o":"m 40 -142 q 79 28 42 -39 q 193 143 117 96 l 290 204 q 347 255 331 231 q 363 315 363 279 q 342 368 363 349 q 290 388 322 388 q 228 360 250 388 q 204 289 207 333 l 40 289 q 72 401 43 349 q 156 485 100 453 q 292 517 213 517 q 462 458 404 517 q 519 315 519 399 q 374 103 519 186 l 299 56 q 239 -3 249 25 l 514 -3 l 514 -142 l 40 -142 z "},"₃":{"ha":590,"x_min":26,"x_max":540,"o":"m 283 -160 q 99 -98 171 -160 q 26 75 26 -36 q 26 79 26 76 l 183 79 q 211 -2 185 25 q 283 -29 238 -29 q 355 -9 326 -29 q 383 50 383 11 q 283 126 383 126 l 238 126 l 238 250 l 292 250 q 348 267 326 250 q 369 314 369 283 q 348 368 369 349 q 288 388 326 388 q 223 363 244 388 q 199 304 201 339 l 36 304 q 108 458 38 400 q 290 517 179 517 q 459 463 393 517 q 525 326 525 410 q 496 240 525 276 q 415 186 467 203 q 508 132 475 171 q 540 36 540 93 q 510 -62 540 -17 q 423 -133 481 -107 q 283 -160 365 -160 z "},"₄":{"ha":633,"x_min":28,"x_max":606,"o":"m 490 -142 l 333 -142 l 333 3 l 28 3 l 28 128 l 290 499 l 490 499 l 490 122 l 606 122 l 606 3 l 490 3 l 490 -142 m 333 122 l 333 346 q 307 304 318 318 l 208 165 q 172 122 189 138 l 333 122 z "},"₅":{"ha":579,"x_min":35,"x_max":543,"o":"m 289 -160 q 104 -102 172 -160 q 35 49 36 -44 l 196 49 q 221 -7 197 15 q 283 -29 244 -29 q 356 -3 329 -29 q 383 71 383 24 q 358 140 383 113 q 290 168 333 168 q 210 133 236 168 l 44 133 l 101 499 l 508 499 l 508 357 l 213 357 l 200 276 q 190 231 194 243 q 336 289 246 289 q 485 231 426 289 q 543 69 543 174 q 471 -98 543 -36 q 289 -160 399 -160 z "},"₆":{"ha":608,"x_min":43,"x_max":569,"o":"m 324 -160 q 117 -73 190 -160 q 43 176 43 14 q 120 427 43 338 q 329 517 197 517 q 492 463 432 517 q 558 321 551 408 l 399 321 q 374 371 392 356 q 324 386 356 386 q 247 351 274 386 q 211 239 221 315 l 204 203 q 358 275 261 275 q 508 221 447 275 q 569 72 569 167 q 538 -47 569 7 q 449 -130 506 -100 q 324 -160 393 -160 m 318 -29 q 388 -5 363 -29 q 413 61 413 19 q 388 125 413 100 q 318 150 363 150 q 249 125 275 150 q 224 60 224 100 q 249 -5 224 19 q 318 -29 275 -29 z "},"₇":{"ha":558,"x_min":25,"x_max":536,"o":"m 119 -142 q 157 59 124 -42 q 248 238 190 160 q 379 351 306 317 l 25 351 l 25 499 l 536 499 l 536 376 q 426 244 471 310 q 353 83 382 178 q 318 -142 324 -11 l 119 -142 z "},"₈":{"ha":600,"x_min":42,"x_max":558,"o":"m 297 -160 q 108 -107 174 -160 q 42 24 42 -54 q 75 126 42 86 q 172 190 108 165 q 85 248 115 210 q 56 335 56 286 q 122 467 56 418 q 300 517 189 517 q 477 467 410 517 q 544 339 544 417 q 514 245 544 285 q 426 190 483 206 q 524 128 490 169 q 558 32 558 88 q 490 -106 558 -51 q 297 -160 421 -160 m 301 242 q 364 262 340 242 q 388 315 388 282 q 365 366 388 347 q 301 385 342 385 q 236 366 260 385 q 213 315 213 347 q 237 262 213 282 q 301 242 261 242 m 300 -26 q 374 -5 347 -26 q 401 53 401 17 q 374 113 401 90 q 300 135 347 135 q 226 112 254 135 q 199 53 199 89 q 226 -5 199 17 q 300 -26 254 -26 z "},"₉":{"ha":600,"x_min":42,"x_max":557,"o":"m 278 -160 q 117 -108 182 -160 q 46 43 51 -57 l 204 43 q 289 -35 210 -35 q 367 3 343 -35 q 400 121 390 40 q 406 153 403 142 q 261 79 354 79 q 104 136 167 79 q 42 290 42 193 q 76 406 42 354 q 166 488 110 458 q 289 517 222 517 q 485 428 413 517 q 557 181 557 339 q 485 -72 557 15 q 278 -160 413 -160 m 289 207 q 353 233 328 207 q 379 299 379 258 q 354 363 379 338 q 289 388 329 388 q 225 363 250 388 q 200 299 200 339 q 225 233 200 258 q 289 207 250 207 z "},"₦":{"ha":867,"x_min":21,"x_max":846,"o":"m 751 549 l 846 549 l 846 419 l 751 419 l 751 0 l 494 0 l 379 419 l 282 419 l 285 0 l 114 0 l 114 419 l 21 419 l 21 549 l 114 549 l 114 972 l 378 972 l 494 549 l 585 549 l 582 972 l 751 972 l 751 549 m 282 549 l 343 549 l 275 794 q 281 671 281 735 l 282 549 m 586 419 l 529 419 l 592 192 q 586 321 586 235 l 586 419 z "},"₩":{"ha":1588,"x_min":56,"x_max":1532,"o":"m 1532 665 l 1532 539 l 1378 539 l 1357 453 l 1532 453 l 1532 325 l 1325 325 l 1244 0 l 963 0 l 893 325 l 699 325 l 619 0 l 342 0 l 261 325 l 56 325 l 56 453 l 229 453 l 208 539 l 56 539 l 56 665 l 176 665 l 100 972 l 324 972 l 389 665 l 593 665 l 665 972 l 932 972 l 1000 665 l 1201 665 l 1268 972 l 1486 972 l 1410 665 l 1532 665 m 800 774 q 781 665 794 729 l 821 665 q 806 742 817 682 q 800 774 803 764 m 564 539 l 415 539 l 433 453 l 543 453 l 564 539 m 750 539 l 729 453 l 867 453 l 847 539 l 750 539 m 1047 453 l 1156 453 l 1174 539 l 1028 539 l 1047 453 m 488 172 q 514 325 501 264 l 460 325 q 488 172 468 285 m 1129 325 l 1075 325 q 1103 169 1092 244 l 1129 325 z "},"₪":{"ha":938,"x_min":71,"x_max":869,"o":"m 71 0 l 71 972 l 382 972 q 651 701 651 972 l 651 213 l 501 213 l 501 700 q 492 773 501 747 q 457 809 482 799 q 385 819 432 819 l 228 819 l 228 0 l 71 0 m 289 0 l 289 760 l 439 760 l 439 153 l 604 153 q 691 178 669 153 q 713 272 713 203 l 713 972 l 869 972 l 869 271 q 603 0 869 0 l 289 0 z "},"€":{"ha":918,"x_min":49,"x_max":876,"o":"m 876 339 q 768 72 864 169 q 515 -25 672 -25 q 274 63 369 -25 q 146 313 178 150 l 49 313 l 49 451 l 129 451 l 129 517 l 49 517 l 49 657 l 146 657 q 281 908 181 819 q 526 997 382 997 q 700 953 625 997 q 819 831 775 910 q 868 649 863 753 l 665 649 q 622 776 660 728 q 515 825 585 825 q 411 783 456 825 q 344 657 367 742 l 582 657 l 582 517 l 326 517 l 326 451 l 582 451 l 582 313 l 344 313 q 412 188 367 229 q 518 147 457 147 q 626 198 585 147 q 674 339 667 249 l 876 339 z "},"₴":{"ha":851,"x_min":36,"x_max":817,"o":"m 817 663 l 817 531 l 36 531 l 36 663 l 550 663 q 556 706 556 681 q 524 796 556 764 q 440 828 493 828 q 359 801 390 828 q 325 732 328 774 l 113 732 q 159 870 117 810 q 274 964 201 931 q 442 997 347 997 q 602 963 533 997 q 708 867 671 929 q 744 726 744 806 q 738 663 744 694 l 817 663 m 36 331 l 36 461 l 817 461 l 817 331 l 310 331 q 299 267 299 297 q 330 176 299 208 q 413 144 361 144 q 493 173 461 144 q 528 244 525 201 l 740 244 q 694 104 736 165 q 580 9 653 43 q 411 -25 507 -25 q 251 9 319 -25 q 145 105 182 43 q 108 246 108 167 q 122 331 108 292 l 36 331 z "},"₸":{"ha":839,"x_min":39,"x_max":799,"o":"m 799 800 l 39 800 l 39 972 l 799 972 l 799 800 m 524 0 l 315 0 l 315 526 l 39 526 l 39 700 l 799 700 l 799 526 l 524 526 l 524 0 z "},"₹":{"ha":865,"x_min":69,"x_max":825,"o":"m 825 972 l 825 828 l 599 828 q 674 749 651 801 l 825 749 l 825 611 l 683 611 q 567 442 663 503 q 350 378 472 381 l 329 378 q 378 342 358 358 l 742 0 l 451 0 l 69 376 l 69 532 l 292 532 q 411 551 367 532 q 474 611 456 571 l 69 611 l 69 749 l 475 749 q 413 808 457 789 q 292 828 369 828 l 69 828 l 69 972 l 825 972 z "},"₺":{"ha":869,"x_min":67,"x_max":831,"o":"m 831 407 q 698 103 825 207 q 360 0 571 0 l 165 0 l 165 274 l 67 224 l 67 372 l 165 422 l 165 507 l 67 456 l 67 604 l 165 656 l 165 972 l 369 972 l 369 760 l 640 900 l 640 751 l 369 611 l 369 528 l 640 667 l 640 518 l 369 379 l 369 175 q 551 228 485 175 q 624 407 617 282 l 831 407 z "},"₽":{"ha":910,"x_min":64,"x_max":875,"o":"m 364 407 l 364 325 l 683 325 l 683 182 l 364 182 l 364 0 l 163 0 l 163 182 l 64 182 l 64 325 l 163 325 l 163 407 l 64 407 l 64 550 l 163 550 l 163 972 l 507 972 q 774 902 672 972 q 875 686 875 832 q 774 477 875 547 q 513 407 672 407 l 364 407 m 364 796 l 364 550 l 517 550 q 628 584 590 550 q 665 674 665 618 q 629 763 665 731 q 517 796 593 796 l 364 796 z "},"₿":{"ha":871,"x_min":100,"x_max":825,"o":"m 825 281 q 742 85 825 153 q 515 3 660 17 l 515 -153 l 357 -153 l 357 0 l 100 0 l 100 972 l 357 972 l 357 1124 l 515 1124 l 515 969 q 721 900 646 960 q 796 725 796 840 q 744 588 796 642 q 611 511 693 533 q 765 431 706 492 q 825 281 825 371 m 301 799 l 301 586 l 442 586 q 549 614 515 586 q 583 696 583 642 q 443 799 583 799 l 301 799 m 449 175 q 611 300 611 175 q 573 390 611 363 q 449 417 535 417 l 301 417 l 301 175 l 449 175 z "},"ℓ":{"ha":756,"x_min":43,"x_max":717,"o":"m 717 324 q 635 67 710 160 q 421 -25 561 -25 q 143 240 197 -25 q 43 226 101 232 l 43 403 q 126 414 76 406 l 126 440 q 162 716 126 590 q 275 919 197 842 q 472 997 353 997 q 650 931 590 997 q 710 760 710 865 q 602 482 710 606 q 317 289 494 358 q 353 174 328 210 q 422 138 379 138 q 524 324 518 138 l 717 324 m 465 838 q 390 794 425 838 q 333 669 354 751 q 308 472 311 586 q 469 594 411 521 q 526 757 526 667 q 465 838 526 838 z "},"№":{"ha":1610,"x_min":99,"x_max":1556,"o":"m 1306 478 q 1174 512 1231 478 q 1087 605 1117 546 q 1057 735 1057 664 q 1087 864 1057 806 q 1173 956 1117 922 q 1306 989 1229 989 q 1439 956 1382 989 q 1526 864 1496 922 q 1556 735 1556 806 q 1526 604 1556 663 q 1439 512 1496 546 q 1306 478 1382 478 m 99 0 l 99 972 l 414 972 l 782 290 q 775 431 775 340 l 775 972 l 989 972 l 989 0 l 714 0 l 304 758 q 311 622 311 694 l 311 0 l 99 0 m 1306 606 q 1371 640 1349 606 q 1393 735 1393 675 q 1370 828 1393 793 q 1306 864 1347 864 q 1242 828 1265 864 q 1219 735 1219 793 q 1242 641 1219 676 q 1306 606 1265 606 m 1551 246 l 1061 246 l 1061 411 l 1551 411 l 1551 246 z "},"℗":{"ha":1124,"x_min":56,"x_max":1068,"o":"m 557 -25 q 307 44 422 -25 q 124 230 192 113 q 56 485 56 347 q 124 740 56 624 q 308 926 192 857 q 561 994 425 994 q 815 926 699 994 q 1000 740 932 857 q 1068 485 1068 624 q 1000 227 1068 344 q 815 42 932 110 q 557 -25 697 -25 m 567 100 q 750 152 665 100 q 884 292 835 204 q 933 486 933 381 q 883 681 933 593 q 748 821 833 769 q 561 872 663 872 q 375 821 460 872 q 240 681 290 769 q 190 486 190 593 q 240 290 190 379 q 376 151 290 201 q 567 100 463 100 m 376 217 l 376 758 l 613 758 q 756 710 700 758 q 811 581 811 663 q 756 450 811 497 q 613 403 701 403 l 511 403 l 511 217 l 376 217 m 590 514 q 676 581 676 514 q 590 646 676 646 l 511 646 l 511 514 l 590 514 z "},"™":{"ha":1306,"x_min":35,"x_max":1221,"o":"m 351 440 l 199 440 l 199 842 l 35 842 l 35 972 l 515 972 l 515 842 l 351 842 l 351 440 m 560 440 l 560 972 l 785 972 l 872 682 q 892 600 885 635 l 900 631 q 914 682 907 663 l 1003 972 l 1221 972 l 1221 440 l 1074 440 l 1078 765 q 1083 851 1078 817 q 1056 765 1067 804 l 958 440 l 822 440 l 726 765 q 699 853 717 801 q 703 800 701 825 q 704 765 704 775 l 707 440 l 560 440 z "},"Ω":{"ha":1082,"x_min":57,"x_max":1025,"o":"m 96 0 l 96 168 l 168 168 q 256 160 211 168 q 108 313 158 217 q 57 524 57 408 q 120 773 57 665 q 294 939 183 881 q 542 997 404 997 q 790 939 679 997 q 963 773 900 881 q 1025 524 1025 665 q 971 310 1025 408 q 825 160 917 211 q 911 168 867 168 l 983 168 l 983 0 l 590 0 l 590 168 q 747 270 692 182 q 803 499 803 358 q 732 733 803 649 q 540 817 661 817 q 350 732 421 817 q 279 499 279 647 q 334 270 279 358 q 490 168 389 182 l 490 0 l 96 0 z "},"⅓":{"ha":1282,"x_min":31,"x_max":1233,"o":"m 181 722 q 183 793 181 768 q 120 742 161 761 q 36 722 79 722 q 31 722 33 722 l 31 850 q 140 890 94 858 q 194 972 186 921 l 324 972 l 324 390 l 181 390 l 181 722 m 319 0 l 140 0 l 836 972 l 1015 972 l 319 0 m 1000 -17 q 833 40 899 -17 q 768 197 768 96 q 768 201 768 199 l 910 201 q 935 128 911 153 q 1000 103 958 103 q 1066 120 1040 103 q 1092 174 1092 138 q 1000 243 1092 243 l 960 243 l 960 356 l 1008 356 q 1060 371 1040 356 q 1079 414 1079 386 q 1060 463 1079 446 q 1004 481 1040 481 q 945 458 965 481 q 924 406 925 436 l 775 406 q 842 546 778 493 q 1007 599 906 599 q 1160 550 1100 599 q 1219 426 1219 501 q 1193 347 1219 379 q 1119 299 1167 314 q 1203 250 1174 285 q 1233 163 1233 215 q 1172 35 1233 86 q 1000 -17 1111 -17 z "},"⅔":{"ha":1426,"x_min":44,"x_max":1382,"o":"m 46 390 q 81 544 47 483 q 185 649 115 606 l 272 706 q 324 751 310 728 q 339 806 339 774 q 321 853 339 835 q 274 871 303 871 q 217 847 236 871 q 194 782 197 822 l 44 782 q 108 928 47 868 q 274 989 168 989 q 428 935 376 989 q 481 806 481 881 q 349 613 481 689 l 281 569 q 225 517 235 542 l 476 517 l 476 390 l 46 390 m 467 0 l 288 0 l 983 972 l 1163 972 l 467 0 m 1149 -17 q 982 40 1047 -17 q 917 197 917 96 q 917 201 917 199 l 1058 201 q 1083 128 1060 153 q 1149 103 1107 103 q 1215 120 1189 103 q 1240 174 1240 138 q 1149 243 1240 243 l 1108 243 l 1108 356 l 1157 356 q 1208 371 1189 356 q 1228 414 1228 386 q 1208 463 1228 446 q 1153 481 1189 481 q 1094 458 1114 481 q 1072 406 1074 436 l 924 406 q 990 546 926 493 q 1156 599 1054 599 q 1308 550 1249 599 q 1368 426 1368 501 q 1342 347 1368 379 q 1268 299 1315 314 q 1352 250 1322 285 q 1382 163 1382 215 q 1321 35 1382 86 q 1149 -17 1260 -17 z "},"⅕":{"ha":1304,"x_min":29,"x_max":1257,"o":"m 179 722 q 182 793 179 768 q 119 742 160 761 q 35 722 78 722 q 29 722 32 722 l 29 850 q 139 890 93 858 q 193 972 185 921 l 322 972 l 322 390 l 179 390 l 179 722 m 318 0 l 139 0 l 835 972 l 1014 972 l 318 0 m 1026 -17 q 859 36 921 -17 q 796 172 797 89 l 942 172 q 965 123 943 143 q 1022 103 986 103 q 1088 127 1064 103 q 1113 193 1113 151 q 1090 256 1113 231 q 1028 282 1067 282 q 954 250 979 282 l 804 250 l 856 582 l 1225 582 l 1225 453 l 957 453 l 946 381 q 938 339 940 350 q 1069 392 986 392 q 1204 339 1151 392 q 1257 192 1257 286 q 1192 40 1257 96 q 1026 -17 1126 -17 z "},"⅖":{"ha":1447,"x_min":44,"x_max":1404,"o":"m 46 390 q 81 544 47 483 q 185 649 115 606 l 272 706 q 324 751 310 728 q 339 806 339 774 q 321 853 339 835 q 274 871 303 871 q 217 847 236 871 q 194 782 197 822 l 44 782 q 108 928 47 868 q 274 989 168 989 q 428 935 376 989 q 481 806 481 881 q 349 613 481 689 l 281 569 q 225 517 235 542 l 476 517 l 476 390 l 46 390 m 467 0 l 288 0 l 983 972 l 1163 972 l 467 0 m 1174 -17 q 1006 36 1068 -17 q 943 172 944 89 l 1089 172 q 1112 123 1090 143 q 1169 103 1133 103 q 1235 127 1211 103 q 1260 193 1260 151 q 1237 256 1260 231 q 1175 282 1214 282 q 1101 250 1126 282 l 951 250 l 1003 582 l 1372 582 l 1372 453 l 1104 453 l 1093 381 q 1085 339 1088 350 q 1217 392 1133 392 q 1351 339 1299 392 q 1404 192 1404 286 q 1339 40 1404 96 q 1174 -17 1274 -17 z "},"⅗":{"ha":1428,"x_min":33,"x_max":1382,"o":"m 265 375 q 99 431 164 375 q 33 589 33 488 q 33 593 33 590 l 175 593 q 200 519 176 544 q 265 494 224 494 q 331 512 306 494 q 357 565 357 529 q 265 635 357 635 l 225 635 l 225 747 l 274 747 q 325 763 306 747 q 344 806 344 778 q 325 855 344 838 q 269 872 306 872 q 210 850 231 872 q 189 797 190 828 l 40 797 q 107 938 43 885 q 272 990 171 990 q 425 942 365 990 q 485 818 485 893 q 458 738 485 771 q 385 690 432 706 q 469 642 439 676 q 499 554 499 607 q 438 426 499 478 q 265 375 376 375 m 443 0 l 264 0 l 960 972 l 1139 972 l 443 0 m 1151 -17 q 984 36 1046 -17 q 921 172 922 89 l 1067 172 q 1090 123 1068 143 q 1147 103 1111 103 q 1213 127 1189 103 q 1238 193 1238 151 q 1215 256 1238 231 q 1153 282 1192 282 q 1079 250 1104 282 l 929 250 l 981 582 l 1350 582 l 1350 453 l 1082 453 l 1071 381 q 1063 339 1065 350 q 1194 392 1111 392 q 1329 339 1276 392 q 1382 192 1382 286 q 1317 40 1382 96 q 1151 -17 1251 -17 z "},"⅘":{"ha":1472,"x_min":38,"x_max":1425,"o":"m 458 390 l 315 390 l 315 522 l 38 522 l 38 635 l 276 972 l 458 972 l 458 629 l 563 629 l 563 522 l 458 522 l 458 390 m 315 629 l 315 833 q 292 796 306 814 l 201 668 q 169 629 196 660 l 315 629 m 485 0 l 306 0 l 1001 972 l 1181 972 l 485 0 m 1194 -17 q 1027 36 1089 -17 q 964 172 965 89 l 1110 172 q 1133 123 1111 143 q 1190 103 1154 103 q 1256 127 1232 103 q 1281 193 1281 151 q 1258 256 1281 231 q 1196 282 1235 282 q 1122 250 1147 282 l 972 250 l 1024 582 l 1393 582 l 1393 453 l 1125 453 l 1114 381 q 1106 339 1108 350 q 1238 392 1154 392 q 1372 339 1319 392 q 1425 192 1425 286 q 1360 40 1425 96 q 1194 -17 1294 -17 z "},"⅙":{"ha":1282,"x_min":29,"x_max":1244,"o":"m 179 722 q 182 793 179 768 q 119 742 160 761 q 35 722 78 722 q 29 722 32 722 l 29 850 q 139 890 93 858 q 193 972 185 921 l 322 972 l 322 390 l 179 390 l 179 722 m 318 0 l 139 0 l 835 972 l 1014 972 l 318 0 m 1021 -17 q 833 62 900 -17 q 765 289 765 140 q 835 517 765 435 q 1025 599 906 599 q 1174 549 1119 599 q 1235 421 1228 500 l 1089 421 q 1065 466 1082 451 q 1021 481 1049 481 q 951 448 976 481 q 918 346 926 415 l 913 314 q 1051 379 965 379 q 1189 329 1133 379 q 1244 194 1244 279 q 1215 87 1244 135 q 1135 11 1186 39 q 1021 -17 1083 -17 m 1015 103 q 1078 124 1056 103 q 1101 183 1101 146 q 1078 243 1101 221 q 1015 265 1056 265 q 953 242 976 265 q 929 183 929 219 q 953 125 929 147 q 1015 103 976 103 z "},"⅚":{"ha":1396,"x_min":38,"x_max":1360,"o":"m 268 374 q 101 426 163 374 q 38 563 39 479 l 183 563 q 206 513 185 533 q 264 493 228 493 q 330 517 306 493 q 354 583 354 542 q 331 647 354 621 q 269 672 308 672 q 196 640 221 672 l 46 640 l 97 972 l 467 972 l 467 843 l 199 843 l 188 771 q 179 729 182 740 q 311 782 228 782 q 446 729 393 782 q 499 582 499 676 q 433 430 499 486 q 268 374 368 374 m 436 0 l 257 0 l 953 972 l 1132 972 l 436 0 m 1136 -17 q 948 62 1015 -17 q 881 289 881 140 q 951 517 881 435 q 1140 599 1021 599 q 1289 549 1235 599 q 1350 421 1343 500 l 1204 421 q 1181 466 1197 451 q 1136 481 1164 481 q 1067 448 1092 481 q 1033 346 1042 415 l 1028 314 q 1167 379 1081 379 q 1304 329 1249 379 q 1360 194 1360 279 q 1331 87 1360 135 q 1250 11 1301 39 q 1136 -17 1199 -17 m 1131 103 q 1194 124 1171 103 q 1217 183 1217 146 q 1194 243 1217 221 q 1131 265 1171 265 q 1068 242 1092 265 q 1044 183 1044 219 q 1068 125 1044 147 q 1131 103 1092 103 z "},"⅛":{"ha":1257,"x_min":31,"x_max":1215,"o":"m 181 722 q 183 793 181 768 q 120 742 161 761 q 36 722 79 722 q 31 722 33 722 l 31 850 q 140 890 94 858 q 194 972 186 921 l 324 972 l 324 390 l 181 390 l 181 722 m 319 0 l 140 0 l 836 972 l 1015 972 l 319 0 m 978 -17 q 806 31 865 -17 q 746 150 746 79 q 776 243 746 207 q 865 301 807 279 q 787 354 814 319 q 760 433 760 389 q 820 553 760 508 q 981 599 881 599 q 1142 553 1081 599 q 1203 436 1203 508 q 1175 351 1203 386 q 1096 301 1147 315 q 1185 247 1154 283 q 1215 158 1215 210 q 1153 33 1215 82 q 978 -17 1090 -17 m 982 349 q 1040 367 1018 349 q 1061 415 1061 385 q 1040 461 1061 443 q 982 479 1018 479 q 923 462 944 479 q 901 415 901 444 q 924 367 901 385 q 982 349 946 349 m 981 104 q 1048 124 1024 104 q 1072 176 1072 143 q 1048 230 1072 210 q 981 250 1024 250 q 913 230 938 250 q 889 176 889 210 q 914 124 889 144 q 981 104 939 104 z "},"⅜":{"ha":1378,"x_min":33,"x_max":1340,"o":"m 265 375 q 99 431 164 375 q 33 589 33 488 q 33 593 33 590 l 175 593 q 200 519 176 544 q 265 494 224 494 q 331 512 306 494 q 357 565 357 529 q 265 635 357 635 l 225 635 l 225 747 l 274 747 q 325 763 306 747 q 344 806 344 778 q 325 855 344 838 q 269 872 306 872 q 210 850 231 872 q 189 797 190 828 l 40 797 q 107 938 43 885 q 272 990 171 990 q 425 942 365 990 q 485 818 485 893 q 458 738 485 771 q 385 690 432 706 q 469 642 439 676 q 499 554 499 607 q 438 426 499 478 q 265 375 376 375 m 443 0 l 264 0 l 960 972 l 1139 972 l 443 0 m 1103 -17 q 931 31 990 -17 q 871 150 871 79 q 901 243 871 207 q 990 301 932 279 q 912 354 939 319 q 885 433 885 389 q 945 553 885 508 q 1106 599 1006 599 q 1267 553 1206 599 q 1328 436 1328 508 q 1300 351 1328 386 q 1221 301 1272 315 q 1310 247 1279 283 q 1340 158 1340 210 q 1278 33 1340 82 q 1103 -17 1215 -17 m 1107 349 q 1165 367 1143 349 q 1186 415 1186 385 q 1165 461 1186 443 q 1107 479 1143 479 q 1048 462 1069 479 q 1026 415 1026 444 q 1049 367 1026 385 q 1107 349 1071 349 m 1106 104 q 1173 124 1149 104 q 1197 176 1197 143 q 1173 230 1197 210 q 1106 250 1149 250 q 1038 230 1063 250 q 1014 176 1014 210 q 1039 124 1014 144 q 1106 104 1064 104 z "},"⅝":{"ha":1371,"x_min":38,"x_max":1332,"o":"m 268 374 q 101 426 163 374 q 38 563 39 479 l 183 563 q 206 513 185 533 q 264 493 228 493 q 330 517 306 493 q 354 583 354 542 q 331 647 354 621 q 269 672 308 672 q 196 640 221 672 l 46 640 l 97 972 l 467 972 l 467 843 l 199 843 l 188 771 q 179 729 182 740 q 311 782 228 782 q 446 729 393 782 q 499 582 499 676 q 433 430 499 486 q 268 374 368 374 m 436 0 l 257 0 l 953 972 l 1132 972 l 436 0 m 1094 -17 q 922 31 982 -17 q 863 150 863 79 q 893 243 863 207 q 982 301 924 279 q 903 354 931 319 q 876 433 876 389 q 937 553 876 508 q 1097 599 997 599 q 1258 553 1197 599 q 1319 436 1319 508 q 1292 351 1319 386 q 1213 301 1264 315 q 1301 247 1271 283 q 1332 158 1332 210 q 1269 33 1332 82 q 1094 -17 1207 -17 m 1099 349 q 1156 367 1135 349 q 1178 415 1178 385 q 1156 461 1178 443 q 1099 479 1135 479 q 1040 462 1061 479 q 1018 415 1018 444 q 1040 367 1018 385 q 1099 349 1063 349 m 1097 104 q 1165 124 1140 104 q 1189 176 1189 143 q 1165 230 1189 210 q 1097 250 1140 250 q 1030 230 1054 250 q 1006 176 1006 210 q 1031 124 1006 144 q 1097 104 1056 104 z "},"⅞":{"ha":1272,"x_min":32,"x_max":1232,"o":"m 118 390 q 151 573 121 482 q 235 735 182 664 q 354 839 288 807 l 32 839 l 32 972 l 496 972 l 496 861 q 397 740 436 800 q 330 594 357 681 q 297 390 303 508 l 118 390 m 336 0 l 157 0 l 853 972 l 1032 972 l 336 0 m 994 -17 q 822 31 882 -17 q 763 150 763 79 q 793 243 763 207 q 882 301 824 279 q 803 354 831 319 q 776 433 776 389 q 837 553 776 508 q 997 599 897 599 q 1158 553 1097 599 q 1219 436 1219 508 q 1192 351 1219 386 q 1113 301 1164 315 q 1201 247 1171 283 q 1232 158 1232 210 q 1169 33 1232 82 q 994 -17 1107 -17 m 999 349 q 1056 367 1035 349 q 1078 415 1078 385 q 1056 461 1078 443 q 999 479 1035 479 q 940 462 961 479 q 918 415 918 444 q 940 367 918 385 q 999 349 963 349 m 997 104 q 1065 124 1040 104 q 1089 176 1089 143 q 1065 230 1089 210 q 997 250 1040 250 q 930 230 954 250 q 906 176 906 210 q 931 124 906 144 q 997 104 956 104 z "},"⅟":{"ha":953,"x_min":43,"x_max":1028,"o":"m 193 722 q 196 793 193 768 q 133 742 174 761 q 49 722 92 722 q 43 722 46 722 l 43 850 q 153 890 107 858 q 207 972 199 921 l 336 972 l 336 390 l 193 390 l 193 722 m 332 0 l 153 0 l 849 972 l 1028 972 l 332 0 z "},"←":{"ha":1093,"x_min":42,"x_max":1040,"o":"m 406 385 l 742 50 l 483 50 l 42 492 l 483 933 l 742 933 l 406 599 l 1040 599 l 1040 385 l 406 385 z "},"↑":{"ha":969,"x_min":43,"x_max":928,"o":"m 593 0 l 378 0 l 378 633 l 43 297 l 43 557 l 485 997 l 928 557 l 928 297 l 593 633 l 593 0 z "},"→":{"ha":1093,"x_min":53,"x_max":1051,"o":"m 610 50 l 351 50 l 688 385 l 53 385 l 53 599 l 688 599 l 351 933 l 610 933 l 1051 492 l 610 50 z "},"↓":{"ha":969,"x_min":43,"x_max":928,"o":"m 378 339 l 378 972 l 593 972 l 593 339 l 928 675 l 928 415 l 485 -25 l 43 415 l 43 675 l 378 339 z "},"↖":{"ha":942,"x_min":78,"x_max":888,"o":"m 869 332 l 718 179 l 261 639 l 263 163 l 78 349 l 79 972 l 703 974 l 888 789 l 413 790 l 869 332 z "},"↗":{"ha":942,"x_min":56,"x_max":864,"o":"m 682 639 l 224 179 l 72 332 l 529 790 l 56 789 l 239 974 l 863 972 l 864 349 l 679 163 l 682 639 z "},"↘":{"ha":947,"x_min":58,"x_max":867,"o":"m 75 640 l 228 793 l 685 333 l 683 810 l 867 624 l 867 0 l 243 -1 l 58 183 l 533 182 l 75 640 z "},"↙":{"ha":947,"x_min":81,"x_max":889,"o":"m 263 333 l 721 793 l 872 640 l 415 182 l 889 183 l 706 -1 l 81 0 l 81 624 l 264 810 l 263 333 z "},"∂":{"ha":850,"x_min":24,"x_max":799,"o":"m 367 -25 q 191 16 269 -25 q 68 131 113 57 q 24 303 24 206 q 66 476 24 397 q 186 600 108 554 q 365 646 264 646 q 510 606 443 646 q 607 506 576 565 q 604 579 604 525 q 531 752 604 688 q 339 821 458 817 l 339 997 q 582 938 478 997 q 742 771 686 879 q 799 518 799 663 q 749 243 799 367 q 601 47 699 119 q 367 -25 504 -25 m 379 149 q 500 197 454 149 q 546 322 546 246 q 504 429 546 389 q 393 469 463 469 q 275 422 321 469 q 229 301 229 375 q 270 191 229 233 q 379 149 311 149 z "},"∅":{"ha":833,"x_min":51,"x_max":781,"o":"m 688 582 q 756 472 732 533 q 781 340 781 410 q 732 156 781 240 q 599 24 683 72 q 417 -25 515 -25 q 261 10 335 -25 l 197 -76 l 82 4 l 149 93 q 77 206 103 142 q 51 340 51 269 q 101 522 51 439 q 234 654 150 606 q 417 703 318 703 q 576 665 501 703 l 646 758 l 758 676 l 688 582 m 229 340 q 257 239 229 283 l 471 524 q 417 532 444 532 q 324 506 367 532 q 255 435 281 479 q 229 340 229 392 m 417 146 q 510 172 467 146 q 578 244 553 199 q 604 340 604 289 q 579 436 604 389 l 368 153 q 417 146 393 146 z "},"∆":{"ha":951,"x_min":35,"x_max":915,"o":"m 915 0 l 35 0 l 35 176 l 379 972 l 572 972 l 915 176 l 915 0 m 231 178 l 715 178 l 514 651 q 474 760 485 715 q 433 651 463 721 l 231 178 z "},"∏":{"ha":871,"x_min":40,"x_max":831,"o":"m 831 972 l 831 796 l 714 796 l 714 -179 l 522 -179 l 522 796 l 347 796 l 347 -179 l 157 -179 l 157 796 l 40 796 l 40 972 l 831 972 z "},"∑":{"ha":761,"x_min":50,"x_max":715,"o":"m 50 -179 l 50 17 l 399 394 l 50 772 l 50 972 l 715 972 l 715 796 l 272 796 q 343 728 299 775 l 569 481 l 569 313 l 338 61 q 269 -3 306 28 l 715 -3 l 715 -179 l 50 -179 z "},"−":{"ha":818,"x_min":81,"x_max":738,"o":"m 738 326 l 81 326 l 81 503 l 738 503 l 738 326 z "},"∕":{"ha":601,"x_min":28,"x_max":572,"o":"m 225 0 l 28 0 l 376 972 l 572 972 l 225 0 z "},"√":{"ha":813,"x_min":19,"x_max":793,"o":"m 164 -179 l 19 394 l 218 394 l 268 171 q 299 7 292 56 q 318 124 306 53 q 328 172 324 143 l 481 972 l 793 972 l 793 794 l 633 794 l 439 -179 l 164 -179 z "},"∞":{"ha":1079,"x_min":54,"x_max":1025,"o":"m 294 168 q 171 200 225 168 q 85 289 117 232 q 54 421 54 346 q 85 552 54 494 q 172 641 117 610 q 299 672 228 672 q 435 636 379 672 q 542 536 492 600 q 648 636 593 600 q 785 672 703 672 q 908 640 854 672 q 994 551 963 608 q 1025 421 1025 494 q 957 238 1025 307 q 781 168 889 168 q 647 203 706 168 q 538 307 589 238 q 431 204 485 240 q 294 168 378 168 m 313 315 q 383 340 350 315 q 458 418 415 364 q 383 499 415 474 q 313 525 350 525 q 244 497 271 525 q 218 421 218 468 q 244 344 218 374 q 313 315 271 315 m 767 315 q 834 344 808 315 q 860 421 860 374 q 834 497 860 468 q 767 525 808 525 q 699 502 732 525 q 621 422 667 479 q 698 341 665 367 q 767 315 731 315 z "},"∫":{"ha":511,"x_min":26,"x_max":485,"o":"m 26 -281 l 26 -104 l 63 -104 q 138 -78 114 -104 q 161 6 161 -51 l 161 688 q 228 903 161 833 q 440 972 296 972 l 485 972 l 485 796 l 449 796 q 374 769 397 796 q 351 685 351 743 l 351 3 q 283 -211 351 -142 q 71 -281 215 -281 l 26 -281 z "},"≈":{"ha":796,"x_min":72,"x_max":731,"o":"m 72 440 q 131 616 72 561 q 278 671 189 671 q 407 642 332 671 q 497 618 469 618 q 535 632 524 618 q 549 672 547 646 l 731 672 q 678 502 731 558 q 538 446 626 446 q 397 474 478 446 q 358 487 389 476 q 308 497 328 497 q 269 483 282 497 q 254 440 257 468 l 72 440 m 72 156 q 131 331 72 276 q 278 386 189 386 q 407 357 332 386 q 497 333 469 333 q 535 347 524 333 q 549 388 547 361 l 731 388 q 678 217 731 274 q 538 161 626 161 q 397 189 478 161 q 358 202 389 192 q 308 213 328 213 q 269 198 282 213 q 254 156 257 183 l 72 156 z "},"≠":{"ha":814,"x_min":82,"x_max":740,"o":"m 740 643 l 740 468 l 519 468 l 472 365 l 740 365 l 740 190 l 389 190 l 313 28 l 133 28 l 210 190 l 82 190 l 82 365 l 293 365 l 342 468 l 82 468 l 82 643 l 425 643 l 500 803 l 678 803 l 603 643 l 740 643 z "},"≤":{"ha":808,"x_min":72,"x_max":731,"o":"m 729 218 l 72 418 l 72 646 l 729 846 l 729 639 l 367 553 l 324 544 q 256 531 299 538 q 368 508 310 522 l 729 419 l 729 218 m 731 0 l 72 0 l 72 175 l 731 175 l 731 0 z "},"≥":{"ha":808,"x_min":89,"x_max":747,"o":"m 89 218 l 89 425 l 453 511 l 564 533 q 451 557 482 549 l 89 646 l 89 846 l 746 646 l 746 418 l 89 218 m 747 -1 l 89 -1 l 89 174 l 747 174 l 747 -1 z "},"〈":{"ha":490,"x_min":22,"x_max":483,"o":"m 472 1015 l 225 424 l 483 -179 l 276 -179 l 22 421 l 271 1015 l 472 1015 z "},"〉":{"ha":492,"x_min":8,"x_max":469,"o":"m 8 1015 l 214 1015 l 469 415 l 219 -179 l 18 -179 l 267 413 l 8 1015 z "},"①":{"ha":1097,"x_min":40,"x_max":1057,"o":"m 549 -25 q 293 44 410 -25 q 108 230 176 113 q 40 486 40 347 q 108 742 40 625 q 293 928 176 860 q 549 997 410 997 q 804 928 688 997 q 989 742 921 860 q 1057 486 1057 625 q 989 230 1057 347 q 804 44 921 113 q 549 -25 688 -25 m 549 92 q 742 144 654 92 q 879 286 829 196 q 929 486 929 376 q 879 686 929 596 q 742 828 829 776 q 549 881 654 881 q 356 828 443 881 q 219 686 269 776 q 168 486 168 596 q 219 286 168 376 q 356 144 269 196 q 549 92 443 92 m 508 529 q 511 599 508 574 q 449 549 489 568 q 365 529 408 529 q 360 529 363 529 l 360 656 q 468 695 422 664 q 522 776 514 726 l 650 776 l 650 200 l 508 200 l 508 529 z "},"②":{"ha":1097,"x_min":40,"x_max":1057,"o":"m 549 -25 q 293 44 410 -25 q 108 230 176 113 q 40 486 40 347 q 108 742 40 625 q 293 928 176 860 q 549 997 410 997 q 804 928 688 997 q 989 742 921 860 q 1057 486 1057 625 q 989 230 1057 347 q 804 44 921 113 q 549 -25 688 -25 m 549 92 q 742 144 654 92 q 879 286 829 196 q 929 486 929 376 q 879 686 929 596 q 742 828 829 776 q 549 881 654 881 q 356 828 443 881 q 219 686 269 776 q 168 486 168 596 q 219 286 168 376 q 356 144 269 196 q 549 92 443 92 m 335 203 q 371 356 336 296 q 474 460 406 417 l 560 515 q 612 560 597 538 q 626 615 626 583 q 608 662 626 644 q 561 679 590 679 q 483 590 490 679 l 335 590 q 397 735 338 675 q 561 796 456 796 q 715 742 664 796 q 767 614 767 689 q 636 422 767 500 l 568 381 q 514 328 522 351 l 763 328 l 763 203 l 335 203 z "},"③":{"ha":1097,"x_min":40,"x_max":1057,"o":"m 549 -25 q 293 44 410 -25 q 108 230 176 113 q 40 486 40 347 q 108 742 40 625 q 293 928 176 860 q 549 997 410 997 q 804 928 688 997 q 989 742 921 860 q 1057 486 1057 625 q 989 230 1057 347 q 804 44 921 113 q 549 -25 688 -25 m 549 92 q 742 144 654 92 q 879 286 829 196 q 929 486 929 376 q 879 686 929 596 q 742 828 829 776 q 549 881 654 881 q 356 828 443 881 q 219 686 269 776 q 168 486 168 596 q 219 286 168 376 q 356 144 269 196 q 549 92 443 92 m 546 183 q 379 240 444 183 q 314 399 314 296 l 456 399 q 481 326 457 351 q 544 301 504 301 q 610 319 585 301 q 635 372 635 338 q 546 442 635 442 l 504 442 l 504 553 l 553 553 q 604 568 585 553 q 624 611 624 583 q 604 659 624 642 q 550 676 585 676 q 490 655 510 676 q 469 601 471 633 l 322 601 q 388 741 324 689 q 551 793 451 793 q 703 745 644 793 q 763 622 763 697 q 737 544 763 576 q 664 496 711 511 q 747 447 718 482 q 776 361 776 413 q 715 235 776 286 q 546 183 654 183 z "},"④":{"ha":1097,"x_min":40,"x_max":1057,"o":"m 549 -25 q 293 44 410 -25 q 108 230 176 113 q 40 486 40 347 q 108 742 40 625 q 293 928 176 860 q 549 997 410 997 q 804 928 688 997 q 989 742 921 860 q 1057 486 1057 625 q 989 230 1057 347 q 804 44 921 113 q 549 -25 688 -25 m 549 92 q 742 144 654 92 q 879 286 829 196 q 929 486 929 376 q 879 686 929 596 q 742 828 829 776 q 549 881 654 881 q 356 828 443 881 q 219 686 269 776 q 168 486 168 596 q 219 286 168 376 q 356 144 269 196 q 549 92 443 92 m 699 200 l 557 200 l 557 331 l 282 331 l 282 443 l 518 776 l 699 776 l 699 438 l 801 438 l 801 331 l 699 331 l 699 200 m 557 438 l 557 639 q 533 603 549 622 l 444 476 q 413 438 429 454 l 557 438 z "},"⑤":{"ha":1097,"x_min":40,"x_max":1057,"o":"m 549 -25 q 293 44 410 -25 q 108 230 176 113 q 40 486 40 347 q 108 742 40 625 q 293 928 176 860 q 549 997 410 997 q 804 928 688 997 q 989 742 921 860 q 1057 486 1057 625 q 989 230 1057 347 q 804 44 921 113 q 549 -25 688 -25 m 549 92 q 742 144 654 92 q 879 286 829 196 q 929 486 929 376 q 879 686 929 596 q 742 828 829 776 q 549 881 654 881 q 356 828 443 881 q 219 686 269 776 q 168 486 168 596 q 219 286 168 376 q 356 144 269 196 q 549 92 443 92 m 542 182 q 376 234 438 182 q 313 369 314 286 l 458 369 q 481 320 460 340 q 538 300 503 300 q 603 324 579 300 q 628 390 628 349 q 605 453 628 428 q 543 478 582 478 q 471 447 496 478 l 321 447 l 374 775 l 739 775 l 739 649 l 474 649 l 463 575 q 454 535 457 543 q 585 586 503 586 q 718 534 665 586 q 771 389 771 482 q 706 238 771 293 q 542 182 642 182 z "},"⑥":{"ha":1097,"x_min":40,"x_max":1057,"o":"m 549 -25 q 293 44 410 -25 q 108 230 176 113 q 40 486 40 347 q 108 742 40 625 q 293 928 176 860 q 549 997 410 997 q 804 928 688 997 q 989 742 921 860 q 1057 486 1057 625 q 989 230 1057 347 q 804 44 921 113 q 549 -25 688 -25 m 549 92 q 742 144 654 92 q 879 286 829 196 q 929 486 929 376 q 879 686 929 596 q 742 828 829 776 q 549 881 654 881 q 356 828 443 881 q 219 686 269 776 q 168 486 168 596 q 219 286 168 376 q 356 144 269 196 q 549 92 443 92 m 553 183 q 367 262 433 183 q 300 488 300 340 q 369 713 300 632 q 557 793 438 793 q 703 744 650 793 q 765 617 757 696 l 619 617 q 597 662 614 647 q 553 676 581 676 q 484 644 508 676 q 451 543 460 611 q 444 511 447 518 q 583 576 500 576 q 720 527 665 576 q 775 393 775 478 q 746 285 775 333 q 666 210 717 238 q 553 183 615 183 m 549 301 q 610 324 588 301 q 633 382 633 346 q 610 440 633 418 q 549 463 588 463 q 485 440 508 463 q 463 382 463 418 q 485 324 463 346 q 549 301 508 301 z "},"⑦":{"ha":1097,"x_min":40,"x_max":1057,"o":"m 549 -25 q 293 44 410 -25 q 108 230 176 113 q 40 486 40 347 q 108 742 40 625 q 293 928 176 860 q 549 997 410 997 q 804 928 688 997 q 989 742 921 860 q 1057 486 1057 625 q 989 230 1057 347 q 804 44 921 113 q 549 -25 688 -25 m 549 92 q 742 144 654 92 q 879 286 829 196 q 929 486 929 376 q 879 686 929 596 q 742 828 829 776 q 549 881 654 881 q 356 828 443 881 q 219 686 269 776 q 168 486 168 596 q 219 286 168 376 q 356 144 269 196 q 549 92 443 92 m 411 199 q 444 378 415 289 q 526 538 474 468 q 643 639 578 607 l 328 639 l 328 771 l 783 771 l 783 661 q 645 469 694 571 q 589 199 596 367 l 411 199 z "},"⑧":{"ha":1097,"x_min":40,"x_max":1057,"o":"m 549 -25 q 293 44 410 -25 q 108 230 176 113 q 40 486 40 347 q 108 742 40 625 q 293 928 176 860 q 549 997 410 997 q 804 928 688 997 q 989 742 921 860 q 1057 486 1057 625 q 989 230 1057 347 q 804 44 921 113 q 549 -25 688 -25 m 549 92 q 742 144 654 92 q 879 286 829 196 q 929 486 929 376 q 879 686 929 596 q 742 828 829 776 q 549 881 654 881 q 356 828 443 881 q 219 686 269 776 q 168 486 168 596 q 219 286 168 376 q 356 144 269 196 q 549 92 443 92 m 546 183 q 374 231 433 183 q 315 349 315 279 q 346 441 315 406 q 433 499 376 476 q 355 551 382 517 q 328 629 328 585 q 388 749 328 704 q 549 793 449 793 q 708 748 647 793 q 768 633 768 703 q 740 548 768 583 q 661 499 713 513 q 750 444 719 481 q 781 357 781 407 q 719 232 781 281 q 546 183 657 183 m 549 546 q 606 564 585 546 q 626 611 626 582 q 606 658 626 640 q 549 675 585 675 q 491 658 513 675 q 469 611 469 640 q 491 564 469 582 q 549 546 513 546 m 549 303 q 615 322 590 303 q 639 375 639 342 q 615 428 639 408 q 549 449 590 449 q 481 428 506 449 q 457 375 457 408 q 482 323 457 343 q 549 303 507 303 z "},"⑨":{"ha":1097,"x_min":40,"x_max":1057,"o":"m 549 -25 q 293 44 410 -25 q 108 230 176 113 q 40 486 40 347 q 108 742 40 625 q 293 928 176 860 q 549 997 410 997 q 804 928 688 997 q 989 742 921 860 q 1057 486 1057 625 q 989 230 1057 347 q 804 44 921 113 q 549 -25 688 -25 m 549 92 q 742 144 654 92 q 879 286 829 196 q 929 486 929 376 q 879 686 929 596 q 742 828 829 776 q 549 881 654 881 q 356 828 443 881 q 219 686 269 776 q 168 486 168 596 q 219 286 168 376 q 356 144 269 196 q 549 92 443 92 m 539 183 q 394 230 453 183 q 329 367 335 276 l 471 367 q 549 297 476 297 q 618 331 597 297 q 649 436 639 364 q 654 465 651 453 q 524 399 604 399 q 382 450 438 399 q 326 589 326 501 q 356 694 326 647 q 438 767 386 740 q 549 793 489 793 q 725 713 660 793 q 790 490 790 633 q 725 263 790 342 q 539 183 660 183 m 549 514 q 606 538 583 514 q 629 597 629 561 q 606 654 629 632 q 549 676 583 676 q 491 654 514 676 q 468 596 468 632 q 491 537 468 560 q 549 514 514 514 z "},"⓪":{"ha":1097,"x_min":40,"x_max":1057,"o":"m 549 -25 q 293 44 410 -25 q 108 230 176 113 q 40 486 40 347 q 108 742 40 625 q 293 928 176 860 q 549 997 410 997 q 804 928 688 997 q 989 742 921 860 q 1057 486 1057 625 q 989 230 1057 347 q 804 44 921 113 q 549 -25 688 -25 m 549 92 q 742 144 654 92 q 879 286 829 196 q 929 486 929 376 q 879 686 929 596 q 742 828 829 776 q 549 881 654 881 q 356 828 443 881 q 219 686 269 776 q 168 486 168 596 q 219 286 168 376 q 356 144 269 196 q 549 92 443 92 m 547 183 q 369 264 435 183 q 304 485 304 344 q 370 710 304 626 q 547 793 436 793 q 724 710 658 793 q 790 485 790 626 q 725 263 790 343 q 547 183 660 183 m 550 303 q 622 351 594 303 q 649 485 649 399 q 622 625 649 575 q 550 675 596 675 q 474 624 503 675 q 446 485 446 574 q 474 350 446 397 q 550 303 503 303 z "},"⓿":{"ha":1090,"x_min":40,"x_max":1050,"o":"m 536 -26 q 291 44 406 -26 q 108 232 176 114 q 40 486 40 350 q 109 742 40 624 q 294 929 178 860 q 544 999 410 999 q 798 929 682 999 q 982 742 914 860 q 1050 486 1050 624 q 982 227 1050 344 q 797 42 914 110 q 536 -26 679 -26 m 544 183 q 722 263 657 183 q 788 485 788 343 q 722 710 788 626 q 544 793 656 793 q 367 710 433 793 q 301 485 301 626 q 367 264 301 344 q 544 183 432 183 m 547 303 q 472 350 500 303 q 443 485 443 397 q 472 624 443 574 q 547 675 500 675 q 619 625 593 675 q 646 485 646 575 q 619 351 646 399 q 547 303 592 303 z "},"■":{"ha":1174,"x_min":101,"x_max":1074,"o":"m 1074 0 l 101 0 l 101 972 l 1074 972 l 1074 0 z "},"□":{"ha":1174,"x_min":101,"x_max":1074,"o":"m 1074 0 l 101 0 l 101 972 l 1074 972 l 1074 0 m 272 804 l 272 168 l 901 168 l 901 804 l 272 804 z "},"▪":{"ha":733,"x_min":89,"x_max":644,"o":"m 644 208 l 89 208 l 89 764 l 644 764 l 644 208 z "},"▫":{"ha":733,"x_min":89,"x_max":644,"o":"m 644 208 l 89 208 l 89 764 l 644 764 l 644 208 m 247 610 l 247 363 l 488 363 l 488 610 l 247 610 z "},"▲":{"ha":1088,"x_min":19,"x_max":1069,"o":"m 1069 0 l 19 0 l 544 997 l 1069 0 z "},"△":{"ha":1086,"x_min":19,"x_max":1067,"o":"m 1067 0 l 19 0 l 542 997 l 1067 0 m 543 647 l 286 160 l 800 160 l 543 647 z "},"▶":{"ha":997,"x_min":103,"x_max":971,"o":"m 971 486 l 103 -11 l 103 983 l 971 486 z "},"▷":{"ha":997,"x_min":103,"x_max":971,"o":"m 971 486 l 103 -11 l 103 983 l 971 486 m 264 708 l 264 264 l 651 486 l 264 708 z "},"▼":{"ha":1089,"x_min":19,"x_max":1069,"o":"m 544 -25 l 19 972 l 1069 972 l 544 -25 z "},"▽":{"ha":1086,"x_min":19,"x_max":1068,"o":"m 543 -25 l 19 972 l 1068 972 l 543 -25 m 800 813 l 288 813 l 543 325 l 800 813 z "},"◀":{"ha":999,"x_min":28,"x_max":896,"o":"m 896 983 l 896 -11 l 28 486 l 896 983 z "},"◁":{"ha":999,"x_min":28,"x_max":896,"o":"m 896 983 l 896 -11 l 28 486 l 896 983 m 346 486 l 735 264 l 735 708 l 346 486 z "},"◆":{"ha":1174,"x_min":28,"x_max":1147,"o":"m 1147 486 l 588 -74 l 28 486 l 588 1044 l 1147 486 z "},"◇":{"ha":1174,"x_min":28,"x_max":1147,"o":"m 1147 486 l 588 -74 l 28 486 l 588 1044 l 1147 486 m 260 486 l 588 157 l 915 486 l 588 814 l 260 486 z "},"◊":{"ha":765,"x_min":42,"x_max":724,"o":"m 474 0 l 290 0 l 42 486 l 290 972 l 474 972 l 724 486 l 474 0 m 382 192 q 422 278 386 203 l 526 483 l 425 686 q 382 779 403 729 q 338 686 363 733 l 236 488 l 342 278 q 382 192 365 233 z "},"○":{"ha":1149,"x_min":54,"x_max":1096,"o":"m 575 -35 q 314 35 433 -35 q 124 225 194 106 q 54 486 54 344 q 124 747 54 628 q 314 937 194 867 q 575 1007 433 1007 q 836 937 717 1007 q 1026 747 956 867 q 1096 486 1096 628 q 1026 225 1096 344 q 836 35 956 106 q 575 -35 717 -35 m 575 122 q 751 171 671 122 q 879 303 832 219 q 926 486 926 386 q 879 669 926 586 q 751 801 832 753 q 575 850 671 850 q 397 801 478 850 q 269 669 317 753 q 222 486 222 586 q 269 303 222 386 q 397 171 317 219 q 575 122 478 122 z "},"●":{"ha":1126,"x_min":53,"x_max":1072,"o":"m 563 -25 q 308 44 425 -25 q 122 231 190 113 q 53 486 53 349 q 122 742 53 624 q 308 928 190 860 q 563 997 425 997 q 817 928 700 997 q 1003 742 935 860 q 1072 486 1072 624 q 1003 231 1072 349 q 817 44 935 113 q 563 -25 700 -25 z "},"◻":{"ha":965,"x_min":101,"x_max":865,"o":"m 865 104 l 101 104 l 101 868 l 865 868 l 865 104 m 264 710 l 264 263 l 701 263 l 701 710 l 264 710 z "},"◼":{"ha":965,"x_min":101,"x_max":865,"o":"m 865 104 l 101 104 l 101 868 l 865 868 l 865 104 z "},"♡":{"ha":1101,"x_min":50,"x_max":1051,"o":"m 782 994 q 978 913 904 994 q 1051 697 1051 831 q 996 479 1051 588 q 833 253 940 371 q 550 -25 726 136 q 269 253 375 136 q 106 478 163 369 q 50 697 50 588 q 123 913 50 832 q 318 994 196 994 q 458 955 396 994 q 550 843 519 915 q 642 955 581 915 q 782 994 704 994 m 550 169 q 749 385 676 296 q 856 549 822 475 q 889 699 889 624 q 857 806 889 767 q 768 846 825 846 q 674 805 708 846 q 636 683 640 764 l 464 683 q 427 805 461 764 q 333 846 393 846 q 244 807 276 846 q 213 700 213 768 q 246 549 213 625 q 352 384 279 474 q 550 169 425 294 z "},"♥":{"ha":1089,"x_min":50,"x_max":1039,"o":"m 781 993 q 915 957 857 993 q 1006 854 974 921 q 1039 701 1039 788 q 919 372 1039 540 q 543 -26 800 204 q 171 370 292 200 q 50 703 50 540 q 83 855 50 789 q 174 957 115 921 q 308 993 233 993 q 463 939 401 993 q 544 793 525 885 q 626 939 564 885 q 781 993 688 993 z "},"❶":{"ha":1090,"x_min":40,"x_max":1050,"o":"m 536 -26 q 291 44 406 -26 q 108 232 176 114 q 40 486 40 350 q 109 742 40 624 q 294 929 178 860 q 544 999 410 999 q 798 929 682 999 q 982 742 914 860 q 1050 486 1050 624 q 982 227 1050 344 q 797 42 914 110 q 536 -26 679 -26 m 506 200 l 647 200 l 647 776 l 519 776 q 465 695 511 726 q 357 656 419 664 l 357 529 q 363 529 360 529 q 446 549 406 529 q 508 599 486 568 q 506 529 506 574 l 506 200 z "},"❷":{"ha":1090,"x_min":40,"x_max":1050,"o":"m 536 -26 q 291 44 406 -26 q 108 232 176 114 q 40 486 40 350 q 109 742 40 624 q 294 929 178 860 q 544 999 410 999 q 798 929 682 999 q 982 742 914 860 q 1050 486 1050 624 q 982 227 1050 344 q 797 42 914 110 q 536 -26 679 -26 m 760 203 l 760 328 l 511 328 q 565 381 519 351 l 633 422 q 764 614 764 500 q 713 742 764 689 q 558 796 661 796 q 394 735 453 796 q 332 590 335 675 l 481 590 q 558 679 488 679 q 606 662 588 679 q 624 615 624 644 q 609 560 624 583 q 557 515 594 538 l 471 460 q 368 356 403 417 q 332 203 333 296 l 760 203 z "},"❸":{"ha":1090,"x_min":40,"x_max":1050,"o":"m 536 -26 q 291 44 406 -26 q 108 232 176 114 q 40 486 40 350 q 109 742 40 624 q 294 929 178 860 q 544 999 410 999 q 798 929 682 999 q 982 742 914 860 q 1050 486 1050 624 q 982 227 1050 344 q 797 42 914 110 q 536 -26 679 -26 m 542 183 q 711 235 650 183 q 772 361 772 286 q 743 447 772 413 q 660 496 714 482 q 733 544 707 511 q 758 622 758 576 q 699 745 758 697 q 547 793 640 793 q 383 741 447 793 q 318 601 319 689 l 465 601 q 486 655 467 633 q 546 676 506 676 q 600 659 581 676 q 619 611 619 642 q 600 568 619 583 q 549 553 581 553 l 500 553 l 500 442 l 542 442 q 631 372 631 442 q 606 319 631 338 q 540 301 581 301 q 476 326 500 301 q 451 399 453 351 l 310 399 q 375 240 310 296 q 542 183 440 183 z "},"❹":{"ha":1090,"x_min":40,"x_max":1050,"o":"m 536 -26 q 291 44 406 -26 q 108 232 176 114 q 40 486 40 350 q 109 742 40 624 q 294 929 178 860 q 544 999 410 999 q 798 929 682 999 q 982 742 914 860 q 1050 486 1050 624 q 982 227 1050 344 q 797 42 914 110 q 536 -26 679 -26 m 694 331 l 797 331 l 797 438 l 694 438 l 694 776 l 514 776 l 278 443 l 278 331 l 553 331 l 553 200 l 694 200 l 694 331 m 408 438 q 440 476 425 454 l 529 603 q 553 639 544 622 l 553 438 l 408 438 z "},"❺":{"ha":1090,"x_min":40,"x_max":1050,"o":"m 536 -26 q 291 44 406 -26 q 108 232 176 114 q 40 486 40 350 q 109 742 40 624 q 294 929 178 860 q 544 999 410 999 q 798 929 682 999 q 982 742 914 860 q 1050 486 1050 624 q 982 227 1050 344 q 797 42 914 110 q 536 -26 679 -26 m 539 182 q 703 238 639 182 q 768 389 768 293 q 715 534 768 482 q 582 586 663 586 q 451 535 500 586 q 460 575 454 543 l 471 649 l 736 649 l 736 775 l 371 775 l 318 447 l 468 447 q 540 478 493 478 q 602 453 579 478 q 625 390 625 428 q 601 324 625 349 q 535 300 576 300 q 478 320 500 300 q 456 369 457 340 l 310 369 q 373 234 311 286 q 539 182 435 182 z "},"❻":{"ha":1090,"x_min":40,"x_max":1050,"o":"m 536 -26 q 291 44 406 -26 q 108 232 176 114 q 40 486 40 350 q 109 742 40 624 q 294 929 178 860 q 544 999 410 999 q 798 929 682 999 q 982 742 914 860 q 1050 486 1050 624 q 982 227 1050 344 q 797 42 914 110 q 536 -26 679 -26 m 550 183 q 663 210 613 183 q 743 285 714 238 q 772 393 772 333 q 717 527 772 478 q 581 576 663 576 q 442 511 497 576 q 449 543 444 518 q 481 644 457 611 q 550 676 506 676 q 594 662 578 676 q 617 617 611 647 l 763 617 q 701 744 754 696 q 554 793 647 793 q 366 713 435 793 q 297 488 297 632 q 364 262 297 340 q 550 183 431 183 m 546 301 q 483 324 506 301 q 460 382 460 346 q 483 440 460 418 q 546 463 506 463 q 608 440 585 463 q 631 382 631 418 q 608 324 631 346 q 546 301 585 301 z "},"❼":{"ha":1090,"x_min":40,"x_max":1050,"o":"m 536 -26 q 291 44 406 -26 q 108 232 176 114 q 40 486 40 350 q 109 742 40 624 q 294 929 178 860 q 544 999 410 999 q 798 929 682 999 q 982 742 914 860 q 1050 486 1050 624 q 982 227 1050 344 q 797 42 914 110 q 536 -26 679 -26 m 586 196 q 617 399 592 314 q 683 542 643 483 q 782 663 724 601 l 782 772 l 322 772 l 322 640 l 640 640 q 522 538 575 608 q 440 377 469 468 q 407 196 410 286 l 586 196 z "},"❽":{"ha":1090,"x_min":40,"x_max":1050,"o":"m 536 -26 q 291 44 406 -26 q 108 232 176 114 q 40 486 40 350 q 109 742 40 624 q 294 929 178 860 q 544 999 410 999 q 798 929 682 999 q 982 742 914 860 q 1050 486 1050 624 q 982 227 1050 344 q 797 42 914 110 q 536 -26 679 -26 m 542 183 q 715 232 653 183 q 776 357 776 281 q 746 444 776 407 q 657 499 715 481 q 736 548 708 513 q 764 633 764 583 q 703 748 764 703 q 544 793 643 793 q 384 749 444 793 q 324 629 324 704 q 351 551 324 585 q 429 499 378 517 q 342 441 372 476 q 311 349 311 406 q 370 231 311 279 q 542 183 429 183 m 544 546 q 487 564 508 546 q 465 611 465 582 q 487 658 465 640 q 544 675 508 675 q 601 658 581 675 q 622 611 622 640 q 601 564 622 582 q 544 546 581 546 m 544 303 q 478 323 503 303 q 453 375 453 343 q 477 428 453 408 q 544 449 501 449 q 610 428 586 449 q 635 375 635 408 q 610 322 635 342 q 544 303 586 303 z "},"❾":{"ha":1090,"x_min":40,"x_max":1050,"o":"m 536 -26 q 291 44 406 -26 q 108 232 176 114 q 40 486 40 350 q 109 742 40 624 q 294 929 178 860 q 544 999 410 999 q 798 929 682 999 q 982 742 914 860 q 1050 486 1050 624 q 982 227 1050 344 q 797 42 914 110 q 536 -26 679 -26 m 536 183 q 722 263 657 183 q 788 490 788 342 q 722 713 788 633 q 546 793 657 793 q 435 767 486 793 q 353 694 383 740 q 324 589 324 647 q 379 450 324 501 q 521 399 435 399 q 651 465 601 399 q 646 436 649 453 q 615 331 636 364 q 546 297 594 297 q 468 367 474 297 l 326 367 q 391 230 332 276 q 536 183 450 183 m 546 514 q 488 537 511 514 q 465 596 465 560 q 488 654 465 632 q 546 676 511 676 q 603 654 581 676 q 626 597 626 632 q 603 538 626 561 q 546 514 581 514 z "},"《":{"ha":835,"x_min":133,"x_max":715,"o":"m 706 1015 l 457 424 l 715 -179 l 388 -179 l 133 421 l 383 1015 l 706 1015 z "},"》":{"ha":835,"x_min":119,"x_max":701,"o":"m 447 1015 l 701 415 l 451 -179 l 129 -179 l 378 413 l 119 1015 l 447 1015 z "},"「":{"ha":483,"x_min":92,"x_max":465,"o":"m 285 417 l 92 417 l 92 1015 l 465 1015 l 465 865 l 285 865 l 285 417 z "},"」":{"ha":460,"x_min":13,"x_max":388,"o":"m 194 417 l 388 417 l 388 -182 l 13 -182 l 13 -32 l 194 -32 l 194 417 z "},"『":{"ha":706,"x_min":92,"x_max":663,"o":"m 474 285 l 92 285 l 92 1015 l 663 1015 l 663 667 l 474 667 l 474 285 m 239 890 l 239 418 l 325 418 l 325 793 l 515 793 l 515 890 l 239 890 z "},"』":{"ha":692,"x_min":40,"x_max":611,"o":"m 229 551 l 611 551 l 611 -179 l 40 -179 l 40 169 l 229 169 l 229 551 m 464 -54 l 464 418 l 378 418 l 378 43 l 188 43 l 188 -54 l 464 -54 z "},"【":{"ha":485,"x_min":99,"x_max":492,"o":"m 99 -179 l 99 1015 l 492 1015 l 492 1011 q 327 737 381 878 q 274 419 274 596 q 326 102 274 243 q 492 -176 379 -39 l 492 -179 l 99 -179 z "},"】":{"ha":478,"x_min":-7,"x_max":386,"o":"m 386 1015 l 386 -179 l -7 -179 l -7 -175 q 158 101 104 -40 q 211 417 211 242 q 158 734 211 593 q -7 1013 106 875 l -7 1015 l 386 1015 z "},"〔":{"ha":407,"x_min":67,"x_max":376,"o":"m 376 -106 l 243 -199 l 67 47 l 67 788 l 244 1035 l 375 939 l 260 781 l 260 58 l 376 -106 z "},"〕":{"ha":407,"x_min":29,"x_max":340,"o":"m 29 942 l 164 1035 l 340 789 l 340 49 l 161 -199 l 32 -103 l 146 56 l 146 778 l 29 942 z "},"":{"ha":1075,"x_min":26,"x_max":1046,"o":"m 535 360 l 154 -26 l 26 104 l 413 490 l 40 868 l 171 999 l 540 618 l 915 1000 l 1046 876 l 661 490 l 1044 103 l 914 -25 l 535 360 z "},"":{"ha":1228,"x_min":36,"x_max":1203,"o":"m 1203 889 l 489 -21 l 36 546 l 185 668 l 493 278 l 1058 1007 l 1203 889 z "},"":{"ha":1260,"x_min":92,"x_max":1167,"o":"m 1167 756 l 92 756 l 92 938 l 1167 938 l 1167 756 m 1167 396 l 92 396 l 92 579 l 1167 579 l 1167 396 m 1167 36 l 92 36 l 92 219 l 1167 219 l 1167 36 z "},"":{"ha":1174,"x_min":99,"x_max":1076,"o":"m 1076 0 l 99 0 l 99 972 l 1076 972 l 1076 0 m 281 800 l 281 172 l 894 172 l 894 800 l 281 800 z "},"":{"ha":1172,"x_min":99,"x_max":1099,"o":"m 1099 881 l 599 232 l 347 614 l 481 703 l 607 510 l 968 983 l 1099 881 m 1076 0 l 99 0 l 99 972 l 713 972 l 713 804 l 274 804 l 274 165 l 901 165 l 901 457 l 1076 457 l 1076 0 z "},"":{"ha":1174,"x_min":99,"x_max":1075,"o":"m 1075 0 l 99 0 l 99 972 l 1075 972 l 1075 0 m 276 804 l 276 168 l 897 168 l 897 804 l 276 804 m 704 371 l 469 371 l 469 607 l 704 607 l 704 371 z "},"":{"ha":921,"x_min":28,"x_max":892,"o":"m 892 0 l 28 0 l 28 174 l 464 174 l 92 547 l 214 669 l 376 497 l 376 1006 l 554 1006 l 554 497 l 715 668 l 838 547 l 464 174 l 892 174 l 892 0 z "},"":{"ha":942,"x_min":54,"x_max":888,"o":"m 471 69 q 262 126 357 69 q 110 277 167 182 q 54 486 54 372 q 110 695 54 600 q 262 847 167 790 q 471 903 357 903 q 679 847 583 903 q 831 695 775 790 q 888 486 888 600 q 831 277 888 372 q 679 126 775 182 q 471 69 583 69 z "},"":{"ha":775,"x_min":54,"x_max":721,"o":"m 388 153 q 221 197 297 153 q 99 319 144 242 q 54 486 54 396 q 99 653 54 576 q 221 775 144 731 q 388 819 297 819 q 555 775 478 819 q 676 653 632 731 q 721 486 721 576 q 676 319 721 396 q 555 197 632 242 q 388 153 478 153 z "},"":{"ha":985,"x_min":54,"x_max":931,"o":"m 492 49 q 272 108 372 49 q 113 267 172 167 q 54 486 54 367 q 113 706 54 606 q 272 865 172 806 q 492 924 372 924 q 712 865 611 924 q 872 706 813 806 q 931 486 931 606 q 872 267 931 367 q 712 108 813 167 q 492 49 611 49 m 492 207 q 628 244 565 207 q 727 347 690 282 q 764 486 764 411 q 727 626 764 561 q 628 728 690 690 q 492 765 565 765 q 356 728 418 765 q 256 626 293 690 q 219 486 219 561 q 256 347 219 411 q 356 244 293 282 q 492 207 418 207 z "},"":{"ha":778,"x_min":54,"x_max":722,"o":"m 389 153 q 222 197 299 153 q 99 319 144 242 q 54 486 54 396 q 99 653 54 576 q 222 775 144 731 q 389 819 299 819 q 556 775 479 819 q 677 653 632 731 q 722 486 722 576 q 677 319 722 396 q 556 197 632 242 q 389 153 479 153 m 389 300 q 480 325 439 300 q 545 393 521 350 q 569 486 569 436 q 545 579 569 536 q 480 647 521 622 q 389 672 439 672 q 297 647 339 672 q 231 580 256 622 q 207 486 207 538 q 231 392 207 435 q 297 325 256 350 q 389 300 339 300 z "},"":{"ha":1149,"x_min":54,"x_max":1096,"o":"m 575 -32 q 314 38 433 -32 q 124 226 194 107 q 54 486 54 344 q 124 747 54 628 q 314 936 194 867 q 575 1006 433 1006 q 836 936 717 1006 q 1026 747 956 867 q 1096 486 1096 628 q 1026 226 1096 344 q 836 38 956 107 q 575 -32 717 -32 m 575 97 q 770 150 681 97 q 913 292 860 203 q 965 486 965 381 q 913 681 965 592 q 770 822 860 769 q 575 875 681 875 q 380 822 469 875 q 238 681 290 769 q 185 486 185 592 q 238 292 185 381 q 380 150 290 203 q 575 97 469 97 m 575 167 q 415 210 489 167 q 297 326 340 253 q 254 486 254 400 q 297 646 254 572 q 415 763 340 719 q 575 806 489 806 q 735 763 661 806 q 851 646 808 719 q 894 486 894 572 q 851 326 894 400 q 735 210 808 253 q 575 167 661 167 m 575 293 q 672 319 628 293 q 741 389 715 344 q 767 486 767 433 q 741 582 767 538 q 672 653 715 626 q 575 679 628 679 q 478 653 522 679 q 408 583 433 628 q 382 486 382 539 q 408 389 382 433 q 478 319 433 344 q 575 293 522 293 m 575 374 q 496 407 529 374 q 463 486 463 440 q 496 566 463 533 q 575 599 529 599 q 653 566 621 599 q 686 486 686 533 q 653 407 686 440 q 575 374 621 374 z "},"":{"ha":988,"x_min":54,"x_max":933,"o":"m 493 47 q 272 106 372 47 q 113 265 171 164 q 54 486 54 365 q 113 708 54 607 q 272 867 171 808 q 493 925 372 925 q 715 867 614 925 q 874 708 815 808 q 933 486 933 607 q 874 265 933 365 q 715 106 815 164 q 493 47 614 47 m 493 182 q 645 222 576 182 q 753 333 714 263 q 793 486 793 403 q 753 640 793 569 q 645 750 714 710 q 493 790 576 790 q 342 750 411 790 q 234 640 274 710 q 194 486 194 569 q 234 333 194 403 q 342 222 274 263 q 493 182 411 182 m 493 256 q 378 286 431 256 q 294 369 325 317 q 264 486 264 422 q 294 603 264 550 q 378 686 325 656 q 493 717 431 717 q 610 686 557 717 q 693 603 663 656 q 724 486 724 550 q 693 369 724 422 q 610 286 663 317 q 493 256 557 256 m 493 385 q 564 415 535 385 q 593 486 593 444 q 565 558 593 529 q 493 588 536 588 q 424 558 453 588 q 394 486 394 529 q 424 415 394 444 q 493 385 453 385 z "},"":{"ha":776,"x_min":54,"x_max":722,"o":"m 388 153 q 220 197 297 153 q 99 319 143 242 q 54 486 54 396 q 99 653 54 576 q 220 775 143 731 q 388 819 297 819 q 556 775 479 819 q 678 653 633 731 q 722 486 722 576 q 678 319 722 396 q 556 197 633 242 q 388 153 479 153 m 388 286 q 488 313 443 286 q 559 385 533 339 q 585 486 585 431 q 559 588 585 542 q 488 660 533 633 q 388 686 443 686 q 288 660 333 686 q 217 588 243 633 q 192 486 192 542 q 217 385 192 431 q 288 313 243 339 q 388 286 333 286 m 388 365 q 303 401 339 365 q 268 486 268 436 q 303 572 268 538 q 388 607 339 607 q 474 572 439 607 q 508 486 508 538 q 474 401 508 436 q 388 365 439 365 z "},"":{"ha":1174,"x_min":101,"x_max":1074,"o":"m 1074 0 l 101 0 l 101 972 l 1074 972 l 1074 0 m 243 832 l 243 140 l 931 140 l 931 832 l 243 832 m 860 214 l 315 214 l 315 758 l 860 758 l 860 214 m 444 631 l 444 342 l 731 342 l 731 631 l 444 631 m 658 414 l 515 414 l 515 558 l 658 558 l 658 414 z "},"":{"ha":965,"x_min":101,"x_max":865,"o":"m 865 104 l 101 104 l 101 868 l 865 868 l 865 104 m 228 743 l 228 229 l 738 229 l 738 743 l 228 743 m 674 294 l 293 294 l 293 678 l 674 678 l 674 294 m 408 564 l 408 410 l 557 410 l 557 564 l 408 564 z "},"":{"ha":733,"x_min":89,"x_max":644,"o":"m 644 208 l 89 208 l 89 764 l 644 764 l 644 208 m 222 633 l 222 340 l 511 340 l 511 633 l 222 633 m 439 415 l 294 415 l 294 558 l 439 558 l 439 415 z "},"":{"ha":1292,"x_min":58,"x_max":1188,"o":"m 113 933 q 140 918 133 933 q 150 868 146 903 q 156 835 151 861 q 169 785 160 808 q 207 719 182 758 q 253 656 232 681 q 306 619 275 631 q 385 608 338 608 q 406 608 394 608 q 517 613 469 613 q 622 607 571 613 q 703 601 678 601 q 793 613 753 601 q 844 641 818 619 q 883 683 871 663 q 924 735 900 710 q 968 760 947 760 q 992 747 985 760 q 999 710 999 735 q 1010 682 999 692 q 1039 672 1021 672 q 1079 686 1065 672 q 1099 713 1081 688 q 1118 740 1110 731 q 1139 750 1126 750 q 1174 712 1161 750 q 1188 636 1188 674 q 1181 512 1188 551 q 1151 410 1175 472 q 1126 310 1142 388 q 1104 189 1111 233 q 1093 56 1099 151 q 1056 0 1088 0 q 1049 0 1051 0 q 1025 15 1036 1 q 1000 54 1014 29 q 980 86 989 75 q 963 97 971 97 q 956 88 957 97 q 953 69 954 78 q 953 57 953 61 q 948 12 951 28 q 935 -8 944 -4 q 921 -11 926 -11 q 888 4 904 -11 q 864 54 871 19 q 801 179 846 131 q 750 224 774 211 q 678 238 726 238 q 586 229 642 238 q 508 201 535 221 q 469 149 481 182 q 451 58 458 117 q 418 -6 442 -6 q 390 12 400 -6 q 371 58 379 29 q 363 81 367 71 q 353 92 358 92 q 338 81 343 92 q 326 46 333 71 q 310 0 319 17 q 285 -17 301 -17 q 261 -5 272 -17 q 246 36 250 7 l 215 292 q 199 392 210 338 q 183 458 188 447 q 140 547 168 499 q 122 583 136 556 q 93 644 107 610 q 69 731 81 678 q 58 831 58 785 q 72 906 58 878 q 113 933 85 933 m 954 708 q 931 682 933 696 l 931 678 q 939 654 931 663 l 954 708 m 1146 663 q 1147 674 1147 667 q 1140 693 1147 683 q 1129 657 1129 672 q 1135 640 1129 646 q 1146 663 1142 649 m 1003 494 q 1007 511 1007 503 q 995 531 1007 522 q 953 553 983 539 q 942 556 947 556 q 921 541 931 556 q 911 506 911 526 q 950 528 931 528 q 956 528 953 528 q 979 504 979 524 q 972 483 979 488 q 951 477 965 478 q 931 472 936 476 q 919 457 919 463 q 936 447 919 450 q 968 443 957 443 q 974 458 969 451 q 983 469 978 464 q 1003 494 996 479 m 1094 447 q 1113 460 1103 450 q 1122 483 1122 471 q 1111 515 1122 501 q 1089 529 1100 529 q 1078 522 1082 529 q 1104 494 1094 522 q 1106 488 1106 490 q 1098 468 1106 479 q 1074 457 1090 457 q 1081 448 1078 450 q 1088 446 1085 446 q 1094 447 1090 446 z "},"ﬁ":{"ha":861,"x_min":22,"x_max":789,"o":"m 783 0 l 582 0 l 582 524 l 353 524 l 353 0 l 151 0 l 151 524 l 22 524 l 22 681 l 151 681 l 151 746 q 216 934 151 871 q 393 997 281 997 q 488 985 447 997 l 488 828 q 443 835 469 835 q 376 813 401 835 q 351 751 351 792 l 351 681 l 783 681 l 783 0 m 579 775 l 579 963 l 789 963 l 789 775 l 579 775 z "},"ﬂ":{"ha":868,"x_min":22,"x_max":789,"o":"m 151 0 l 151 524 l 22 524 l 22 681 l 151 681 l 151 746 q 216 934 151 871 q 393 997 281 997 q 488 985 447 997 l 488 828 q 443 835 469 835 q 376 813 401 835 q 351 751 351 792 l 351 681 l 490 681 l 490 524 l 353 524 l 353 0 l 151 0 m 588 972 l 789 972 l 789 0 l 588 0 l 588 972 z "}}}
